<?xml version="1.0" encoding="UTF-8"?>
<svg id="katman_2" data-name="katman 2" xmlns="http://www.w3.org/2000/svg" viewBox="0 0 80 48.98">
  <defs>
    <style>
      .cls-1, .cls-2 {
        stroke-width: 0px;
      }

      .cls-2 {
        fill: #4c7883;
      }
    </style>
  </defs>
  <g id="katman_1" data-name="katman 1">
    <g id="cardfinans">
      <path id="arka" class="cls-1" d="m2.85,7.19v41.79h74.3V7.19H2.85Zm72.44,39.93H4.71V9.05h70.58v38.07Z"/>
      <path class="cls-2" d="m52.32,31.76l-1.13,3.41h2.23l-1.1-3.41Zm0,0l-1.13,3.41h2.23l-1.1-3.41Zm0,0l-1.13,3.41h2.23l-1.1-3.41Zm0,0l-1.13,3.41h2.23l-1.1-3.41Zm-13.05-12.66c-.27-.74-.48-1.34-.61-1.81-.11.56-.27,1.11-.47,1.66l-.96,2.56h2.95l-.91-2.41Zm9.86-1.36c-.3-.27-.77-.4-1.42-.4h-2.75v2.88h2.47c.53,0,.94-.06,1.24-.17.3-.1.52-.28.68-.52.15-.24.23-.5.23-.78,0-.41-.15-.75-.45-1.01Zm3.19,14.02l-1.13,3.41h2.23l-1.1-3.41Zm0,0l-1.13,3.41h2.23l-1.1-3.41Zm-3.19-14.02c-.3-.27-.77-.4-1.42-.4h-2.75v2.88h2.47c.53,0,.94-.06,1.24-.17.3-.1.52-.28.68-.52.15-.24.23-.5.23-.78,0-.41-.15-.75-.45-1.01Zm-9.86,1.36c-.27-.74-.48-1.34-.61-1.81-.11.56-.27,1.11-.47,1.66l-.96,2.56h2.95l-.91-2.41ZM0,0v45h80V0H0Zm59.77,20.68c0,.66-.08,1.25-.23,1.76-.16.51-.36.93-.6,1.27-.24.33-.5.6-.79.79-.29.19-.63.33-1.04.43-.4.1-.87.15-1.4.15h-3.14v-8.7h3c.68,0,1.19.04,1.55.12.5.12.92.32,1.28.62.46.39.8.89,1.03,1.49.23.61.34,1.3.34,2.07Zm-16.9,4.4h-1.32l-1.01-2.63h-3.64l-.96,2.63h-1.22l3.34-8.7h1.24l3.57,8.7Zm-14.8-2.48c.22.55.55.96,1.01,1.24.45.27.94.4,1.48.4.64,0,1.19-.18,1.63-.55.45-.38.76-.93.91-1.66l1.16.29c-.25.95-.68,1.67-1.31,2.17-.63.49-1.39.74-2.3.74s-1.7-.19-2.29-.57c-.59-.38-1.03-.94-1.34-1.66-.31-.73-.46-1.5-.46-2.34,0-.9.17-1.69.52-2.37.34-.67.84-1.19,1.48-1.54.64-.35,1.34-.52,2.11-.52.87,0,1.6.22,2.2.66.59.45,1,1.07,1.24,1.87l-1.14.27c-.2-.63-.49-1.09-.88-1.38-.38-.29-.86-.44-1.44-.44-.67,0-1.23.16-1.68.48-.45.32-.77.76-.95,1.3-.18.54-.27,1.09-.27,1.67,0,.74.1,1.38.32,1.94Zm-4.03-5.28v3.34h-4.8l4.8,4.8-2.38,2.38-4.76-4.8v4.8h-3.34v-4.8l-4.8,4.8-2.35-2.38,4.76-4.8h-4.79v-3.34h4.79l-4.79-4.8,2.38-2.38,4.8,4.8v-4.8h3.34v4.8l4.76-4.76,2.38,2.34-4.8,4.8h4.8Zm13.72,21.35h-2.36v-8.71h2.36v8.71Zm.04-9.63h-8v2.63h4.72v2.32h-4.72v4.68h-3.24v-11.9h11.24v2.27Zm9.19,9.63h-2.93l-3.02-5.82v5.82h-2.14v-8.71h3.06l2.88,5.73v-5.73h2.15v8.71Zm-.05-17.41c-.14-.03-.35-.04-.65-.04h-1.33v3.86h-1.15v-8.7h3.86c.77,0,1.36.07,1.77.23.4.16.72.43.96.83.25.39.37.83.37,1.31,0,.62-.2,1.14-.6,1.56-.4.43-1.02.7-1.86.81.31.15.54.29.7.43.33.31.65.7.95,1.16l1.52,2.37h-1.45l-1.15-1.81c-.34-.52-.62-.92-.83-1.2-.22-.28-.42-.47-.59-.58-.17-.11-.35-.19-.52-.23Zm7.66,17.41l-.66-1.84h-3.32l-.66,1.84h-2.4l3.36-8.71h2.89l3.37,8.71h-2.58Zm11.46,0h-2.89l-3.06-5.82v5.82h-2.14v-8.71h3.06l2.88,5.73v-5.73h2.15v8.71Zm3.76.17c-.83,0-1.84-.13-2.63-.39l.22-1.93c.62.35,1.45.62,2.41.62.74,0,1.4-.18,1.4-.88,0-1.62-4.11-.61-4.11-3.76,0-2.1,2.05-2.67,3.8-2.67.83,0,1.66.09,2.28.31l-.18,1.79c-.61-.26-1.27-.39-1.92-.39-.61,0-1.58.04-1.58.78,0,1.45,4.11.49,4.11,3.64,0,2.27-1.88,2.88-3.8,2.88Zm-12.78-21.26c-.31-.12-.8-.18-1.49-.18h-1.83v6.65h1.86c.58,0,1.03-.05,1.35-.16.33-.1.59-.25.78-.45.28-.27.49-.64.64-1.1.15-.46.23-1.02.23-1.68,0-.91-.15-1.61-.45-2.1-.3-.48-.66-.81-1.09-.98Zm-5.85,17.59h2.23l-1.1-3.41-1.13,3.41Zm-1.84-15.64c.15-.24.23-.5.23-.78,0-.41-.15-.75-.45-1.01-.3-.27-.77-.4-1.42-.4h-2.75v2.88h2.47c.53,0,.94-.06,1.24-.17.3-.1.52-.28.68-.52Zm-9.17,1.98l-.91-2.41c-.27-.74-.48-1.34-.61-1.81-.11.56-.27,1.11-.47,1.66l-.96,2.56h2.95Zm-.91-2.41c-.27-.74-.48-1.34-.61-1.81-.11.56-.27,1.11-.47,1.66l-.96,2.56h2.95l-.91-2.41Zm13.05,12.66l-1.13,3.41h2.23l-1.1-3.41Zm0,0l-1.13,3.41h2.23l-1.1-3.41Zm-13.05-12.66c-.27-.74-.48-1.34-.61-1.81-.11.56-.27,1.11-.47,1.66l-.96,2.56h2.95l-.91-2.41Zm13.05,12.66l-1.13,3.41h2.23l-1.1-3.41Zm0,0l-1.13,3.41h2.23l-1.1-3.41Zm0,0l-1.13,3.41h2.23l-1.1-3.41Zm0,0l-1.13,3.41h2.23l-1.1-3.41Z"/>
    </g>
  </g>
</svg>