<?xml version="1.0" encoding="utf-8"?>
<!-- Generator: Adobe Illustrator 27.9.0, SVG Export Plug-In . SVG Version: 6.00 Build 0)  -->
<svg version="1.1" id="katman_1" xmlns="http://www.w3.org/2000/svg" xmlns:xlink="http://www.w3.org/1999/xlink" x="0px" y="0px"
	 viewBox="0 0 1920 1080" style="enable-background:new 0 0 1920 1080;" xml:space="preserve">
<style type="text/css">
	.st0{display:none;}
	.st1{display:inline;}
	.st2{display:inline;fill:#4C7886;}
	.st3{fill:#4C7886;}
	.st4{display:none;fill:#FF0000;}
	.st5{display:none;fill:#4C7886;}
</style>
<g id="VISA" class="st0">
	<path class="st1" d="M385.96,234.02v41.79h74.3v-41.79H385.96z M458.4,273.95h-70.58V239.3c-0.17-0.05-0.35-0.09-0.52-0.13
		l0.07-0.44h0.45v-2.85h70.58v21.77l0.52,2.36h-0.52V273.95z"/>
	<path class="st2" d="M450.55,246.32l-0.39-1.84c-0.29,0.78-0.77,2.02-0.77,2.03l-2.32,5.95h4.83L450.55,246.32z M450.55,246.32
		l-0.39-1.84c-0.29,0.78-0.77,2.02-0.77,2.03l-2.32,5.95h4.83L450.55,246.32z M383.11,226.83v45h80v-45H383.11z M398.54,259.98
		L393.53,242c-0.08-0.3-0.27-0.55-0.53-0.72c-1.65-0.85-3.39-1.51-5.18-1.98c-0.17-0.05-0.35-0.09-0.52-0.13l0.07-0.44h9.35
		c1.26,0.05,2.28,0.44,2.63,1.8l2.04,9.76l0.6,2.95l5.67-14.5h6.15l-9.13,21.24H398.54z M418.3,259.84h-5.8l3.63-21.28h5.8
		L418.3,259.84z M428.49,260.31c-2.59-0.05-5.1-0.54-6.5-1.13l0.82-4.76l0.71,0.33c1.92,0.8,3.17,1.12,5.46,1.12
		c1.67,0,3.46-0.65,3.47-2.07c0.01-0.94-0.75-1.59-3.01-2.64c-2.2-1.02-5.11-2.73-5.07-5.78c0.02-4.14,4.07-7.03,9.8-7.03
		c1.77-0.01,3.53,0.3,5.2,0.9l0.14-0.03l-0.82,4.61l-0.53-0.24c-1.38-0.58-2.86-0.86-4.35-0.82c-2.24,0-3.31,0.95-3.31,1.83
		c0,1,1.25,1.66,3.27,2.64c3.31,1.52,4.89,3.36,4.84,5.79C438.56,257.44,434.58,260.31,428.49,260.31z M453.55,260.01
		c0,0-0.53-2.44-0.71-3.19l-7.43-0.01l-1.22,3.2h-6.09l8.61-19.5c0.61-1.39,1.65-1.77,3.05-1.77h4.47l4.17,18.91l0.52,2.36H453.55z
		 M450.16,244.48c-0.29,0.78-0.77,2.02-0.77,2.03l-2.32,5.95h4.83l-1.35-6.14L450.16,244.48z M450.55,246.32l-0.39-1.84
		c-0.29,0.78-0.77,2.02-0.77,2.03l-2.32,5.95h4.83L450.55,246.32z M450.55,246.32l-0.39-1.84c-0.29,0.78-0.77,2.02-0.77,2.03
		l-2.32,5.95h4.83L450.55,246.32z"/>
</g>
<g id="mastercard" class="st0">
	<path id="arka_00000103970145771697436540000018240201525537093310_" class="st1" d="M633.45,81.86c1.11,0.51,2.15,1.13,3.11,1.86
		h14.73v38.07h-70.58V83.72h14.73c0.96-0.73,2-1.35,3.11-1.86h-19.7v41.79h74.3V81.86H633.45z M614.54,83.47L614.54,83.47
		c-0.1,0.08-0.19,0.16-0.28,0.25h3.47c-0.09-0.09-0.18-0.17-0.27-0.25c-0.11-0.12-0.24-0.23-0.37-0.34
		c0.72-0.48,1.48-0.91,2.27-1.27h-6.73c0.8,0.36,1.56,0.79,2.28,1.27C614.77,83.24,614.65,83.35,614.54,83.47z"/>
	<path class="st2" d="M576,74.67v45h80v-45H576z M605.59,114.02c-9.31,0-16.85-7.54-16.85-16.85c0-5.5,2.63-10.38,6.7-13.45
		c0.96-0.73,2-1.35,3.11-1.86c2.14-0.99,4.53-1.54,7.04-1.54c2.51,0,4.9,0.55,7.04,1.54c0.8,0.36,1.56,0.79,2.28,1.27
		c-0.14,0.11-0.26,0.22-0.37,0.34h-0.01c-0.09,0.08-0.18,0.16-0.27,0.25c-3.69,3.33-6,8.13-6,13.46c0,5.46,2.41,10.35,6.22,13.67
		l0.02,0.02c0.13,0.11,0.28,0.22,0.41,0.33C612.29,112.97,609.06,114.02,605.59,114.02z M615.99,110.41
		c-0.21-0.17-0.43-0.35-0.63-0.53l-0.02-0.01c-3.54-3.09-5.78-7.63-5.78-12.7s2.24-9.61,5.8-12.71c0.21-0.19,0.42-0.35,0.64-0.53
		c0.22,0.18,0.43,0.35,0.63,0.53l0.02,0.01c3.54,3.09,5.78,7.63,5.78,12.7s-2.24,9.61-5.8,12.71
		C616.42,110.06,616.21,110.24,615.99,110.41z M626.41,114.02c-3.48,0-6.71-1.05-9.33-2.82c0.14-0.11,0.28-0.22,0.41-0.33l0.02-0.02
		c3.82-3.32,6.22-8.21,6.22-13.67c0-2.73-0.61-5.32-1.69-7.65c-1.04-2.21-2.51-4.18-4.31-5.81c-0.09-0.09-0.18-0.17-0.27-0.25
		c-0.11-0.12-0.24-0.23-0.37-0.34c0.72-0.48,1.48-0.91,2.27-1.27c2.13-0.99,4.51-1.54,7.02-1.54h0.03c2.51,0,4.9,0.55,7.04,1.54
		c1.11,0.51,2.15,1.13,3.11,1.86c4.07,3.07,6.7,7.95,6.7,13.45C643.26,106.48,635.72,114.02,626.41,114.02z"/>
</g>
<g id="troy">
	<path id="arka_00000071532789124034484760000016029668100542094726_" d="M922.85,524.69v41.79h74.3v-41.79H922.85z M995.29,564.62
		h-70.58v-38.08h70.58V564.62z"/>
	<path class="st3" d="M996.6,517.5h-73.2H920v45h3.4h73.2h3.4v-45H996.6z M938.74,545.2c0.66,0.04,0.8,0.08,0.8,0.18
		c-0.01,0.26-0.82,4.73-0.87,4.79c-0.26,0.06-0.53,0.09-0.81,0.09c-0.09,0-0.18,0-0.26-0.01c-0.48,0-1.04-0.02-1.45-0.06
		c-3.13-0.33-5.06-1.75-5.44-4c-0.02-0.3-0.03-0.61-0.03-0.92c0-1.51,0.21-2.97,0.57-4.25l0.38-2.19c0.1-0.58,0.18-0.96,0.18-1.02
		l0.02-0.19h-1.24c-0.62,0-1.26-0.01-1.28-0.02c-0.03-0.02,0.13-1.03,0.34-2.25l0.29-1.57c0.06-0.39,0.1-0.65,0.12-0.66
		c0.02-0.02,0.92-0.02,1.27-0.02l1.27,0.01l0.05-0.23c0.02-0.13,0.19-1.08,0.37-2.12c0.19-1.05,0.36-2.01,0.38-2.14l0.05-0.23
		l1.98,0.02c1.91,0.04,1.95,0.04,2.39,0.26c0.89,0.43,0.98,0.96,0.58,3.17l-0.23,1.26h1.76c1.35,0,1.76,0.02,1.76,0.1
		c0,0.2-0.74,4.26-0.79,4.35c-0.34,0.04-0.67,0.07-1.02,0.07c-0.13,0-0.26-0.01-0.37-0.01h-1.26c-0.83,0-0.87,0.03-0.9,0.15
		c-0.18,0.8-0.94,5.4-0.94,5.73C936.41,544.59,937.13,545.11,938.74,545.2z M954.34,538.42c-0.03,0.16-0.09,0.17-1.11,0.17h-0.02
		c-0.11-0.01-0.22-0.01-0.33-0.01c-0.49,0-0.97,0.07-1.38,0.2l-0.04,0.01c-1.73,0.54-3.09,1.94-3.58,3.74
		c-0.09,0.31-0.42,1.97-0.71,3.63c-0.29,1.69-0.57,3.27-0.63,3.5l-0.08,0.43h-2.8c-0.28,0.01-0.56,0.01-0.84,0.01
		c-0.72,0-1.43-0.03-2.04-0.08c0-0.08,2.86-16.32,2.94-16.7l0.05-0.23l1.89,0.03h0.36c0.66,0,1.3,0.05,1.86,0.15
		c0.98,0.37,1.17,1.01,0.83,2.84v-0.05c-0.06,0.29-0.1,0.58-0.13,0.91c0.08-0.09,0.15-0.19,0.19-0.3l0.03-0.04
		c0.43-0.7,0.96-1.33,1.56-1.89c0.91-0.82,2.03-1.41,3.32-1.68c0.3-0.05,0.62-0.08,0.94-0.08h0.19c0.16,0,0.32,0.02,0.45,0.07
		C955.26,533.21,954.44,538.02,954.34,538.42z M963.2,538.24c-1.06,0.24-1.92,0.95-2.4,1.92c-0.18,0.34-0.29,0.73-0.29,1.14
		c0,0.11,0.01,0.21,0.02,0.3c-0.01,0.1-0.02,0.21-0.02,0.31c0,0.44,0.12,0.85,0.33,1.18l0.01,0.03c0.3,0.59,0.75,1.1,1.31,1.49
		l0.22,0.17l-0.46,2.51c-0.22,1.25-0.46,2.52-0.51,2.56l-0.05-0.01c-0.7-0.21-1.37-0.52-1.94-0.89l-0.04-0.02
		c-1.95-1.21-3.38-3.18-3.89-5.55c-0.09-0.5-0.14-1.01-0.14-1.53c0-0.1,0-0.21,0.01-0.29c-0.01-0.1-0.01-0.19-0.01-0.3
		c0-1.28,0.33-2.49,0.9-3.5l0.02-0.05c1.15-2.3,3.31-4.01,5.95-4.55h-0.05c0.47-0.08,0.95-0.13,1.43-0.13h0.3
		c0.37,0,0.48,0.02,0.51,0.14c-0.04,0.16-0.87,4.85-0.87,4.96c0,0.04-0.15,0.09-0.31,0.11H963.2z M963.82,550.25
		c-0.32,0-0.37-0.02-0.37-0.04c0-0.06,0.8-4.6,0.87-4.95c0.03-0.13,0.14-0.21,0.42-0.27l0.03-0.01c1.51-0.39,2.62-1.76,2.62-3.4
		c0-0.09,0-0.19-0.01-0.27v-0.02c-0.12-1.06-0.7-1.98-1.55-2.57c-0.12-0.06-0.22-0.14-0.31-0.24c0-0.07,0.81-4.69,0.87-4.95
		c0.02-0.09,0.04-0.15,0.12-0.15l0.02,0.01c0.27,0.06,0.53,0.15,0.75,0.27l0.06,0.02c2.5,1.08,4.39,3.31,5.02,6.08l0.01,0.06
		c0.1,0.61,0.16,1.25,0.16,1.89c0,0.49-0.04,0.97-0.09,1.38l-0.01,0.05c-0.72,3.89-4.03,6.86-8.09,7.09
		C964.16,550.25,963.97,550.25,963.82,550.25z M981.75,553.53l-0.02,0.03c-1.23,1.81-3.06,3.18-5.27,3.83l-0.02,0.01
		c-0.91,0.21-1.86,0.31-2.83,0.31c-0.41,0-0.82-0.02-1.18-0.05c-0.67,0.01-1.23,0.01-1.66,0.01c-0.17,0.01-0.34,0.02-0.52,0.02
		c-0.36,0-0.71-0.04-1.02-0.1c0-0.05,0.15-0.95,0.34-2.09c0.36-2.16,0.54-2.7,1.01-3.04c0.25-0.18,0.33-0.19,2.32-0.23l2.06-0.04
		l0.5-0.25c0.61-0.34,1.11-0.86,1.42-1.51c0.37-0.78,0.37-0.78-1.94-8.86l-0.13-0.47c-1.08-3.77-2.21-7.81-2.21-7.94
		c0.41-0.04,0.83-0.06,1.25-0.06c0.17,0,0.34,0.01,0.48,0.01h1.15c2.73,0.03,2.88,0.03,3.19,0.19l0.01,0.01
		c0.33,0.15,0.59,0.42,0.73,0.77c0.07,0.16,0.44,2.34,0.83,4.86c0.33,2.11,0.74,4.64,0.78,4.74l-0.1,0.2c0.81-1.47,1.53-3,2.25-4.84
		c1.22-2.81,2.18-4.9,2.32-5.07c0.22-0.23,0.49-0.42,0.8-0.57l0.55-0.27l2.9-0.02h1.23c0.17-0.01,0.36-0.02,0.53-0.02
		c0.41,0,0.81,0.03,1.15,0.08C992.65,533.34,982.16,552.93,981.75,553.53z"/>
</g>
<rect x="920" y="517.5" class="st4" width="80" height="45"/>
<path id="arka" class="st0" d="M922.85,524.69v41.79h74.3v-41.79H922.85z M995.29,564.62h-70.58v-38.08h70.58V564.62z"/>
<rect x="885" y="317.44" class="st5" width="68.56" height="68.56"/>
</svg>
