<?xml version="1.0" encoding="UTF-8"?>
<svg id="katman_2" data-name="katman 2" xmlns="http://www.w3.org/2000/svg" viewBox="0 0 122.92 134.39">
  <defs>
    <style>
      .cls-1 {
        stroke-width: 0px;
      }
    </style>
  </defs>
  <g id="katman_1" data-name="katman 1">
    <path class="cls-1" d="m122.9,113.98c-.04-.25-.12-.51-.24-.76-.14-.26-.3-.48-.5-.67-.23-.2-.47-.36-.77-.49-3.99-1.92-7.21-4.97-9.33-8.84-2.17-3.79-3.77-7.86-4.76-12.11-1.28-5.18-2.02-10.54-2.19-15.88v-19c0-8.57-2.58-16.82-7.48-23.85-2.36-3.41-5.2-6.46-8.45-9.08-3.27-2.63-6.9-4.79-10.8-6.4l-.87-.36v-.95c-.02-3.13-.98-6.13-2.76-8.7-.57-.82-1.23-1.6-1.95-2.3-3.04-2.97-7.06-4.61-11.32-4.61-3.19,0-6.28.93-8.94,2.69-.83.55-1.63,1.19-2.37,1.91-1.46,1.42-2.61,3.09-3.43,4.95-.84,1.92-1.27,3.96-1.27,6.05v.95l-.88.36c-3.89,1.6-7.52,3.76-10.8,6.4-3.24,2.62-6.09,5.67-8.45,9.09-4.9,7.02-7.49,15.27-7.49,23.84v18.96s-.02,1.96-.34,5.08c-.17,1.72-.39,3.39-.66,4.98-.33,2.04-.73,4-1.2,5.85-.99,4.25-2.59,8.32-4.76,12.11-2.13,3.87-5.35,6.92-9.33,8.83l-.04.02c-.27.11-.53.28-.72.46-.21.19-.38.42-.52.68-.38.76-.35,1.66.11,2.36.31.48.79.84,1.33,1.02.28.1.58.15.88.15h38.95l.22,1.16c.74,3.96,2.63,7.58,5.47,10.46,3.71,3.84,8.91,6.04,14.25,6.04h.04c5.32,0,10.51-2.2,14.22-6.02,2.84-2.87,4.74-6.48,5.49-10.46l.21-1.15h38.96c.29,0,.58-.05.86-.14.26-.1.49-.23.73-.41.22-.18.4-.38.55-.62.3-.47.43-1.04.36-1.61Zm-46.59,2.75l-.49,1.79c-1.38,5.06-5.38,9.06-10.44,10.44-1.29.35-2.61.53-3.93.53-6.69,0-12.59-4.52-14.36-10.97l-.49-1.79h29.71Zm35.88-4.93H10.74l1.78-2.29c2.98-3.84,5.24-8.13,6.7-12.75l.31-.99h83.86l.32.99c1.47,4.64,3.72,8.93,6.7,12.75l1.78,2.29Zm-10.53-22.61l.36,1.71H20.92l.35-1.71c.65-3.16,1.13-6.39,1.4-9.58.21-2.2.24-3.7.24-4.39v-19c.25-20.8,17.38-37.72,38.18-37.72h.73c20.8,0,37.93,16.94,38.19,37.74v19c.12,4.68.67,9.38,1.64,13.95ZM71.98,12.66l.72,2.29-2.35-.48c-2.92-.59-5.9-.89-8.88-.89s-5.98.3-8.88.89l-2.35.48.72-2.29c1.07-3.45,3.77-6.15,7.23-7.23,1.07-.33,2.18-.5,3.29-.5,4.84,0,9.06,3.11,10.51,7.73Z"/>
  </g>
</svg>