<?xml version="1.0" encoding="UTF-8"?>
<svg id="katman_2" data-name="katman 2" xmlns="http://www.w3.org/2000/svg" viewBox="0 0 120.92 132.39">
  <defs>
    <style>
      .cls-1 {
        stroke-width: 0px;
      }
    </style>
  </defs>
  <g id="katman_1" data-name="katman 1">
    <path id="bildiri" class="cls-1" d="m120.91,113.12c-.02-.15-.07-.3-.14-.44-.08-.16-.18-.29-.29-.39-.14-.12-.29-.23-.44-.29l-.09-.04c-4.17-2.01-7.56-5.21-9.76-9.24-2.22-3.87-3.85-8.04-4.86-12.37-1.3-5.25-2.04-10.66-2.22-16.12v-19c0-8.36-2.52-16.41-7.3-23.28-2.3-3.33-5.09-6.32-8.26-8.87-3.19-2.58-6.75-4.68-10.55-6.25l-1.49-.61v-1.61c-.02-2.92-.91-5.73-2.59-8.13-.54-.77-1.15-1.5-1.83-2.16-2.85-2.79-6.63-4.32-10.63-4.32-2.99,0-5.89.88-8.4,2.53-.79.52-1.54,1.12-2.22,1.79-1.37,1.33-2.45,2.89-3.21,4.63-.78,1.79-1.19,3.69-1.19,5.65v1.62l-1.5.62c-3.8,1.57-7.35,3.67-10.56,6.25-3.17,2.55-5.95,5.54-8.26,8.88-4.78,6.86-7.31,14.9-7.31,23.27v18.97s-.02,2.01-.34,5.17c-.17,1.74-.4,3.43-.66,5.04-.34,2.06-.74,4.06-1.21,5.91-1.01,4.34-2.65,8.51-4.86,12.37-2.23,4.05-5.61,7.25-9.76,9.24l-.11.05c-.16.07-.31.16-.43.28-.12.11-.22.24-.3.39-.22.44-.2.96.05,1.36.19.29.48.52.83.63.18.06.36.09.55.09h39.78l.37,1.98c.7,3.77,2.5,7.21,5.21,9.95,3.53,3.65,8.46,5.73,13.53,5.73h.04c5.05,0,9.98-2.08,13.51-5.72,2.7-2.73,4.51-6.16,5.22-9.94l.37-1.97h39.79c.18,0,.36-.03.51-.08.16-.06.31-.14.46-.26.13-.1.24-.23.34-.38.18-.27.25-.6.2-.92ZM49,11.37c1.17-3.76,4.12-6.71,7.88-7.89,1.16-.36,2.37-.55,3.59-.55,5.28,0,9.89,3.39,11.47,8.43l1.22,3.91-4.01-.82c-2.87-.58-5.79-.87-8.68-.87s-5.83.29-8.68.87l-4.01.82,1.22-3.9Zm-29.71,76.63c.65-3.12,1.11-6.3,1.38-9.47.21-2.15.24-3.62.24-4.3v-19.02c.26-21.35,17.84-38.71,39.18-38.71h.73c21.35,0,38.93,17.37,39.19,38.74v18.98c.12,4.62.66,9.25,1.62,13.77l.62,2.91H18.69l.6-2.91Zm56.5,29.79c-1.48,5.4-5.74,9.67-11.14,11.14-1.38.38-2.79.57-4.19.57-7.14,0-13.44-4.82-15.32-11.71l-.83-3.06h32.32l-.83,3.06Zm-68.1-5.98l3.03-3.9c2.9-3.74,5.11-7.92,6.54-12.44l.53-1.69h85.33l.54,1.69c1.43,4.52,3.63,8.71,6.54,12.44l3.03,3.9H7.7Z"/>
  </g>
</svg>