<?xml version="1.0" encoding="UTF-8"?>
<svg id="katman_2" data-name="katman 2" xmlns="http://www.w3.org/2000/svg" viewBox="0 0 109.26 103.48">
  <defs>
    <style>
      .cls-1 {
        stroke-width: 0px;
      }
    </style>
  </defs>
  <g id="katman_1" data-name="katman 1">
    <path class="cls-1" d="m101.31,11.08C95.49,4.05,86.93.01,77.81.01h-.2c-.33-.01-.64-.01-.92-.01-7.4,0-14.52,2.71-20.05,7.64l-1.99,1.78-1.99-1.78C47.12,2.71,40,0,32.6,0c-.29,0-.59,0-.86.01h-.26C22.35.01,13.79,4.05,7.97,11.08,2.89,17.24-2.41,28.47,1.17,46.98c1.31,6.73,4.71,13.78,10.12,20.95,4.45,5.9,10.24,11.89,17.23,17.81,12.45,10.54,24.26,17.12,24.76,17.4.41.23.88.35,1.34.35s.94-.12,1.35-.35c.5-.27,12.28-6.84,24.76-17.41,6.99-5.91,12.78-11.9,17.23-17.8,5.41-7.17,8.81-14.22,10.11-20.94,3.61-18.5-1.69-29.73-6.77-35.89ZM31.52,5.54c.54-.03,1.07-.05,1.58-.05,7.5,0,14.56,3.66,18.89,9.79l.1.15.08.16c.49.9,1.43,1.46,2.46,1.46.46,0,.9-.11,1.33-.34.47-.25.84-.62,1.12-1.11l.07-.12.08-.11c4.32-6.18,11.39-9.87,18.93-9.87.54,0,1.08.02,1.67.06,7.45.01,14.46,3.31,19.23,9.06,4.32,5.25,8.8,14.94,5.62,31.33-1.96,10.14-9.2,20.94-21.51,32.12-9.54,8.67-19.74,15.35-24.97,18.56l-1.56.95-1.56-.94c-4.25-2.56-41.63-25.77-46.46-50.69-3.18-16.4,1.32-26.09,5.64-31.33,4.75-5.73,11.74-9.03,19.24-9.05Z"/>
  </g>
</svg>