<svg xmlns="http://www.w3.org/2000/svg" width="40" height="38" viewBox="0 0 40 38">
  <g id="Group_272" data-name="Group 272" transform="translate(-777.638 -5133.513)">
    <g id="Rectangle_19" data-name="Rectangle 19" transform="translate(777.638 5133.513)" fill="#fff" stroke="#4c7886" stroke-width="1">
      <rect width="40" height="38" stroke="none"/>
      <rect x="0.5" y="0.5" width="39" height="37" fill="none"/>
    </g>
    <path id="Path_4" data-name="Path 4" d="M23.915,15.8a.491.491,0,0,0-.509-.1L.316,24.546a.491.491,0,0,0-.123.849l7.153,5.489c0,.005-.027.011-.027.016v3.93a.517.517,0,0,0,.285.433.541.541,0,0,0,.244.058.513.513,0,0,0,.279-.083l2.639-1.757,6.13,4.686a.492.492,0,0,0,.771-.251L24.053,16.3A.491.491,0,0,0,23.915,15.8ZM8.017,30.05a.493.493,0,0,0-.048.055l-6.48-4.956L21.465,17.5ZM8.3,33.912V31.634l1.592,1.217Zm8.625,3.042-5.719-4.373a.489.489,0,0,0-.23-.176L8.755,30.7l13.832-12.91Z" transform="translate(785.164 5124.884)" fill="#4c7886"/>
  </g>
</svg>
