<?xml version="1.0" encoding="UTF-8"?>
<svg id="katman_2" data-name="katman 2" xmlns="http://www.w3.org/2000/svg" viewBox="0 0 94.37 90.74">
  <defs>
    <style>
      .cls-1 {
        stroke-width: 0px;
      }
    </style>
  </defs>
  <g id="katman_1" data-name="katman 1">
    <g id="uye">
      <path class="cls-1" d="m47.18,0c-11.82,0-21.43,9.62-21.43,21.43s9.62,21.43,21.43,21.43,21.44-9.62,21.44-21.43S59.01,0,47.18,0Zm0,39.43c-9.92,0-17.99-8.07-17.99-17.99S37.26,3.44,47.18,3.44s17.99,8.07,17.99,17.99-8.07,17.99-17.99,17.99Zm34.83,22.03c-9.15-5.36-21.52-8.31-34.83-8.31s-24.89,3.17-34.45,8.91c-8.8,5.29-12.74,11.09-12.74,14.5v14.18h94.37v-14.18c0-4.86-4.74-10.65-12.36-15.11Zm8.92,25.85H3.44v-10.74c0-1.6,2.7-6.52,11.07-11.55,5.23-3.15,16.43-8.43,32.67-8.43,12.71,0,24.45,2.78,33.09,7.84,7.32,4.28,10.66,9.3,10.66,12.14v10.74Z"/>
      <path class="cls-1" d="m82.01,61.46c-9.15-5.36-21.52-8.31-34.83-8.31s-24.89,3.17-34.45,8.91c-8.8,5.29-12.74,11.09-12.74,14.5v14.18h94.37v-14.18c0-4.86-4.74-10.65-12.36-15.11Zm8.92,25.85H3.44v-10.74c0-1.6,2.7-6.52,11.07-11.55,5.23-3.15,16.43-8.43,32.67-8.43,12.71,0,24.45,2.78,33.09,7.84,7.32,4.28,10.66,9.3,10.66,12.14v10.74ZM47.18,0c-11.82,0-21.43,9.62-21.43,21.43s9.62,21.43,21.43,21.43,21.44-9.62,21.44-21.43S59.01,0,47.18,0Zm0,39.43c-9.92,0-17.99-8.07-17.99-17.99S37.26,3.44,47.18,3.44s17.99,8.07,17.99,17.99-8.07,17.99-17.99,17.99Z"/>
    </g>
  </g>
</svg>