<?xml version="1.0" encoding="UTF-8"?>
<svg id="katman_2" data-name="katman 2" xmlns="http://www.w3.org/2000/svg" viewBox="0 0 50 50">
  <defs>
    <style>
      .cls-1 {
        stroke-width: 0px;
      }
    </style>
  </defs>
  <g id="katman_1" data-name="katman 1">
    <path class="cls-1" d="M0,5v40c0,2.76,2.24,5,5,5h40c2.76,0,5-2.24,5-5V5c0-2.76-2.24-5-5-5H5C2.24,0,0,2.24,0,5ZM39.41,22.14c-1.83,0-3.62-.36-5.3-1.07-1.08-.45-2.09-1.04-3-1.75l.02,11.97c-.01,2.69-1.08,5.23-3.01,7.13-1.57,1.55-3.56,2.54-5.71,2.86-.51.08-1.03.12-1.55.12-2.31,0-4.5-.75-6.29-2.13-.34-.26-.66-.55-.97-.85-2.09-2.06-3.17-4.87-2.99-7.81.14-2.25,1.04-4.39,2.54-6.06,1.98-2.22,4.75-3.45,7.71-3.45.53,0,1.04.04,1.55.11v5.43c-.48-.16-1-.24-1.53-.24-2.71,0-4.89,2.21-4.85,4.91.02,1.74.96,3.26,2.36,4.09.66.39,1.41.64,2.22.68.63.04,1.23-.05,1.8-.24,1.93-.64,3.33-2.45,3.33-4.6V8.6h5.36c.01.53.06,1.05.16,1.55.4,2.03,1.55,3.79,3.14,4.99,1.39,1.05,3.12,1.67,4.99,1.67h.02v5.33Z"/>
  </g>
</svg>