<?xml version="1.0" encoding="UTF-8"?>
<svg id="katman_2" data-name="katman 2" xmlns="http://www.w3.org/2000/svg" viewBox="0 0 50 50">
  <defs>
    <style>
      .cls-1 {
        stroke-width: 0px;
      }
    </style>
  </defs>
  <g id="katman_1" data-name="katman 1">
    <path class="cls-1" d="M25.47,14.9c-.14-.37-.37-.54-.72-.54-.33,0-.57.19-.7.54-.14.37-.2.95-.2,1.73v3.42c0,.8.06,1.4.2,1.75.13.35.37.53.72.53.31,0,.56-.18.7-.53.15-.35.21-.95.21-1.75v-3.42c0-.78-.06-1.36-.21-1.73ZM25.47,14.9c-.14-.37-.37-.54-.72-.54-.33,0-.57.19-.7.54-.14.37-.2.95-.2,1.73v3.42c0,.8.06,1.4.2,1.75.13.35.37.53.72.53.31,0,.56-.18.7-.53.15-.35.21-.95.21-1.75v-3.42c0-.78-.06-1.36-.21-1.73ZM25.47,14.9c-.14-.37-.37-.54-.72-.54-.33,0-.57.19-.7.54-.14.37-.2.95-.2,1.73v3.42c0,.8.06,1.4.2,1.75.13.35.37.53.72.53.31,0,.56-.18.7-.53.15-.35.21-.95.21-1.75v-3.42c0-.78-.06-1.36-.21-1.73ZM25.47,14.9c-.14-.37-.37-.54-.72-.54-.33,0-.57.19-.7.54-.14.37-.2.95-.2,1.73v3.42c0,.8.06,1.4.2,1.75.13.35.37.53.72.53.31,0,.56-.18.7-.53.15-.35.21-.95.21-1.75v-3.42c0-.78-.06-1.36-.21-1.73ZM25.47,14.9c-.14-.37-.37-.54-.72-.54-.33,0-.57.19-.7.54-.14.37-.2.95-.2,1.73v3.42c0,.8.06,1.4.2,1.75.13.35.37.53.72.53.31,0,.56-.18.7-.53.15-.35.21-.95.21-1.75v-3.42c0-.78-.06-1.36-.21-1.73ZM29.46,32.84c-.06-.46-.14-.79-.29-.99-.12-.19-.33-.29-.58-.29-.22,0-.45.1-.65.29-.21.2-.36.45-.44.74v6.22c.11.18.25.33.41.43.17.1.35.15.56.15.25,0,.45-.11.62-.29.14-.19.27-.52.33-.97.06-.45.1-1.07.1-1.88h.02v-1.44c0-.84-.02-1.5-.08-1.97ZM29.46,32.84c-.06-.46-.14-.79-.29-.99-.12-.19-.33-.29-.58-.29-.22,0-.45.1-.65.29-.21.2-.36.45-.44.74v6.22c.11.18.25.33.41.43.17.1.35.15.56.15.25,0,.45-.11.62-.29.14-.19.27-.52.33-.97.06-.45.1-1.07.1-1.88h.02v-1.44c0-.84-.02-1.5-.08-1.97ZM25.47,14.9c-.14-.37-.37-.54-.72-.54-.33,0-.57.19-.7.54-.14.37-.2.95-.2,1.73v3.42c0,.8.06,1.4.2,1.75.13.35.37.53.72.53.31,0,.56-.18.7-.53.15-.35.21-.95.21-1.75v-3.42c0-.78-.06-1.36-.21-1.73ZM0,5v40c0,2.76,2.24,5,5,5h40c2.76,0,5-2.24,5-5V5c0-2.76-2.24-5-5-5H5C2.24,0,0,2.24,0,5ZM29.43,12.86h2.47v8.05c0,.5.06.85.16,1.05.11.21.29.31.54.31.21,0,.41-.06.62-.2.2-.13.35-.29.43-.5v-8.71h2.47v10.98h-1.93l-.21-1.34h-.06c-.52,1.01-1.32,1.52-2.37,1.52-.72,0-1.26-.24-1.61-.72-.35-.47-.51-1.21-.51-2.24v-8.2ZM16.33,8.8l.99,4.6c.24,1.13.43,2.1.55,2.9h.07c.08-.58.26-1.52.55-2.88l1.03-4.62h2.45l-2.84,10.16v4.88h-2.43v-4.88h-.02l-2.8-10.16h2.45ZM15.21,41.01h-2.41v-13.02h-2.45v-1.97h7.31v1.95h-2.45v13.04ZM23.61,41.01h-1.94l-.2-1.34h-.06c-.52,1.01-1.32,1.53-2.37,1.53-.72,0-1.26-.25-1.61-.72-.35-.48-.51-1.22-.51-2.25v-8.2h2.47v8.06c0,.49.06.84.16,1.05.11.2.29.31.54.31.2,0,.41-.06.62-.21.2-.12.35-.29.43-.49v-8.72h2.47v10.98ZM22.69,23.51c-.49-.33-.84-.85-1.05-1.57-.2-.7-.31-1.64-.31-2.8v-1.58c0-1.18.13-2.13.35-2.85.25-.72.62-1.23,1.12-1.56.51-.33,1.17-.5,1.99-.5s1.47.17,1.96.5c.5.33.85.86,1.07,1.56.23.7.35,1.65.35,2.85v1.58c0,1.18-.1,2.1-.33,2.82-.22.7-.57,1.24-1.07,1.57-.49.33-1.17.49-2.02.49-.88-.02-1.56-.18-2.06-.51ZM32.01,36.44c0,1.63-.2,2.84-.59,3.6-.4.77-.99,1.16-1.84,1.16-.47,0-.88-.13-1.27-.33-.4-.23-.68-.52-.87-.89h-.06l-.25,1.03h-2.04v-15.59h2.39v5.79h.02c.21-.41.52-.76.91-1.01.39-.27.82-.39,1.28-.39.57,0,1.05.16,1.38.47s.57.8.72,1.5c.14.71.22,1.65.22,2.93v1.73ZM39.65,36.3h-4.14v.59c0,.7.03,1.24.07,1.59.04.35.12.62.26.76.13.17.33.25.62.25.37,0,.62-.15.76-.43.15-.29.21-.77.23-1.45l2.12.13c.02.1.02.22.02.39,0,1.01-.26,1.77-.82,2.26-.56.5-1.34.75-2.35.75-1.21,0-2.06-.4-2.55-1.16-.5-.76-.74-1.93-.74-3.54v-1.92c0-1.64.24-2.84.76-3.6.51-.76,1.38-1.13,2.59-1.13.85,0,1.51.16,1.96.47s.76.8.95,1.44c.18.66.26,1.57.26,2.72v1.88ZM37,31.72c-.13-.14-.33-.22-.58-.22-.27,0-.47.08-.6.22-.12.17-.2.41-.24.77-.04.35-.07.88-.07,1.6v.78h1.82v-.78c0-.7-.02-1.23-.06-1.6-.05-.38-.15-.62-.27-.77ZM29.17,31.85c-.12-.19-.33-.29-.58-.29-.22,0-.45.1-.65.29-.21.2-.36.45-.44.74v6.22c.11.18.25.33.41.43.17.1.35.15.56.15.25,0,.45-.11.62-.29.14-.19.27-.52.33-.97.06-.45.1-1.07.1-1.88h.02v-1.44c0-.84-.02-1.5-.08-1.97-.06-.46-.14-.79-.29-.99ZM24.75,14.36c-.33,0-.57.19-.7.54-.14.37-.2.95-.2,1.73v3.42c0,.8.06,1.4.2,1.75.13.35.37.53.72.53.31,0,.56-.18.7-.53.15-.35.21-.95.21-1.75v-3.42c0-.78-.06-1.36-.21-1.73-.14-.37-.37-.54-.72-.54ZM25.47,14.9c-.14-.37-.37-.54-.72-.54-.33,0-.57.19-.7.54-.14.37-.2.95-.2,1.73v3.42c0,.8.06,1.4.2,1.75.13.35.37.53.72.53.31,0,.56-.18.7-.53.15-.35.21-.95.21-1.75v-3.42c0-.78-.06-1.36-.21-1.73ZM25.47,14.9c-.14-.37-.37-.54-.72-.54-.33,0-.57.19-.7.54-.14.37-.2.95-.2,1.73v3.42c0,.8.06,1.4.2,1.75.13.35.37.53.72.53.31,0,.56-.18.7-.53.15-.35.21-.95.21-1.75v-3.42c0-.78-.06-1.36-.21-1.73ZM25.47,14.9c-.14-.37-.37-.54-.72-.54-.33,0-.57.19-.7.54-.14.37-.2.95-.2,1.73v3.42c0,.8.06,1.4.2,1.75.13.35.37.53.72.53.31,0,.56-.18.7-.53.15-.35.21-.95.21-1.75v-3.42c0-.78-.06-1.36-.21-1.73ZM25.47,14.9c-.14-.37-.37-.54-.72-.54-.33,0-.57.19-.7.54-.14.37-.2.95-.2,1.73v3.42c0,.8.06,1.4.2,1.75.13.35.37.53.72.53.31,0,.56-.18.7-.53.15-.35.21-.95.21-1.75v-3.42c0-.78-.06-1.36-.21-1.73Z"/>
  </g>
</svg>