<?xml version="1.0" encoding="UTF-8"?>
<svg id="katman_2" data-name="katman 2" xmlns="http://www.w3.org/2000/svg" viewBox="0 0 50 50">
  <defs>
    <style>
      .cls-1 {
        stroke-width: 0px;
      }
    </style>
  </defs>
  <g id="katman_1" data-name="katman 1">
    <g>
      <circle class="cls-1" cx="25" cy="25" r="5.41"/>
      <path class="cls-1" d="M37.65,15.43c-.3-.75-.65-1.3-1.22-1.86-.56-.57-1.11-.92-1.86-1.22-.57-.22-1.43-.48-3.01-.55-1.72-.08-2.23-.1-6.56-.1s-4.84.02-6.56.1c-1.58.07-2.44.33-3.01.55-.75.3-1.3.65-1.86,1.22-.57.56-.92,1.11-1.22,1.86-.22.57-.48,1.43-.55,3.01-.08,1.72-.1,2.23-.1,6.56s.02,4.84.1,6.56c.07,1.58.33,2.44.55,3.01.3.75.65,1.3,1.22,1.86.56.57,1.11.92,1.86,1.22.57.22,1.43.48,3.01.55,1.72.08,2.23.1,6.56.1s4.84-.02,6.56-.1c1.58-.07,2.44-.33,3.01-.55.75-.3,1.3-.65,1.86-1.22.57-.56.92-1.11,1.22-1.86.22-.57.48-1.43.55-3.01.08-1.72.1-2.23.1-6.56s-.02-4.84-.1-6.56c-.07-1.58-.33-2.44-.55-3.01ZM25,33.33c-4.6,0-8.33-3.73-8.33-8.33s3.73-8.33,8.33-8.33,8.33,3.73,8.33,8.33-3.73,8.33-8.33,8.33ZM33.66,18.29c-1.08,0-1.95-.87-1.95-1.95s.87-1.95,1.95-1.95,1.95.88,1.95,1.95-.88,1.95-1.95,1.95Z"/>
      <path class="cls-1" d="M0,5v40c0,2.76,2.24,5,5,5h40c2.76,0,5-2.24,5-5V5c0-2.76-2.24-5-5-5H5C2.24,0,0,2.24,0,5ZM41.12,31.69c-.07,1.73-.35,2.9-.75,3.94-.41,1.06-.97,1.97-1.87,2.87-.9.9-1.81,1.46-2.87,1.87-1.04.4-2.21.68-3.94.75-1.73.08-2.28.1-6.69.1s-4.96-.02-6.69-.1c-1.73-.07-2.9-.35-3.94-.75-1.06-.41-1.97-.97-2.87-1.87-.9-.9-1.46-1.81-1.87-2.87-.4-1.04-.68-2.21-.75-3.94-.08-1.73-.1-2.28-.1-6.69s.02-4.96.1-6.69c.07-1.73.35-2.9.75-3.94.41-1.06.97-1.97,1.87-2.87.9-.9,1.81-1.46,2.87-1.87,1.04-.4,2.21-.68,3.94-.75,1.73-.08,2.28-.1,6.69-.1s4.96.02,6.69.1c1.73.07,2.9.35,3.94.75,1.06.41,1.97.97,2.87,1.87.9.9,1.46,1.81,1.87,2.87.4,1.04.68,2.21.75,3.94.08,1.73.1,2.28.1,6.69s-.02,4.96-.1,6.69Z"/>
    </g>
  </g>
</svg>