<?xml version="1.0" encoding="utf-8"?>
<!-- Generator: Adobe Illustrator 27.9.0, SVG Export Plug-In . SVG Version: 6.00 Build 0)  -->
<svg version="1.1" id="katman_1" xmlns="http://www.w3.org/2000/svg" xmlns:xlink="http://www.w3.org/1999/xlink" x="0px" y="0px"
	 viewBox="0 0 1920 1080" style="enable-background:new 0 0 1920 1080;" xml:space="preserve">
<style type="text/css">
	.st0{display:none;}
	.st1{display:inline;}
	.st2{display:inline;fill:#4C7886;}
	.st3{display:none;fill:#FF0000;}
	.st4{display:none;fill:#4C7886;}
	.st5{fill:#4C7886;}
	.st6{display:inline;fill:#FF0000;}
</style>
<g id="VISA" class="st0">
	<path class="st1" d="M484.03,87.73v41.79h74.3V87.73H484.03z M556.47,127.66h-70.58V93.01c-0.17-0.05-0.35-0.09-0.52-0.13
		l0.07-0.44h0.45v-2.85h70.58v21.77l0.52,2.36h-0.52V127.66z"/>
	<path class="st2" d="M548.62,100.03l-0.39-1.84c-0.29,0.78-0.77,2.02-0.77,2.03l-2.32,5.95h4.83L548.62,100.03z M548.62,100.03
		l-0.39-1.84c-0.29,0.78-0.77,2.02-0.77,2.03l-2.32,5.95h4.83L548.62,100.03z M481.18,80.54v45h80v-45H481.18z M496.61,113.69
		l-5.01-17.98c-0.08-0.3-0.27-0.55-0.53-0.72c-1.65-0.85-3.39-1.51-5.18-1.98c-0.17-0.05-0.35-0.09-0.52-0.13l0.07-0.44h9.35
		c1.26,0.05,2.28,0.44,2.63,1.8l2.04,9.76l0.6,2.95l5.67-14.5h6.15l-9.13,21.24H496.61z M516.37,113.55h-5.8l3.63-21.28h5.8
		L516.37,113.55z M526.56,114.02c-2.59-0.05-5.1-0.54-6.5-1.13l0.82-4.76l0.71,0.33c1.92,0.8,3.17,1.12,5.46,1.12
		c1.67,0,3.46-0.65,3.47-2.07c0.01-0.94-0.75-1.59-3.01-2.64c-2.2-1.02-5.11-2.73-5.07-5.78c0.02-4.14,4.07-7.03,9.8-7.03
		c1.77-0.01,3.53,0.3,5.2,0.9l0.14-0.03l-0.82,4.61l-0.53-0.24c-1.38-0.58-2.86-0.86-4.35-0.82c-2.24,0-3.31,0.95-3.31,1.83
		c0,1,1.25,1.66,3.27,2.64c3.31,1.52,4.89,3.36,4.84,5.79C536.63,111.15,532.65,114.02,526.56,114.02z M551.62,113.72
		c0,0-0.53-2.44-0.71-3.19l-7.43-0.01l-1.22,3.2h-6.09l8.61-19.5c0.61-1.39,1.65-1.77,3.05-1.77h4.47l4.17,18.91l0.52,2.36H551.62z
		 M548.23,98.19c-0.29,0.78-0.77,2.02-0.77,2.03l-2.32,5.95h4.83l-1.35-6.14L548.23,98.19z M548.62,100.03l-0.39-1.84
		c-0.29,0.78-0.77,2.02-0.77,2.03l-2.32,5.95h4.83L548.62,100.03z M548.62,100.03l-0.39-1.84c-0.29,0.78-0.77,2.02-0.77,2.03
		l-2.32,5.95h4.83L548.62,100.03z"/>
</g>
<g id="mastercard" class="st0">
	<path id="arka_00000103970145771697436540000018240201525537093310_" class="st1" d="M633.45,81.86c1.11,0.51,2.15,1.13,3.11,1.86
		h14.73v38.07h-70.58V83.72h14.73c0.96-0.73,2-1.35,3.11-1.86h-19.7v41.79h74.3V81.86H633.45z M614.54,83.47L614.54,83.47
		c-0.1,0.08-0.19,0.16-0.28,0.25h3.47c-0.09-0.09-0.18-0.17-0.27-0.25c-0.11-0.12-0.24-0.23-0.37-0.34
		c0.72-0.48,1.48-0.91,2.27-1.27h-6.73c0.8,0.36,1.56,0.79,2.28,1.27C614.77,83.24,614.65,83.35,614.54,83.47z"/>
	<path class="st2" d="M576,74.67v45h80v-45H576z M605.59,114.02c-9.31,0-16.85-7.54-16.85-16.85c0-5.5,2.63-10.38,6.7-13.45
		c0.96-0.73,2-1.35,3.11-1.86c2.14-0.99,4.53-1.54,7.04-1.54c2.51,0,4.9,0.55,7.04,1.54c0.8,0.36,1.56,0.79,2.28,1.27
		c-0.14,0.11-0.26,0.22-0.37,0.34h-0.01c-0.09,0.08-0.18,0.16-0.27,0.25c-3.69,3.33-6,8.13-6,13.46c0,5.46,2.41,10.35,6.22,13.67
		l0.02,0.02c0.13,0.11,0.28,0.22,0.41,0.33C612.29,112.97,609.06,114.02,605.59,114.02z M615.99,110.41
		c-0.21-0.17-0.43-0.35-0.63-0.53l-0.02-0.01c-3.54-3.09-5.78-7.63-5.78-12.7s2.24-9.61,5.8-12.71c0.21-0.19,0.42-0.35,0.64-0.53
		c0.22,0.18,0.43,0.35,0.63,0.53l0.02,0.01c3.54,3.09,5.78,7.63,5.78,12.7s-2.24,9.61-5.8,12.71
		C616.42,110.06,616.21,110.24,615.99,110.41z M626.41,114.02c-3.48,0-6.71-1.05-9.33-2.82c0.14-0.11,0.28-0.22,0.41-0.33l0.02-0.02
		c3.82-3.32,6.22-8.21,6.22-13.67c0-2.73-0.61-5.32-1.69-7.65c-1.04-2.21-2.51-4.18-4.31-5.81c-0.09-0.09-0.18-0.17-0.27-0.25
		c-0.11-0.12-0.24-0.23-0.37-0.34c0.72-0.48,1.48-0.91,2.27-1.27c2.13-0.99,4.51-1.54,7.02-1.54h0.03c2.51,0,4.9,0.55,7.04,1.54
		c1.11,0.51,2.15,1.13,3.11,1.86c4.07,3.07,6.7,7.95,6.7,13.45C643.26,106.48,635.72,114.02,626.41,114.02z"/>
</g>
<g id="troy" class="st0">
	<path id="arka_00000071532789124034484760000016029668100542094726_" class="st1" d="M673.67,79.87v41.79h74.3V79.87H673.67z
		 M746.11,119.8h-70.58V81.72h70.58V119.8z"/>
	<path class="st2" d="M747.42,72.68h-73.2h-3.4v45h3.4h73.2h3.4v-45H747.42z M689.56,100.38c0.66,0.04,0.8,0.08,0.8,0.18
		c-0.01,0.26-0.82,4.73-0.87,4.79c-0.26,0.06-0.53,0.09-0.81,0.09c-0.09,0-0.18,0-0.26-0.01c-0.48,0-1.04-0.02-1.45-0.06
		c-3.13-0.33-5.06-1.75-5.44-4c-0.02-0.3-0.03-0.61-0.03-0.92c0-1.51,0.21-2.97,0.57-4.25l0.38-2.19c0.1-0.58,0.18-0.96,0.18-1.02
		l0.02-0.19h-1.24c-0.62,0-1.26-0.01-1.28-0.02c-0.03-0.02,0.13-1.03,0.34-2.25l0.29-1.57c0.06-0.39,0.1-0.65,0.12-0.66
		c0.02-0.02,0.92-0.02,1.27-0.02l1.27,0.01l0.05-0.23c0.02-0.13,0.19-1.08,0.37-2.12c0.19-1.05,0.36-2.01,0.38-2.14l0.05-0.23
		l1.98,0.02c1.91,0.04,1.95,0.04,2.39,0.26c0.89,0.43,0.98,0.96,0.58,3.17l-0.23,1.26h1.76c1.35,0,1.76,0.02,1.76,0.1
		c0,0.2-0.74,4.26-0.79,4.35c-0.34,0.04-0.67,0.07-1.02,0.07c-0.13,0-0.26-0.01-0.37-0.01h-1.26c-0.83,0-0.87,0.03-0.9,0.15
		c-0.18,0.8-0.94,5.4-0.94,5.73C687.23,99.77,687.95,100.29,689.56,100.38z M705.16,93.6c-0.03,0.16-0.09,0.17-1.11,0.17h-0.02
		c-0.11-0.01-0.22-0.01-0.33-0.01c-0.49,0-0.97,0.07-1.38,0.2l-0.04,0.01c-1.73,0.54-3.09,1.94-3.58,3.74
		c-0.09,0.31-0.42,1.97-0.71,3.63c-0.29,1.69-0.57,3.27-0.63,3.5l-0.08,0.43h-2.8c-0.28,0.01-0.56,0.01-0.84,0.01
		c-0.72,0-1.43-0.03-2.04-0.08c0-0.08,2.86-16.32,2.94-16.7l0.05-0.23l1.89,0.03h0.36c0.66,0,1.3,0.05,1.86,0.15
		c0.98,0.37,1.17,1.01,0.83,2.84v-0.05c-0.06,0.29-0.1,0.58-0.13,0.91c0.08-0.09,0.15-0.19,0.19-0.3l0.03-0.04
		c0.43-0.7,0.96-1.33,1.56-1.89c0.91-0.82,2.03-1.41,3.32-1.68c0.3-0.05,0.62-0.08,0.94-0.08h0.19c0.16,0,0.32,0.02,0.45,0.07
		C706.08,88.39,705.26,93.2,705.16,93.6z M714.02,93.42c-1.06,0.24-1.92,0.95-2.4,1.92c-0.18,0.34-0.29,0.73-0.29,1.14
		c0,0.11,0.01,0.21,0.02,0.3c-0.01,0.1-0.02,0.21-0.02,0.31c0,0.44,0.12,0.85,0.33,1.18l0.01,0.03c0.3,0.59,0.75,1.1,1.31,1.49
		l0.22,0.17l-0.46,2.51c-0.22,1.25-0.46,2.52-0.51,2.56l-0.05-0.01c-0.7-0.21-1.37-0.52-1.94-0.89l-0.04-0.02
		c-1.95-1.21-3.38-3.18-3.89-5.55c-0.09-0.5-0.14-1.01-0.14-1.53c0-0.1,0-0.21,0.01-0.29c-0.01-0.1-0.01-0.19-0.01-0.3
		c0-1.28,0.33-2.49,0.9-3.5l0.02-0.05c1.15-2.3,3.31-4.01,5.95-4.55h-0.05c0.47-0.08,0.95-0.13,1.43-0.13h0.3
		c0.37,0,0.48,0.02,0.51,0.14c-0.04,0.16-0.87,4.85-0.87,4.96c0,0.04-0.15,0.09-0.31,0.11H714.02z M714.64,105.43
		c-0.32,0-0.37-0.02-0.37-0.04c0-0.06,0.8-4.6,0.87-4.95c0.03-0.13,0.14-0.21,0.42-0.27l0.03-0.01c1.51-0.39,2.62-1.76,2.62-3.4
		c0-0.09,0-0.19-0.01-0.27v-0.02c-0.12-1.06-0.7-1.98-1.55-2.57c-0.12-0.06-0.22-0.14-0.31-0.24c0-0.07,0.81-4.69,0.87-4.95
		c0.02-0.09,0.04-0.15,0.12-0.15l0.02,0.01c0.27,0.06,0.53,0.15,0.75,0.27l0.06,0.02c2.5,1.08,4.39,3.31,5.02,6.08l0.01,0.06
		c0.1,0.61,0.16,1.25,0.16,1.89c0,0.49-0.04,0.97-0.09,1.38l-0.01,0.05c-0.72,3.89-4.03,6.86-8.09,7.09
		C714.98,105.43,714.79,105.43,714.64,105.43z M732.57,108.71l-0.02,0.03c-1.23,1.81-3.06,3.18-5.27,3.83l-0.02,0.01
		c-0.91,0.21-1.86,0.31-2.83,0.31c-0.41,0-0.82-0.02-1.18-0.05c-0.67,0.01-1.23,0.01-1.66,0.01c-0.17,0.01-0.34,0.02-0.52,0.02
		c-0.36,0-0.71-0.04-1.02-0.1c0-0.05,0.15-0.95,0.34-2.09c0.36-2.16,0.54-2.7,1.01-3.04c0.25-0.18,0.33-0.19,2.32-0.23l2.06-0.04
		l0.5-0.25c0.61-0.34,1.11-0.86,1.42-1.51c0.37-0.78,0.37-0.78-1.94-8.86l-0.13-0.47c-1.08-3.77-2.21-7.81-2.21-7.94
		c0.41-0.04,0.83-0.06,1.25-0.06c0.17,0,0.34,0.01,0.48,0.01h1.15c2.73,0.03,2.88,0.03,3.19,0.19l0.01,0.01
		c0.33,0.15,0.59,0.42,0.73,0.77c0.07,0.16,0.44,2.34,0.83,4.86c0.33,2.11,0.74,4.64,0.78,4.74l-0.1,0.2c0.81-1.47,1.53-3,2.25-4.84
		c1.22-2.81,2.18-4.9,2.32-5.07c0.22-0.23,0.49-0.42,0.8-0.57l0.55-0.27l2.9-0.02h1.23c0.17-0.01,0.36-0.02,0.53-0.02
		c0.41,0,0.81,0.03,1.15,0.08C743.47,88.52,732.98,108.11,732.57,108.71z"/>
</g>
<rect x="920" y="517.5" class="st3" width="80" height="45"/>
<path id="arka" class="st0" d="M922.85,524.69v41.79h74.3v-41.79H922.85z M995.29,564.62h-70.58v-38.08h70.58V564.62z"/>
<rect x="902.93" y="437.77" class="st4" width="68.56" height="68.56"/>
<g id="_x33_D_SECURE">
	<path d="M931.21,524.22c0.53,0.58,0.99,1.21,1.37,1.9h82.5v38.93H904.92v-38.93h10.49c0.38-0.69,0.83-1.32,1.36-1.9h-13.75v42.73
		h113.96v-42.73H931.21z M923.99,524.48c-1.62,0-3.11,0.62-4.23,1.64h8.46C927.1,525.1,925.62,524.48,923.99,524.48z"/>
	<path class="st5" d="M926.87,545.75c0,0.94-0.45,1.77-1.15,2.3v2.3c0,0.95-0.77,1.72-1.73,1.72c-0.95,0-1.72-0.77-1.72-1.72v-2.3
		c-0.7-0.53-1.15-1.36-1.15-2.3c0-1.59,1.29-2.88,2.87-2.88C925.58,542.87,926.87,544.16,926.87,545.75z"/>
	<path class="st5" d="M930.32,530.8v5.18h-12.65v-5.18c0-1.86,0.81-3.53,2.09-4.68c1.12-1.02,2.61-1.64,4.23-1.64
		c1.63,0,3.11,0.62,4.23,1.64C929.51,527.26,930.32,528.94,930.32,530.8z"/>
	<path class="st5" d="M956.84,541.55c-0.65,0-1.2,0.55-1.2,1.2c0,0.65,0.54,1.19,1.19,1.19c0.66,0,1.2-0.55,1.2-1.19
		C958.03,542.1,957.49,541.55,956.84,541.55z M965.82,539.03h-0.67v1.55h0.64c0.38,0,0.75-0.33,0.75-0.79
		C966.54,539.35,966.19,539.03,965.82,539.03z M966.4,541.97h-1.25v1.87h1.26c0.51,0,1.06-0.35,1.06-0.96
		C967.47,542.42,967.16,541.97,966.4,541.97z M966.4,541.97h-1.25v1.87h1.26c0.51,0,1.06-0.35,1.06-0.96
		C967.47,542.42,967.16,541.97,966.4,541.97z M965.82,539.03h-0.67v1.55h0.64c0.38,0,0.75-0.33,0.75-0.79
		C966.54,539.35,966.19,539.03,965.82,539.03z M956.84,541.55c-0.65,0-1.2,0.55-1.2,1.2c0,0.65,0.54,1.19,1.19,1.19
		c0.66,0,1.2-0.55,1.2-1.19C958.03,542.1,957.49,541.55,956.84,541.55z M956.84,541.55c-0.65,0-1.2,0.55-1.2,1.2
		c0,0.65,0.54,1.19,1.19,1.19c0.66,0,1.2-0.55,1.2-1.19C958.03,542.1,957.49,541.55,956.84,541.55z M965.82,539.03h-0.67v1.55h0.64
		c0.38,0,0.75-0.33,0.75-0.79C966.54,539.35,966.19,539.03,965.82,539.03z M966.4,541.97h-1.25v1.87h1.26
		c0.51,0,1.06-0.35,1.06-0.96C967.47,542.42,967.16,541.97,966.4,541.97z M966.4,541.97h-1.25v1.87h1.26c0.51,0,1.06-0.35,1.06-0.96
		C967.47,542.42,967.16,541.97,966.4,541.97z M965.82,539.03h-0.67v1.55h0.64c0.38,0,0.75-0.33,0.75-0.79
		C966.54,539.35,966.19,539.03,965.82,539.03z M956.84,541.55c-0.65,0-1.2,0.55-1.2,1.2c0,0.65,0.54,1.19,1.19,1.19
		c0.66,0,1.2-0.55,1.2-1.19C958.03,542.1,957.49,541.55,956.84,541.55z M956.84,541.55c-0.65,0-1.2,0.55-1.2,1.2
		c0,0.65,0.54,1.19,1.19,1.19c0.66,0,1.2-0.55,1.2-1.19C958.03,542.1,957.49,541.55,956.84,541.55z M965.82,539.03h-0.67v1.55h0.64
		c0.38,0,0.75-0.33,0.75-0.79C966.54,539.35,966.19,539.03,965.82,539.03z M966.4,541.97h-1.25v1.87h1.26
		c0.51,0,1.06-0.35,1.06-0.96C967.47,542.42,967.16,541.97,966.4,541.97z M966.4,541.97h-1.25v1.87h1.26c0.51,0,1.06-0.35,1.06-0.96
		C967.47,542.42,967.16,541.97,966.4,541.97z M965.82,539.03h-0.67v1.55h0.64c0.38,0,0.75-0.33,0.75-0.79
		C966.54,539.35,966.19,539.03,965.82,539.03z M956.84,541.55c-0.65,0-1.2,0.55-1.2,1.2c0,0.65,0.54,1.19,1.19,1.19
		c0.66,0,1.2-0.55,1.2-1.19C958.03,542.1,957.49,541.55,956.84,541.55z M956.84,541.55c-0.65,0-1.2,0.55-1.2,1.2
		c0,0.65,0.54,1.19,1.19,1.19c0.66,0,1.2-0.55,1.2-1.19C958.03,542.1,957.49,541.55,956.84,541.55z M965.82,539.03h-0.67v1.55h0.64
		c0.38,0,0.75-0.33,0.75-0.79C966.54,539.35,966.19,539.03,965.82,539.03z M966.4,541.97h-1.25v1.87h1.26
		c0.51,0,1.06-0.35,1.06-0.96C967.47,542.42,967.16,541.97,966.4,541.97z M1004.33,542.05c-0.28,0.24-0.51,0.54-0.51,0.97
		c0,0.61,0.36,0.99,1.12,0.99c0.39,0,0.72-0.1,1-0.29C1005.35,543.21,1004.8,542.64,1004.33,542.05z M1004.33,542.05
		c-0.28,0.24-0.51,0.54-0.51,0.97c0,0.61,0.36,0.99,1.12,0.99c0.39,0,0.72-0.1,1-0.29C1005.35,543.21,1004.8,542.64,1004.33,542.05z
		 M966.4,541.97h-1.25v1.87h1.26c0.51,0,1.06-0.35,1.06-0.96C967.47,542.42,967.16,541.97,966.4,541.97z M965.82,539.03h-0.67v1.55
		h0.64c0.38,0,0.75-0.33,0.75-0.79C966.54,539.35,966.19,539.03,965.82,539.03z M956.84,541.55c-0.65,0-1.2,0.55-1.2,1.2
		c0,0.65,0.54,1.19,1.19,1.19c0.66,0,1.2-0.55,1.2-1.19C958.03,542.1,957.49,541.55,956.84,541.55z M956.84,541.55
		c-0.65,0-1.2,0.55-1.2,1.2c0,0.65,0.54,1.19,1.19,1.19c0.66,0,1.2-0.55,1.2-1.19C958.03,542.1,957.49,541.55,956.84,541.55z
		 M965.82,539.03h-0.67v1.55h0.64c0.38,0,0.75-0.33,0.75-0.79C966.54,539.35,966.19,539.03,965.82,539.03z M966.4,541.97h-1.25v1.87
		h1.26c0.51,0,1.06-0.35,1.06-0.96C967.47,542.42,967.16,541.97,966.4,541.97z M987.33,551.1h-1.02v1.98l1.02,0.01
		c0.54,0,1.02-0.43,1.02-1C988.35,551.53,987.87,551.1,987.33,551.1z M1004.33,542.05c-0.28,0.24-0.51,0.54-0.51,0.97
		c0,0.61,0.36,0.99,1.12,0.99c0.39,0,0.72-0.1,1-0.29C1005.35,543.21,1004.8,542.64,1004.33,542.05z M1004.33,542.05
		c-0.28,0.24-0.51,0.54-0.51,0.97c0,0.61,0.36,0.99,1.12,0.99c0.39,0,0.72-0.1,1-0.29C1005.35,543.21,1004.8,542.64,1004.33,542.05z
		 M987.33,551.1h-1.02v1.98l1.02,0.01c0.54,0,1.02-0.43,1.02-1C988.35,551.53,987.87,551.1,987.33,551.1z M966.4,541.97h-1.25v1.87
		h1.26c0.51,0,1.06-0.35,1.06-0.96C967.47,542.42,967.16,541.97,966.4,541.97z M965.82,539.03h-0.67v1.55h0.64
		c0.38,0,0.75-0.33,0.75-0.79C966.54,539.35,966.19,539.03,965.82,539.03z M956.84,541.55c-0.65,0-1.2,0.55-1.2,1.2
		c0,0.65,0.54,1.19,1.19,1.19c0.66,0,1.2-0.55,1.2-1.19C958.03,542.1,957.49,541.55,956.84,541.55z M956.84,541.55
		c-0.65,0-1.2,0.55-1.2,1.2c0,0.65,0.54,1.19,1.19,1.19c0.66,0,1.2-0.55,1.2-1.19C958.03,542.1,957.49,541.55,956.84,541.55z
		 M965.82,539.03h-0.67v1.55h0.64c0.38,0,0.75-0.33,0.75-0.79C966.54,539.35,966.19,539.03,965.82,539.03z M966.4,541.97h-1.25v1.87
		h1.26c0.51,0,1.06-0.35,1.06-0.96C967.47,542.42,967.16,541.97,966.4,541.97z M987.33,551.1h-1.02v1.98l1.02,0.01
		c0.54,0,1.02-0.43,1.02-1C988.35,551.53,987.87,551.1,987.33,551.1z M1004.33,542.05c-0.28,0.24-0.51,0.54-0.51,0.97
		c0,0.61,0.36,0.99,1.12,0.99c0.39,0,0.72-0.1,1-0.29C1005.35,543.21,1004.8,542.64,1004.33,542.05z M1004.33,542.05
		c-0.28,0.24-0.51,0.54-0.51,0.97c0,0.61,0.36,0.99,1.12,0.99c0.39,0,0.72-0.1,1-0.29C1005.35,543.21,1004.8,542.64,1004.33,542.05z
		 M987.33,551.1h-1.02v1.98l1.02,0.01c0.54,0,1.02-0.43,1.02-1C988.35,551.53,987.87,551.1,987.33,551.1z M966.4,541.97h-1.25v1.87
		h1.26c0.51,0,1.06-0.35,1.06-0.96C967.47,542.42,967.16,541.97,966.4,541.97z M965.82,539.03h-0.67v1.55h0.64
		c0.38,0,0.75-0.33,0.75-0.79C966.54,539.35,966.19,539.03,965.82,539.03z M956.84,541.55c-0.65,0-1.2,0.55-1.2,1.2
		c0,0.65,0.54,1.19,1.19,1.19c0.66,0,1.2-0.55,1.2-1.19C958.03,542.1,957.49,541.55,956.84,541.55z M956.84,541.55
		c-0.65,0-1.2,0.55-1.2,1.2c0,0.65,0.54,1.19,1.19,1.19c0.66,0,1.2-0.55,1.2-1.19C958.03,542.1,957.49,541.55,956.84,541.55z
		 M965.82,539.03h-0.67v1.55h0.64c0.38,0,0.75-0.33,0.75-0.79C966.54,539.35,966.19,539.03,965.82,539.03z M966.4,541.97h-1.25v1.87
		h1.26c0.51,0,1.06-0.35,1.06-0.96C967.47,542.42,967.16,541.97,966.4,541.97z M987.33,551.1h-1.02v1.98l1.02,0.01
		c0.54,0,1.02-0.43,1.02-1C988.35,551.53,987.87,551.1,987.33,551.1z M1004.33,542.05c-0.28,0.24-0.51,0.54-0.51,0.97
		c0,0.61,0.36,0.99,1.12,0.99c0.39,0,0.72-0.1,1-0.29C1005.35,543.21,1004.8,542.64,1004.33,542.05z M1004.33,542.05
		c-0.28,0.24-0.51,0.54-0.51,0.97c0,0.61,0.36,0.99,1.12,0.99c0.39,0,0.72-0.1,1-0.29C1005.35,543.21,1004.8,542.64,1004.33,542.05z
		 M987.33,551.1h-1.02v1.98l1.02,0.01c0.54,0,1.02-0.43,1.02-1C988.35,551.53,987.87,551.1,987.33,551.1z M966.4,541.97h-1.25v1.87
		h1.26c0.51,0,1.06-0.35,1.06-0.96C967.47,542.42,967.16,541.97,966.4,541.97z M965.82,539.03h-0.67v1.55h0.64
		c0.38,0,0.75-0.33,0.75-0.79C966.54,539.35,966.19,539.03,965.82,539.03z M956.84,541.55c-0.65,0-1.2,0.55-1.2,1.2
		c0,0.65,0.54,1.19,1.19,1.19c0.66,0,1.2-0.55,1.2-1.19C958.03,542.1,957.49,541.55,956.84,541.55z M949.79,551.1h-0.71v4.74h0.73
		c1.55,0,2.49-0.89,2.49-2.36C952.3,552,951.35,551.1,949.79,551.1z M956.84,541.55c-0.65,0-1.2,0.55-1.2,1.2
		c0,0.65,0.54,1.19,1.19,1.19c0.66,0,1.2-0.55,1.2-1.19C958.03,542.1,957.49,541.55,956.84,541.55z M965.82,539.03h-0.67v1.55h0.64
		c0.38,0,0.75-0.33,0.75-0.79C966.54,539.35,966.19,539.03,965.82,539.03z M966.4,541.97h-1.25v1.87h1.26
		c0.51,0,1.06-0.35,1.06-0.96C967.47,542.42,967.16,541.97,966.4,541.97z M987.33,551.1h-1.02v1.98l1.02,0.01
		c0.54,0,1.02-0.43,1.02-1C988.35,551.53,987.87,551.1,987.33,551.1z M1004.33,542.05c-0.28,0.24-0.51,0.54-0.51,0.97
		c0,0.61,0.36,0.99,1.12,0.99c0.39,0,0.72-0.1,1-0.29C1005.35,543.21,1004.8,542.64,1004.33,542.05z M1004.33,542.05
		c-0.28,0.24-0.51,0.54-0.51,0.97c0,0.61,0.36,0.99,1.12,0.99c0.39,0,0.72-0.1,1-0.29C1005.35,543.21,1004.8,542.64,1004.33,542.05z
		 M987.33,551.1h-1.02v1.98l1.02,0.01c0.54,0,1.02-0.43,1.02-1C988.35,551.53,987.87,551.1,987.33,551.1z M966.4,541.97h-1.25v1.87
		h1.26c0.51,0,1.06-0.35,1.06-0.96C967.47,542.42,967.16,541.97,966.4,541.97z M966.54,539.79c0-0.44-0.35-0.76-0.72-0.76h-0.67
		v1.55h0.64C966.17,540.58,966.54,540.25,966.54,539.79z M956.84,541.55c-0.65,0-1.2,0.55-1.2,1.2c0,0.65,0.54,1.19,1.19,1.19
		c0.66,0,1.2-0.55,1.2-1.19C958.03,542.1,957.49,541.55,956.84,541.55z M949.79,551.1h-0.71v4.74h0.73c1.55,0,2.49-0.89,2.49-2.36
		C952.3,552,951.35,551.1,949.79,551.1z M900,517.5v45h120v-45H900z M937.21,557.24c0,0.96-0.77,1.73-1.72,1.73H912.5
		c-0.96,0-1.73-0.77-1.73-1.73V537.7c0-0.95,0.77-1.72,1.73-1.72h1.72v-5.18c0-1.7,0.43-3.29,1.19-4.68
		c0.38-0.69,0.83-1.32,1.36-1.9c1.79-1.96,4.36-3.19,7.22-3.19s5.44,1.23,7.22,3.19c0.53,0.58,0.99,1.21,1.37,1.9
		c0.76,1.39,1.19,2.98,1.19,4.68v5.18h1.72c0.95,0,1.72,0.77,1.72,1.72V557.24z M989.74,541.78c-0.89-0.44-1.86-0.93-1.86-2.19
		c0-1.36,1.16-2.27,2.61-2.27c1.07,0,1.96,0.45,2.32,1.4l-1.17,0.82c-0.23-0.47-0.69-0.66-1.13-0.66c-0.59,0-1.03,0.34-1.03,0.75
		c0,0.47,0.59,0.63,1.5,1.06c1.31,0.62,2.13,1.28,2.13,2.5c0,1.44-1.17,2.35-2.86,2.35c-1.3,0-2.25-0.53-2.78-1.51l1.27-0.9
		c0.34,0.56,0.85,0.82,1.53,0.82c0.74,0,1.24-0.31,1.24-0.73C991.51,542.64,990.57,542.19,989.74,541.78z M972.39,539.06v-1.57h5.47
		v1.57h-1.94v6.33h-1.59v-6.33H972.39z M971.49,537.49v7.9h-1.58v-7.9H971.49z M950.4,541.41c-0.55,0-1.16,0.21-1.52,0.64
		l-0.88-0.46l0.6-4.1h4.07v1.57h-2.89l-0.17,1.09c0.27-0.2,0.6-0.27,1.02-0.27c1.69,0,2.74,1.18,2.74,2.73c0,1.73-1.3,2.87-2.9,2.87
		c-1.2,0-2.28-0.65-2.73-1.67l1.58-0.5c0.24,0.37,0.64,0.59,1.08,0.59c0.56,0,1.32-0.35,1.32-1.29
		C951.72,541.87,951.22,541.41,950.4,541.41z M943.82,557.52c-1.29,0-2.44-0.89-2.71-1.95l1.56-0.4c0.12,0.46,0.57,0.78,1.11,0.78
		c0.66,0,1.09-0.48,1.09-1.06c0-0.84-0.93-1.43-2.06-1.43l0.24-0.9c0.81,0,1.42-0.42,1.42-1.01c0-0.42-0.32-0.72-0.71-0.72
		c-0.33,0-0.58,0.21-0.66,0.56l-1.62-0.34c0.22-0.95,1.11-1.77,2.29-1.77c1.23,0,2.3,0.89,2.3,2.15c0,0.7-0.35,1.29-0.87,1.54
		c0.67,0.32,1.27,1.03,1.27,2.04C946.47,556.4,945.31,557.52,943.82,557.52z M947.05,545.39h-5.94v-0.29
		c2.91-2.64,4.24-4.03,4.24-4.88c0-0.75-0.61-1.28-1.11-1.28c-0.72,0-1.35,0.61-1.35,1.37l-1.44-0.37c0-1.43,1.25-2.59,2.74-2.59
		c1.52,0,2.75,1.33,2.75,2.79c0,1.29-1.32,2.85-2.45,3.66h2.56V545.39z M949.8,557.42h-2.3v-7.89h2.3c2.55-0.01,4.11,1.49,4.11,3.95
		C953.91,555.93,952.35,557.42,949.8,557.42z M954.05,542.87c0-0.77,0.25-1.15,2.54-5.38l1.81,0.01l-1.65,2.92
		c0.18-0.04,0.36-0.07,0.53-0.07c1.2,0,2.33,1.03,2.33,2.45c0,1.48-1.23,2.71-2.8,2.71C955.26,545.51,954.05,544.51,954.05,542.87z
		 M960.24,557.58c-1.3,0-2.25-0.54-2.78-1.52l1.27-0.89c0.35,0.56,0.85,0.81,1.53,0.81c0.75,0,1.25-0.3,1.25-0.72
		c0-0.58-0.95-1.04-1.78-1.45c-0.88-0.44-1.86-0.92-1.86-2.18c0-1.37,1.16-2.27,2.61-2.27c1.07,0,1.97,0.44,2.32,1.4l-1.17,0.82
		c-0.23-0.47-0.69-0.66-1.13-0.66c-0.59,0-1.03,0.34-1.03,0.75c0,0.47,0.6,0.63,1.5,1.05c1.31,0.62,2.13,1.29,2.13,2.5
		C963.1,556.66,961.93,557.58,960.24,557.58z M968.82,551.09h-3.17v1.54h2.72v1.58h-2.72v1.63h3.17v1.58h-4.76v-7.89h4.76V551.09z
		 M966.55,545.39h-2.98v-7.9h2.16c1.4,0,2.29,1.03,2.29,2.09c0,0.84-0.55,1.36-0.75,1.36c0.76,0,1.75,0.78,1.75,2.05
		C969.02,544.16,968.18,545.39,966.55,545.39z M973.72,555.98c0.73,0,1.36-0.39,1.88-0.9l0.91,1.28c-0.69,0.69-1.54,1.21-2.74,1.21
		c-2.28,0-4.13-1.87-4.13-4.09c0-2.23,1.88-4.12,4.1-4.12c1.03,0.02,1.94,0.43,2.77,1.22l-0.92,1.25c-0.53-0.53-1.18-0.85-1.86-0.85
		c-1.27,0-2.48,1.13-2.48,2.51C971.25,554.89,972.5,555.98,973.72,555.98z M983.43,554.5c0,1.79-1.37,3.09-3.05,3.09
		s-3.05-1.3-3.05-3.09v-4.97h1.6v4.97c0,0.86,0.68,1.49,1.44,1.49c0.77,0,1.46-0.64,1.46-1.49v-4.97h1.6V554.5z M981.28,544.03
		l1.27-0.9c0.34,0.56,0.85,0.82,1.53,0.82c0.74,0,1.24-0.31,1.24-0.73c0-0.58-0.94-1.03-1.77-1.44c-0.89-0.44-1.86-0.93-1.86-2.19
		c0-1.36,1.16-2.27,2.61-2.27c1.07,0,1.97,0.45,2.32,1.4l-1.17,0.82c-0.23-0.47-0.69-0.66-1.13-0.66c-0.59,0-1.03,0.34-1.03,0.75
		c0,0.47,0.59,0.63,1.5,1.06c1.31,0.62,2.13,1.28,2.13,2.5c0,1.44-1.17,2.35-2.86,2.35C982.76,545.54,981.81,545.01,981.28,544.03z
		 M988.83,557.42l-2.51-3.73v3.73h-1.59v-7.89h2.57c1.48,0,2.69,1.13,2.69,2.55c0,1.02-0.62,1.9-1.46,2.2l2.24,3.14H988.83z
		 M996.28,551.09h-3.17v1.54h2.72v1.58h-2.72v1.63h3.17v1.58h-4.76v-7.89h4.76V551.09z M998.83,545.39h-4.76v-7.9h1.59v6.32h3.17
		V545.39z M1009.22,545.46c-0.55,0-1.26-0.3-2-0.77c-0.57,0.57-1.33,0.87-2.2,0.87c-1.85,0-2.7-1.37-2.7-2.43
		c0-0.91,0.63-1.83,1.23-2.23c-0.32-0.56-0.5-1.09-0.5-1.54c0-1.02,0.99-2.1,2.21-2.1c1.09,0,1.96,0.87,2.16,1.77l-1.52,0.31
		c-0.08-0.34-0.4-0.62-0.69-0.62c-0.3,0-0.6,0.27-0.6,0.7c0,0.78,1,2.11,2.12,3.13c0.11-0.34,0.17-0.71,0.19-1.11l1.48-0.02
		c-0.02,0.81-0.17,1.51-0.41,2.1c0.47,0.29,0.91,0.47,1.24,0.47L1009.22,545.46z M1004.33,542.05c-0.28,0.24-0.51,0.54-0.51,0.97
		c0,0.61,0.36,0.99,1.12,0.99c0.39,0,0.72-0.1,1-0.29C1005.35,543.21,1004.8,542.64,1004.33,542.05z M987.33,551.1h-1.02v1.98
		l1.02,0.01c0.54,0,1.02-0.43,1.02-1C988.35,551.53,987.87,551.1,987.33,551.1z M966.4,541.97h-1.25v1.87h1.26
		c0.51,0,1.06-0.35,1.06-0.96C967.47,542.42,967.16,541.97,966.4,541.97z M966.54,539.79c0-0.44-0.35-0.76-0.72-0.76h-0.67v1.55
		h0.64C966.17,540.58,966.54,540.25,966.54,539.79z M956.84,541.55c-0.65,0-1.2,0.55-1.2,1.2c0,0.65,0.54,1.19,1.19,1.19
		c0.66,0,1.2-0.55,1.2-1.19C958.03,542.1,957.49,541.55,956.84,541.55z M949.79,551.1h-0.71v4.74h0.73c1.55,0,2.49-0.89,2.49-2.36
		C952.3,552,951.35,551.1,949.79,551.1z M949.79,551.1h-0.71v4.74h0.73c1.55,0,2.49-0.89,2.49-2.36
		C952.3,552,951.35,551.1,949.79,551.1z M956.84,541.55c-0.65,0-1.2,0.55-1.2,1.2c0,0.65,0.54,1.19,1.19,1.19
		c0.66,0,1.2-0.55,1.2-1.19C958.03,542.1,957.49,541.55,956.84,541.55z M965.82,539.03h-0.67v1.55h0.64c0.38,0,0.75-0.33,0.75-0.79
		C966.54,539.35,966.19,539.03,965.82,539.03z M966.4,541.97h-1.25v1.87h1.26c0.51,0,1.06-0.35,1.06-0.96
		C967.47,542.42,967.16,541.97,966.4,541.97z M987.33,551.1h-1.02v1.98l1.02,0.01c0.54,0,1.02-0.43,1.02-1
		C988.35,551.53,987.87,551.1,987.33,551.1z M1004.33,542.05c-0.28,0.24-0.51,0.54-0.51,0.97c0,0.61,0.36,0.99,1.12,0.99
		c0.39,0,0.72-0.1,1-0.29C1005.35,543.21,1004.8,542.64,1004.33,542.05z M1004.33,542.05c-0.28,0.24-0.51,0.54-0.51,0.97
		c0,0.61,0.36,0.99,1.12,0.99c0.39,0,0.72-0.1,1-0.29C1005.35,543.21,1004.8,542.64,1004.33,542.05z M987.33,551.1h-1.02v1.98
		l1.02,0.01c0.54,0,1.02-0.43,1.02-1C988.35,551.53,987.87,551.1,987.33,551.1z M966.4,541.97h-1.25v1.87h1.26
		c0.51,0,1.06-0.35,1.06-0.96C967.47,542.42,967.16,541.97,966.4,541.97z M965.82,539.03h-0.67v1.55h0.64
		c0.38,0,0.75-0.33,0.75-0.79C966.54,539.35,966.19,539.03,965.82,539.03z M956.84,541.55c-0.65,0-1.2,0.55-1.2,1.2
		c0,0.65,0.54,1.19,1.19,1.19c0.66,0,1.2-0.55,1.2-1.19C958.03,542.1,957.49,541.55,956.84,541.55z M949.79,551.1h-0.71v4.74h0.73
		c1.55,0,2.49-0.89,2.49-2.36C952.3,552,951.35,551.1,949.79,551.1z M956.84,541.55c-0.65,0-1.2,0.55-1.2,1.2
		c0,0.65,0.54,1.19,1.19,1.19c0.66,0,1.2-0.55,1.2-1.19C958.03,542.1,957.49,541.55,956.84,541.55z M965.82,539.03h-0.67v1.55h0.64
		c0.38,0,0.75-0.33,0.75-0.79C966.54,539.35,966.19,539.03,965.82,539.03z M966.4,541.97h-1.25v1.87h1.26
		c0.51,0,1.06-0.35,1.06-0.96C967.47,542.42,967.16,541.97,966.4,541.97z M987.33,551.1h-1.02v1.98l1.02,0.01
		c0.54,0,1.02-0.43,1.02-1C988.35,551.53,987.87,551.1,987.33,551.1z M1004.33,542.05c-0.28,0.24-0.51,0.54-0.51,0.97
		c0,0.61,0.36,0.99,1.12,0.99c0.39,0,0.72-0.1,1-0.29C1005.35,543.21,1004.8,542.64,1004.33,542.05z M1004.33,542.05
		c-0.28,0.24-0.51,0.54-0.51,0.97c0,0.61,0.36,0.99,1.12,0.99c0.39,0,0.72-0.1,1-0.29C1005.35,543.21,1004.8,542.64,1004.33,542.05z
		 M987.33,551.1h-1.02v1.98l1.02,0.01c0.54,0,1.02-0.43,1.02-1C988.35,551.53,987.87,551.1,987.33,551.1z M966.4,541.97h-1.25v1.87
		h1.26c0.51,0,1.06-0.35,1.06-0.96C967.47,542.42,967.16,541.97,966.4,541.97z M965.82,539.03h-0.67v1.55h0.64
		c0.38,0,0.75-0.33,0.75-0.79C966.54,539.35,966.19,539.03,965.82,539.03z M956.84,541.55c-0.65,0-1.2,0.55-1.2,1.2
		c0,0.65,0.54,1.19,1.19,1.19c0.66,0,1.2-0.55,1.2-1.19C958.03,542.1,957.49,541.55,956.84,541.55z M956.84,541.55
		c-0.65,0-1.2,0.55-1.2,1.2c0,0.65,0.54,1.19,1.19,1.19c0.66,0,1.2-0.55,1.2-1.19C958.03,542.1,957.49,541.55,956.84,541.55z
		 M965.82,539.03h-0.67v1.55h0.64c0.38,0,0.75-0.33,0.75-0.79C966.54,539.35,966.19,539.03,965.82,539.03z M966.4,541.97h-1.25v1.87
		h1.26c0.51,0,1.06-0.35,1.06-0.96C967.47,542.42,967.16,541.97,966.4,541.97z M987.33,551.1h-1.02v1.98l1.02,0.01
		c0.54,0,1.02-0.43,1.02-1C988.35,551.53,987.87,551.1,987.33,551.1z M1004.33,542.05c-0.28,0.24-0.51,0.54-0.51,0.97
		c0,0.61,0.36,0.99,1.12,0.99c0.39,0,0.72-0.1,1-0.29C1005.35,543.21,1004.8,542.64,1004.33,542.05z M1004.33,542.05
		c-0.28,0.24-0.51,0.54-0.51,0.97c0,0.61,0.36,0.99,1.12,0.99c0.39,0,0.72-0.1,1-0.29C1005.35,543.21,1004.8,542.64,1004.33,542.05z
		 M987.33,551.1h-1.02v1.98l1.02,0.01c0.54,0,1.02-0.43,1.02-1C988.35,551.53,987.87,551.1,987.33,551.1z M966.4,541.97h-1.25v1.87
		h1.26c0.51,0,1.06-0.35,1.06-0.96C967.47,542.42,967.16,541.97,966.4,541.97z M965.82,539.03h-0.67v1.55h0.64
		c0.38,0,0.75-0.33,0.75-0.79C966.54,539.35,966.19,539.03,965.82,539.03z M956.84,541.55c-0.65,0-1.2,0.55-1.2,1.2
		c0,0.65,0.54,1.19,1.19,1.19c0.66,0,1.2-0.55,1.2-1.19C958.03,542.1,957.49,541.55,956.84,541.55z M956.84,541.55
		c-0.65,0-1.2,0.55-1.2,1.2c0,0.65,0.54,1.19,1.19,1.19c0.66,0,1.2-0.55,1.2-1.19C958.03,542.1,957.49,541.55,956.84,541.55z
		 M965.82,539.03h-0.67v1.55h0.64c0.38,0,0.75-0.33,0.75-0.79C966.54,539.35,966.19,539.03,965.82,539.03z M966.4,541.97h-1.25v1.87
		h1.26c0.51,0,1.06-0.35,1.06-0.96C967.47,542.42,967.16,541.97,966.4,541.97z M1004.33,542.05c-0.28,0.24-0.51,0.54-0.51,0.97
		c0,0.61,0.36,0.99,1.12,0.99c0.39,0,0.72-0.1,1-0.29C1005.35,543.21,1004.8,542.64,1004.33,542.05z M1004.33,542.05
		c-0.28,0.24-0.51,0.54-0.51,0.97c0,0.61,0.36,0.99,1.12,0.99c0.39,0,0.72-0.1,1-0.29C1005.35,543.21,1004.8,542.64,1004.33,542.05z
		 M966.4,541.97h-1.25v1.87h1.26c0.51,0,1.06-0.35,1.06-0.96C967.47,542.42,967.16,541.97,966.4,541.97z M965.82,539.03h-0.67v1.55
		h0.64c0.38,0,0.75-0.33,0.75-0.79C966.54,539.35,966.19,539.03,965.82,539.03z M956.84,541.55c-0.65,0-1.2,0.55-1.2,1.2
		c0,0.65,0.54,1.19,1.19,1.19c0.66,0,1.2-0.55,1.2-1.19C958.03,542.1,957.49,541.55,956.84,541.55z M956.84,541.55
		c-0.65,0-1.2,0.55-1.2,1.2c0,0.65,0.54,1.19,1.19,1.19c0.66,0,1.2-0.55,1.2-1.19C958.03,542.1,957.49,541.55,956.84,541.55z
		 M965.82,539.03h-0.67v1.55h0.64c0.38,0,0.75-0.33,0.75-0.79C966.54,539.35,966.19,539.03,965.82,539.03z M966.4,541.97h-1.25v1.87
		h1.26c0.51,0,1.06-0.35,1.06-0.96C967.47,542.42,967.16,541.97,966.4,541.97z M966.4,541.97h-1.25v1.87h1.26
		c0.51,0,1.06-0.35,1.06-0.96C967.47,542.42,967.16,541.97,966.4,541.97z M965.82,539.03h-0.67v1.55h0.64
		c0.38,0,0.75-0.33,0.75-0.79C966.54,539.35,966.19,539.03,965.82,539.03z M956.84,541.55c-0.65,0-1.2,0.55-1.2,1.2
		c0,0.65,0.54,1.19,1.19,1.19c0.66,0,1.2-0.55,1.2-1.19C958.03,542.1,957.49,541.55,956.84,541.55z M956.84,541.55
		c-0.65,0-1.2,0.55-1.2,1.2c0,0.65,0.54,1.19,1.19,1.19c0.66,0,1.2-0.55,1.2-1.19C958.03,542.1,957.49,541.55,956.84,541.55z
		 M965.82,539.03h-0.67v1.55h0.64c0.38,0,0.75-0.33,0.75-0.79C966.54,539.35,966.19,539.03,965.82,539.03z M966.4,541.97h-1.25v1.87
		h1.26c0.51,0,1.06-0.35,1.06-0.96C967.47,542.42,967.16,541.97,966.4,541.97z M966.4,541.97h-1.25v1.87h1.26
		c0.51,0,1.06-0.35,1.06-0.96C967.47,542.42,967.16,541.97,966.4,541.97z M965.82,539.03h-0.67v1.55h0.64
		c0.38,0,0.75-0.33,0.75-0.79C966.54,539.35,966.19,539.03,965.82,539.03z M956.84,541.55c-0.65,0-1.2,0.55-1.2,1.2
		c0,0.65,0.54,1.19,1.19,1.19c0.66,0,1.2-0.55,1.2-1.19C958.03,542.1,957.49,541.55,956.84,541.55z M956.84,541.55
		c-0.65,0-1.2,0.55-1.2,1.2c0,0.65,0.54,1.19,1.19,1.19c0.66,0,1.2-0.55,1.2-1.19C958.03,542.1,957.49,541.55,956.84,541.55z
		 M965.82,539.03h-0.67v1.55h0.64c0.38,0,0.75-0.33,0.75-0.79C966.54,539.35,966.19,539.03,965.82,539.03z M966.4,541.97h-1.25v1.87
		h1.26c0.51,0,1.06-0.35,1.06-0.96C967.47,542.42,967.16,541.97,966.4,541.97z M966.4,541.97h-1.25v1.87h1.26
		c0.51,0,1.06-0.35,1.06-0.96C967.47,542.42,967.16,541.97,966.4,541.97z M965.82,539.03h-0.67v1.55h0.64
		c0.38,0,0.75-0.33,0.75-0.79C966.54,539.35,966.19,539.03,965.82,539.03z M956.84,541.55c-0.65,0-1.2,0.55-1.2,1.2
		c0,0.65,0.54,1.19,1.19,1.19c0.66,0,1.2-0.55,1.2-1.19C958.03,542.1,957.49,541.55,956.84,541.55z M956.84,541.55
		c-0.65,0-1.2,0.55-1.2,1.2c0,0.65,0.54,1.19,1.19,1.19c0.66,0,1.2-0.55,1.2-1.19C958.03,542.1,957.49,541.55,956.84,541.55z
		 M956.84,541.55c-0.65,0-1.2,0.55-1.2,1.2c0,0.65,0.54,1.19,1.19,1.19c0.66,0,1.2-0.55,1.2-1.19
		C958.03,542.1,957.49,541.55,956.84,541.55z"/>
</g>
<g class="st0">
	<path class="st1" d="M1101.54,398.59v42.73h113.95v-42.73H1101.54z M1213.59,439.42h-110.15v-38.93h110.15V439.42z"/>
	<path class="st6" d="M1155.36,415.92c-0.65,0-1.2,0.55-1.2,1.2c0,0.65,0.54,1.19,1.19,1.19c0.66,0,1.2-0.55,1.2-1.19
		C1156.55,416.47,1156.01,415.92,1155.36,415.92z M1155.36,415.92c-0.65,0-1.2,0.55-1.2,1.2c0,0.65,0.54,1.19,1.19,1.19
		c0.66,0,1.2-0.55,1.2-1.19C1156.55,416.47,1156.01,415.92,1155.36,415.92z M1155.36,415.92c-0.65,0-1.2,0.55-1.2,1.2
		c0,0.65,0.54,1.19,1.19,1.19c0.66,0,1.2-0.55,1.2-1.19C1156.55,416.47,1156.01,415.92,1155.36,415.92z M1164.34,413.4h-0.67v1.55
		h0.64c0.38,0,0.75-0.33,0.75-0.79C1165.06,413.72,1164.71,413.4,1164.34,413.4z M1164.92,416.34h-1.25v1.87h1.26
		c0.51,0,1.06-0.35,1.06-0.96C1165.99,416.79,1165.68,416.34,1164.92,416.34z M1164.92,416.34h-1.25v1.87h1.26
		c0.51,0,1.06-0.35,1.06-0.96C1165.99,416.79,1165.68,416.34,1164.92,416.34z M1164.34,413.4h-0.67v1.55h0.64
		c0.38,0,0.75-0.33,0.75-0.79C1165.06,413.72,1164.71,413.4,1164.34,413.4z M1155.36,415.92c-0.65,0-1.2,0.55-1.2,1.2
		c0,0.65,0.54,1.19,1.19,1.19c0.66,0,1.2-0.55,1.2-1.19C1156.55,416.47,1156.01,415.92,1155.36,415.92z M1155.36,415.92
		c-0.65,0-1.2,0.55-1.2,1.2c0,0.65,0.54,1.19,1.19,1.19c0.66,0,1.2-0.55,1.2-1.19C1156.55,416.47,1156.01,415.92,1155.36,415.92z
		 M1164.34,413.4h-0.67v1.55h0.64c0.38,0,0.75-0.33,0.75-0.79C1165.06,413.72,1164.71,413.4,1164.34,413.4z M1164.92,416.34h-1.25
		v1.87h1.26c0.51,0,1.06-0.35,1.06-0.96C1165.99,416.79,1165.68,416.34,1164.92,416.34z M1164.92,416.34h-1.25v1.87h1.26
		c0.51,0,1.06-0.35,1.06-0.96C1165.99,416.79,1165.68,416.34,1164.92,416.34z M1164.34,413.4h-0.67v1.55h0.64
		c0.38,0,0.75-0.33,0.75-0.79C1165.06,413.72,1164.71,413.4,1164.34,413.4z M1155.36,415.92c-0.65,0-1.2,0.55-1.2,1.2
		c0,0.65,0.54,1.19,1.19,1.19c0.66,0,1.2-0.55,1.2-1.19C1156.55,416.47,1156.01,415.92,1155.36,415.92z M1155.36,415.92
		c-0.65,0-1.2,0.55-1.2,1.2c0,0.65,0.54,1.19,1.19,1.19c0.66,0,1.2-0.55,1.2-1.19C1156.55,416.47,1156.01,415.92,1155.36,415.92z
		 M1164.34,413.4h-0.67v1.55h0.64c0.38,0,0.75-0.33,0.75-0.79C1165.06,413.72,1164.71,413.4,1164.34,413.4z M1164.92,416.34h-1.25
		v1.87h1.26c0.51,0,1.06-0.35,1.06-0.96C1165.99,416.79,1165.68,416.34,1164.92,416.34z M1164.92,416.34h-1.25v1.87h1.26
		c0.51,0,1.06-0.35,1.06-0.96C1165.99,416.79,1165.68,416.34,1164.92,416.34z M1164.34,413.4h-0.67v1.55h0.64
		c0.38,0,0.75-0.33,0.75-0.79C1165.06,413.72,1164.71,413.4,1164.34,413.4z M1155.36,415.92c-0.65,0-1.2,0.55-1.2,1.2
		c0,0.65,0.54,1.19,1.19,1.19c0.66,0,1.2-0.55,1.2-1.19C1156.55,416.47,1156.01,415.92,1155.36,415.92z M1155.36,415.92
		c-0.65,0-1.2,0.55-1.2,1.2c0,0.65,0.54,1.19,1.19,1.19c0.66,0,1.2-0.55,1.2-1.19C1156.55,416.47,1156.01,415.92,1155.36,415.92z
		 M1164.34,413.4h-0.67v1.55h0.64c0.38,0,0.75-0.33,0.75-0.79C1165.06,413.72,1164.71,413.4,1164.34,413.4z M1164.92,416.34h-1.25
		v1.87h1.26c0.51,0,1.06-0.35,1.06-0.96C1165.99,416.79,1165.68,416.34,1164.92,416.34z M1202.85,416.42
		c-0.28,0.24-0.51,0.54-0.51,0.97c0,0.61,0.36,0.99,1.12,0.99c0.39,0,0.72-0.1,1-0.29C1203.87,417.58,1203.32,417.01,1202.85,416.42
		z M1202.85,416.42c-0.28,0.24-0.51,0.54-0.51,0.97c0,0.61,0.36,0.99,1.12,0.99c0.39,0,0.72-0.1,1-0.29
		C1203.87,417.58,1203.32,417.01,1202.85,416.42z M1164.92,416.34h-1.25v1.87h1.26c0.51,0,1.06-0.35,1.06-0.96
		C1165.99,416.79,1165.68,416.34,1164.92,416.34z M1164.34,413.4h-0.67v1.55h0.64c0.38,0,0.75-0.33,0.75-0.79
		C1165.06,413.72,1164.71,413.4,1164.34,413.4z M1155.36,415.92c-0.65,0-1.2,0.55-1.2,1.2c0,0.65,0.54,1.19,1.19,1.19
		c0.66,0,1.2-0.55,1.2-1.19C1156.55,416.47,1156.01,415.92,1155.36,415.92z M1155.36,415.92c-0.65,0-1.2,0.55-1.2,1.2
		c0,0.65,0.54,1.19,1.19,1.19c0.66,0,1.2-0.55,1.2-1.19C1156.55,416.47,1156.01,415.92,1155.36,415.92z M1164.34,413.4h-0.67v1.55
		h0.64c0.38,0,0.75-0.33,0.75-0.79C1165.06,413.72,1164.71,413.4,1164.34,413.4z M1164.92,416.34h-1.25v1.87h1.26
		c0.51,0,1.06-0.35,1.06-0.96C1165.99,416.79,1165.68,416.34,1164.92,416.34z M1185.85,425.47h-1.02v1.98l1.02,0.01
		c0.54,0,1.02-0.43,1.02-1C1186.87,425.9,1186.39,425.47,1185.85,425.47z M1202.85,416.42c-0.28,0.24-0.51,0.54-0.51,0.97
		c0,0.61,0.36,0.99,1.12,0.99c0.39,0,0.72-0.1,1-0.29C1203.87,417.58,1203.32,417.01,1202.85,416.42z M1202.85,416.42
		c-0.28,0.24-0.51,0.54-0.51,0.97c0,0.61,0.36,0.99,1.12,0.99c0.39,0,0.72-0.1,1-0.29C1203.87,417.58,1203.32,417.01,1202.85,416.42
		z M1185.85,425.47h-1.02v1.98l1.02,0.01c0.54,0,1.02-0.43,1.02-1C1186.87,425.9,1186.39,425.47,1185.85,425.47z M1164.92,416.34
		h-1.25v1.87h1.26c0.51,0,1.06-0.35,1.06-0.96C1165.99,416.79,1165.68,416.34,1164.92,416.34z M1164.34,413.4h-0.67v1.55h0.64
		c0.38,0,0.75-0.33,0.75-0.79C1165.06,413.72,1164.71,413.4,1164.34,413.4z M1155.36,415.92c-0.65,0-1.2,0.55-1.2,1.2
		c0,0.65,0.54,1.19,1.19,1.19c0.66,0,1.2-0.55,1.2-1.19C1156.55,416.47,1156.01,415.92,1155.36,415.92z M1155.36,415.92
		c-0.65,0-1.2,0.55-1.2,1.2c0,0.65,0.54,1.19,1.19,1.19c0.66,0,1.2-0.55,1.2-1.19C1156.55,416.47,1156.01,415.92,1155.36,415.92z
		 M1164.34,413.4h-0.67v1.55h0.64c0.38,0,0.75-0.33,0.75-0.79C1165.06,413.72,1164.71,413.4,1164.34,413.4z M1164.92,416.34h-1.25
		v1.87h1.26c0.51,0,1.06-0.35,1.06-0.96C1165.99,416.79,1165.68,416.34,1164.92,416.34z M1185.85,425.47h-1.02v1.98l1.02,0.01
		c0.54,0,1.02-0.43,1.02-1C1186.87,425.9,1186.39,425.47,1185.85,425.47z M1202.85,416.42c-0.28,0.24-0.51,0.54-0.51,0.97
		c0,0.61,0.36,0.99,1.12,0.99c0.39,0,0.72-0.1,1-0.29C1203.87,417.58,1203.32,417.01,1202.85,416.42z M1202.85,416.42
		c-0.28,0.24-0.51,0.54-0.51,0.97c0,0.61,0.36,0.99,1.12,0.99c0.39,0,0.72-0.1,1-0.29C1203.87,417.58,1203.32,417.01,1202.85,416.42
		z M1185.85,425.47h-1.02v1.98l1.02,0.01c0.54,0,1.02-0.43,1.02-1C1186.87,425.9,1186.39,425.47,1185.85,425.47z M1164.92,416.34
		h-1.25v1.87h1.26c0.51,0,1.06-0.35,1.06-0.96C1165.99,416.79,1165.68,416.34,1164.92,416.34z M1164.34,413.4h-0.67v1.55h0.64
		c0.38,0,0.75-0.33,0.75-0.79C1165.06,413.72,1164.71,413.4,1164.34,413.4z M1155.36,415.92c-0.65,0-1.2,0.55-1.2,1.2
		c0,0.65,0.54,1.19,1.19,1.19c0.66,0,1.2-0.55,1.2-1.19C1156.55,416.47,1156.01,415.92,1155.36,415.92z M1148.31,425.47h-0.71v4.74
		h0.73c1.55,0,2.49-0.89,2.49-2.36C1150.82,426.37,1149.87,425.47,1148.31,425.47z M1155.36,415.92c-0.65,0-1.2,0.55-1.2,1.2
		c0,0.65,0.54,1.19,1.19,1.19c0.66,0,1.2-0.55,1.2-1.19C1156.55,416.47,1156.01,415.92,1155.36,415.92z M1164.34,413.4h-0.67v1.55
		h0.64c0.38,0,0.75-0.33,0.75-0.79C1165.06,413.72,1164.71,413.4,1164.34,413.4z M1164.92,416.34h-1.25v1.87h1.26
		c0.51,0,1.06-0.35,1.06-0.96C1165.99,416.79,1165.68,416.34,1164.92,416.34z M1185.85,425.47h-1.02v1.98l1.02,0.01
		c0.54,0,1.02-0.43,1.02-1C1186.87,425.9,1186.39,425.47,1185.85,425.47z M1202.85,416.42c-0.28,0.24-0.51,0.54-0.51,0.97
		c0,0.61,0.36,0.99,1.12,0.99c0.39,0,0.72-0.1,1-0.29C1203.87,417.58,1203.32,417.01,1202.85,416.42z M1202.85,416.42
		c-0.28,0.24-0.51,0.54-0.51,0.97c0,0.61,0.36,0.99,1.12,0.99c0.39,0,0.72-0.1,1-0.29C1203.87,417.58,1203.32,417.01,1202.85,416.42
		z M1185.85,425.47h-1.02v1.98l1.02,0.01c0.54,0,1.02-0.43,1.02-1C1186.87,425.9,1186.39,425.47,1185.85,425.47z M1164.92,416.34
		h-1.25v1.87h1.26c0.51,0,1.06-0.35,1.06-0.96C1165.99,416.79,1165.68,416.34,1164.92,416.34z M1165.06,414.16
		c0-0.44-0.35-0.76-0.72-0.76h-0.67v1.55h0.64C1164.69,414.95,1165.06,414.62,1165.06,414.16z M1155.36,415.92
		c-0.65,0-1.2,0.55-1.2,1.2c0,0.65,0.54,1.19,1.19,1.19c0.66,0,1.2-0.55,1.2-1.19C1156.55,416.47,1156.01,415.92,1155.36,415.92z
		 M1148.31,425.47h-0.71v4.74h0.73c1.55,0,2.49-0.89,2.49-2.36C1150.82,426.37,1149.87,425.47,1148.31,425.47z M1098.52,391.87v45
		h120v-45H1098.52z M1188.26,416.15c-0.89-0.44-1.86-0.93-1.86-2.19c0-1.36,1.16-2.27,2.61-2.27c1.07,0,1.96,0.45,2.32,1.4
		l-1.17,0.82c-0.23-0.47-0.69-0.66-1.13-0.66c-0.59,0-1.03,0.34-1.03,0.75c0,0.47,0.59,0.63,1.5,1.06c1.31,0.62,2.13,1.28,2.13,2.5
		c0,1.44-1.17,2.35-2.86,2.35c-1.3,0-2.25-0.53-2.78-1.51l1.27-0.9c0.34,0.56,0.85,0.82,1.53,0.82c0.74,0,1.24-0.31,1.24-0.73
		C1190.03,417.01,1189.09,416.56,1188.26,416.15z M1170.91,411.86h5.47v1.57h-1.94v6.33h-1.59v-6.33h-1.94V411.86z M1168.43,411.86
		h1.58v7.9h-1.58V411.86z M1148.92,415.78c-0.55,0-1.16,0.21-1.52,0.64l-0.88-0.46l0.6-4.1h4.07v1.57h-2.89l-0.17,1.09
		c0.27-0.2,0.6-0.27,1.02-0.27c1.69,0,2.74,1.18,2.74,2.73c0,1.73-1.3,2.87-2.9,2.87c-1.2,0-2.28-0.65-2.73-1.67l1.58-0.5
		c0.24,0.37,0.64,0.59,1.08,0.59c0.56,0,1.32-0.35,1.32-1.29C1150.24,416.24,1149.74,415.78,1148.92,415.78z M1135.73,431.61
		c0,0.96-0.77,1.73-1.72,1.73h-22.99c-0.96,0-1.73-0.77-1.73-1.73v-19.54c0-0.95,0.77-1.72,1.73-1.72h1.72v-5.18
		c0-5.39,4.38-9.77,9.77-9.77s9.78,4.38,9.78,9.77v5.18h1.72c0.95,0,1.72,0.77,1.72,1.72V431.61z M1142.34,431.89
		c-1.29,0-2.44-0.89-2.71-1.95l1.56-0.4c0.12,0.46,0.57,0.78,1.11,0.78c0.66,0,1.09-0.48,1.09-1.06c0-0.84-0.93-1.43-2.06-1.43
		l0.24-0.9c0.81,0,1.42-0.42,1.42-1.01c0-0.42-0.32-0.72-0.71-0.72c-0.33,0-0.58,0.21-0.66,0.56l-1.62-0.34
		c0.22-0.95,1.11-1.77,2.29-1.77c1.23,0,2.3,0.89,2.3,2.15c0,0.7-0.35,1.29-0.87,1.54c0.67,0.32,1.27,1.03,1.27,2.04
		C1144.99,430.77,1143.83,431.89,1142.34,431.89z M1145.57,419.76h-5.94v-0.29c2.91-2.64,4.24-4.03,4.24-4.88
		c0-0.75-0.61-1.28-1.11-1.28c-0.72,0-1.35,0.61-1.35,1.37l-1.44-0.37c0-1.43,1.25-2.59,2.74-2.59c1.52,0,2.75,1.33,2.75,2.79
		c0,1.29-1.32,2.85-2.45,3.66h2.56V419.76z M1148.32,431.79h-2.3v-7.89h2.3c2.55-0.01,4.11,1.49,4.11,3.95
		C1152.43,430.3,1150.87,431.79,1148.32,431.79z M1152.57,417.24c0-0.77,0.25-1.15,2.54-5.38l1.81,0.01l-1.65,2.92
		c0.18-0.04,0.36-0.07,0.53-0.07c1.2,0,2.33,1.03,2.33,2.45c0,1.48-1.23,2.71-2.8,2.71
		C1153.78,419.88,1152.57,418.88,1152.57,417.24z M1158.76,431.95c-1.3,0-2.25-0.54-2.78-1.52l1.27-0.89
		c0.35,0.56,0.85,0.81,1.53,0.81c0.75,0,1.25-0.3,1.25-0.72c0-0.58-0.95-1.04-1.78-1.45c-0.88-0.44-1.86-0.92-1.86-2.18
		c0-1.37,1.16-2.27,2.61-2.27c1.07,0,1.97,0.44,2.32,1.4l-1.17,0.82c-0.23-0.47-0.69-0.66-1.13-0.66c-0.59,0-1.03,0.34-1.03,0.75
		c0,0.47,0.6,0.63,1.5,1.05c1.31,0.62,2.13,1.29,2.13,2.5C1161.62,431.03,1160.45,431.95,1158.76,431.95z M1167.34,425.46h-3.17V427
		h2.72v1.58h-2.72v1.63h3.17v1.58h-4.76v-7.89h4.76V425.46z M1165.07,419.76h-2.98v-7.9h2.16c1.4,0,2.29,1.03,2.29,2.09
		c0,0.84-0.55,1.36-0.75,1.36c0.76,0,1.75,0.78,1.75,2.05C1167.54,418.53,1166.7,419.76,1165.07,419.76z M1172.24,430.35
		c0.73,0,1.36-0.39,1.88-0.9l0.91,1.28c-0.69,0.69-1.54,1.21-2.74,1.21c-2.28,0-4.13-1.87-4.13-4.09c0-2.23,1.88-4.12,4.1-4.12
		c1.03,0.02,1.94,0.43,2.77,1.22l-0.92,1.25c-0.53-0.53-1.18-0.85-1.86-0.85c-1.27,0-2.48,1.13-2.48,2.51
		C1169.77,429.26,1171.02,430.35,1172.24,430.35z M1181.95,428.87c0,1.79-1.37,3.09-3.05,3.09c-1.68,0-3.05-1.3-3.05-3.09v-4.97h1.6
		v4.97c0,0.86,0.68,1.49,1.44,1.49c0.77,0,1.46-0.64,1.46-1.49v-4.97h1.6V428.87z M1179.8,418.4l1.27-0.9
		c0.34,0.56,0.85,0.82,1.53,0.82c0.74,0,1.24-0.31,1.24-0.73c0-0.58-0.94-1.03-1.77-1.44c-0.89-0.44-1.86-0.93-1.86-2.19
		c0-1.36,1.16-2.27,2.61-2.27c1.07,0,1.97,0.45,2.32,1.4l-1.17,0.82c-0.23-0.47-0.69-0.66-1.13-0.66c-0.59,0-1.03,0.34-1.03,0.75
		c0,0.47,0.59,0.63,1.5,1.06c1.31,0.62,2.13,1.28,2.13,2.5c0,1.44-1.17,2.35-2.86,2.35C1181.28,419.91,1180.33,419.38,1179.8,418.4z
		 M1187.35,431.79l-2.51-3.73v3.73h-1.59v-7.89h2.57c1.48,0,2.69,1.13,2.69,2.55c0,1.02-0.62,1.9-1.46,2.2l2.24,3.14H1187.35z
		 M1194.8,425.46h-3.17V427h2.72v1.58h-2.72v1.63h3.17v1.58h-4.76v-7.89h4.76V425.46z M1197.35,419.76h-4.76v-7.9h1.59v6.32h3.17
		V419.76z M1207.74,419.83c-0.55,0-1.26-0.3-2-0.77c-0.57,0.57-1.33,0.87-2.2,0.87c-1.85,0-2.7-1.37-2.7-2.43
		c0-0.91,0.63-1.83,1.23-2.23c-0.32-0.56-0.5-1.09-0.5-1.54c0-1.02,0.99-2.1,2.21-2.1c1.09,0,1.96,0.87,2.16,1.77l-1.52,0.31
		c-0.08-0.34-0.4-0.62-0.69-0.62c-0.3,0-0.6,0.27-0.6,0.7c0,0.78,1,2.11,2.12,3.13c0.11-0.34,0.17-0.71,0.19-1.11l1.48-0.02
		c-0.02,0.81-0.17,1.51-0.41,2.1c0.47,0.29,0.91,0.47,1.24,0.47L1207.74,419.83z M1202.85,416.42c-0.28,0.24-0.51,0.54-0.51,0.97
		c0,0.61,0.36,0.99,1.12,0.99c0.39,0,0.72-0.1,1-0.29C1203.87,417.58,1203.32,417.01,1202.85,416.42z M1185.85,425.47h-1.02v1.98
		l1.02,0.01c0.54,0,1.02-0.43,1.02-1C1186.87,425.9,1186.39,425.47,1185.85,425.47z M1164.92,416.34h-1.25v1.87h1.26
		c0.51,0,1.06-0.35,1.06-0.96C1165.99,416.79,1165.68,416.34,1164.92,416.34z M1165.06,414.16c0-0.44-0.35-0.76-0.72-0.76h-0.67
		v1.55h0.64C1164.69,414.95,1165.06,414.62,1165.06,414.16z M1155.36,415.92c-0.65,0-1.2,0.55-1.2,1.2c0,0.65,0.54,1.19,1.19,1.19
		c0.66,0,1.2-0.55,1.2-1.19C1156.55,416.47,1156.01,415.92,1155.36,415.92z M1148.31,425.47h-0.71v4.74h0.73
		c1.55,0,2.49-0.89,2.49-2.36C1150.82,426.37,1149.87,425.47,1148.31,425.47z M1155.36,415.92c-0.65,0-1.2,0.55-1.2,1.2
		c0,0.65,0.54,1.19,1.19,1.19c0.66,0,1.2-0.55,1.2-1.19C1156.55,416.47,1156.01,415.92,1155.36,415.92z M1164.34,413.4h-0.67v1.55
		h0.64c0.38,0,0.75-0.33,0.75-0.79C1165.06,413.72,1164.71,413.4,1164.34,413.4z M1164.92,416.34h-1.25v1.87h1.26
		c0.51,0,1.06-0.35,1.06-0.96C1165.99,416.79,1165.68,416.34,1164.92,416.34z M1185.85,425.47h-1.02v1.98l1.02,0.01
		c0.54,0,1.02-0.43,1.02-1C1186.87,425.9,1186.39,425.47,1185.85,425.47z M1202.85,416.42c-0.28,0.24-0.51,0.54-0.51,0.97
		c0,0.61,0.36,0.99,1.12,0.99c0.39,0,0.72-0.1,1-0.29C1203.87,417.58,1203.32,417.01,1202.85,416.42z M1202.85,416.42
		c-0.28,0.24-0.51,0.54-0.51,0.97c0,0.61,0.36,0.99,1.12,0.99c0.39,0,0.72-0.1,1-0.29C1203.87,417.58,1203.32,417.01,1202.85,416.42
		z M1185.85,425.47h-1.02v1.98l1.02,0.01c0.54,0,1.02-0.43,1.02-1C1186.87,425.9,1186.39,425.47,1185.85,425.47z M1164.92,416.34
		h-1.25v1.87h1.26c0.51,0,1.06-0.35,1.06-0.96C1165.99,416.79,1165.68,416.34,1164.92,416.34z M1164.34,413.4h-0.67v1.55h0.64
		c0.38,0,0.75-0.33,0.75-0.79C1165.06,413.72,1164.71,413.4,1164.34,413.4z M1155.36,415.92c-0.65,0-1.2,0.55-1.2,1.2
		c0,0.65,0.54,1.19,1.19,1.19c0.66,0,1.2-0.55,1.2-1.19C1156.55,416.47,1156.01,415.92,1155.36,415.92z M1155.36,415.92
		c-0.65,0-1.2,0.55-1.2,1.2c0,0.65,0.54,1.19,1.19,1.19c0.66,0,1.2-0.55,1.2-1.19C1156.55,416.47,1156.01,415.92,1155.36,415.92z
		 M1164.34,413.4h-0.67v1.55h0.64c0.38,0,0.75-0.33,0.75-0.79C1165.06,413.72,1164.71,413.4,1164.34,413.4z M1164.92,416.34h-1.25
		v1.87h1.26c0.51,0,1.06-0.35,1.06-0.96C1165.99,416.79,1165.68,416.34,1164.92,416.34z M1185.85,425.47h-1.02v1.98l1.02,0.01
		c0.54,0,1.02-0.43,1.02-1C1186.87,425.9,1186.39,425.47,1185.85,425.47z M1202.85,416.42c-0.28,0.24-0.51,0.54-0.51,0.97
		c0,0.61,0.36,0.99,1.12,0.99c0.39,0,0.72-0.1,1-0.29C1203.87,417.58,1203.32,417.01,1202.85,416.42z M1202.85,416.42
		c-0.28,0.24-0.51,0.54-0.51,0.97c0,0.61,0.36,0.99,1.12,0.99c0.39,0,0.72-0.1,1-0.29C1203.87,417.58,1203.32,417.01,1202.85,416.42
		z M1185.85,425.47h-1.02v1.98l1.02,0.01c0.54,0,1.02-0.43,1.02-1C1186.87,425.9,1186.39,425.47,1185.85,425.47z M1164.92,416.34
		h-1.25v1.87h1.26c0.51,0,1.06-0.35,1.06-0.96C1165.99,416.79,1165.68,416.34,1164.92,416.34z M1164.34,413.4h-0.67v1.55h0.64
		c0.38,0,0.75-0.33,0.75-0.79C1165.06,413.72,1164.71,413.4,1164.34,413.4z M1155.36,415.92c-0.65,0-1.2,0.55-1.2,1.2
		c0,0.65,0.54,1.19,1.19,1.19c0.66,0,1.2-0.55,1.2-1.19C1156.55,416.47,1156.01,415.92,1155.36,415.92z M1155.36,415.92
		c-0.65,0-1.2,0.55-1.2,1.2c0,0.65,0.54,1.19,1.19,1.19c0.66,0,1.2-0.55,1.2-1.19C1156.55,416.47,1156.01,415.92,1155.36,415.92z
		 M1164.34,413.4h-0.67v1.55h0.64c0.38,0,0.75-0.33,0.75-0.79C1165.06,413.72,1164.71,413.4,1164.34,413.4z M1164.92,416.34h-1.25
		v1.87h1.26c0.51,0,1.06-0.35,1.06-0.96C1165.99,416.79,1165.68,416.34,1164.92,416.34z M1185.85,425.47h-1.02v1.98l1.02,0.01
		c0.54,0,1.02-0.43,1.02-1C1186.87,425.9,1186.39,425.47,1185.85,425.47z M1202.85,416.42c-0.28,0.24-0.51,0.54-0.51,0.97
		c0,0.61,0.36,0.99,1.12,0.99c0.39,0,0.72-0.1,1-0.29C1203.87,417.58,1203.32,417.01,1202.85,416.42z M1202.85,416.42
		c-0.28,0.24-0.51,0.54-0.51,0.97c0,0.61,0.36,0.99,1.12,0.99c0.39,0,0.72-0.1,1-0.29C1203.87,417.58,1203.32,417.01,1202.85,416.42
		z M1185.85,425.47h-1.02v1.98l1.02,0.01c0.54,0,1.02-0.43,1.02-1C1186.87,425.9,1186.39,425.47,1185.85,425.47z M1164.92,416.34
		h-1.25v1.87h1.26c0.51,0,1.06-0.35,1.06-0.96C1165.99,416.79,1165.68,416.34,1164.92,416.34z M1164.34,413.4h-0.67v1.55h0.64
		c0.38,0,0.75-0.33,0.75-0.79C1165.06,413.72,1164.71,413.4,1164.34,413.4z M1155.36,415.92c-0.65,0-1.2,0.55-1.2,1.2
		c0,0.65,0.54,1.19,1.19,1.19c0.66,0,1.2-0.55,1.2-1.19C1156.55,416.47,1156.01,415.92,1155.36,415.92z M1155.36,415.92
		c-0.65,0-1.2,0.55-1.2,1.2c0,0.65,0.54,1.19,1.19,1.19c0.66,0,1.2-0.55,1.2-1.19C1156.55,416.47,1156.01,415.92,1155.36,415.92z
		 M1164.34,413.4h-0.67v1.55h0.64c0.38,0,0.75-0.33,0.75-0.79C1165.06,413.72,1164.71,413.4,1164.34,413.4z M1164.92,416.34h-1.25
		v1.87h1.26c0.51,0,1.06-0.35,1.06-0.96C1165.99,416.79,1165.68,416.34,1164.92,416.34z M1202.85,416.42
		c-0.28,0.24-0.51,0.54-0.51,0.97c0,0.61,0.36,0.99,1.12,0.99c0.39,0,0.72-0.1,1-0.29C1203.87,417.58,1203.32,417.01,1202.85,416.42
		z M1202.85,416.42c-0.28,0.24-0.51,0.54-0.51,0.97c0,0.61,0.36,0.99,1.12,0.99c0.39,0,0.72-0.1,1-0.29
		C1203.87,417.58,1203.32,417.01,1202.85,416.42z M1164.92,416.34h-1.25v1.87h1.26c0.51,0,1.06-0.35,1.06-0.96
		C1165.99,416.79,1165.68,416.34,1164.92,416.34z M1164.34,413.4h-0.67v1.55h0.64c0.38,0,0.75-0.33,0.75-0.79
		C1165.06,413.72,1164.71,413.4,1164.34,413.4z M1155.36,415.92c-0.65,0-1.2,0.55-1.2,1.2c0,0.65,0.54,1.19,1.19,1.19
		c0.66,0,1.2-0.55,1.2-1.19C1156.55,416.47,1156.01,415.92,1155.36,415.92z M1155.36,415.92c-0.65,0-1.2,0.55-1.2,1.2
		c0,0.65,0.54,1.19,1.19,1.19c0.66,0,1.2-0.55,1.2-1.19C1156.55,416.47,1156.01,415.92,1155.36,415.92z M1164.34,413.4h-0.67v1.55
		h0.64c0.38,0,0.75-0.33,0.75-0.79C1165.06,413.72,1164.71,413.4,1164.34,413.4z M1164.92,416.34h-1.25v1.87h1.26
		c0.51,0,1.06-0.35,1.06-0.96C1165.99,416.79,1165.68,416.34,1164.92,416.34z M1164.92,416.34h-1.25v1.87h1.26
		c0.51,0,1.06-0.35,1.06-0.96C1165.99,416.79,1165.68,416.34,1164.92,416.34z M1164.34,413.4h-0.67v1.55h0.64
		c0.38,0,0.75-0.33,0.75-0.79C1165.06,413.72,1164.71,413.4,1164.34,413.4z M1155.36,415.92c-0.65,0-1.2,0.55-1.2,1.2
		c0,0.65,0.54,1.19,1.19,1.19c0.66,0,1.2-0.55,1.2-1.19C1156.55,416.47,1156.01,415.92,1155.36,415.92z M1155.36,415.92
		c-0.65,0-1.2,0.55-1.2,1.2c0,0.65,0.54,1.19,1.19,1.19c0.66,0,1.2-0.55,1.2-1.19C1156.55,416.47,1156.01,415.92,1155.36,415.92z
		 M1164.34,413.4h-0.67v1.55h0.64c0.38,0,0.75-0.33,0.75-0.79C1165.06,413.72,1164.71,413.4,1164.34,413.4z M1164.92,416.34h-1.25
		v1.87h1.26c0.51,0,1.06-0.35,1.06-0.96C1165.99,416.79,1165.68,416.34,1164.92,416.34z M1164.92,416.34h-1.25v1.87h1.26
		c0.51,0,1.06-0.35,1.06-0.96C1165.99,416.79,1165.68,416.34,1164.92,416.34z M1164.34,413.4h-0.67v1.55h0.64
		c0.38,0,0.75-0.33,0.75-0.79C1165.06,413.72,1164.71,413.4,1164.34,413.4z M1155.36,415.92c-0.65,0-1.2,0.55-1.2,1.2
		c0,0.65,0.54,1.19,1.19,1.19c0.66,0,1.2-0.55,1.2-1.19C1156.55,416.47,1156.01,415.92,1155.36,415.92z M1155.36,415.92
		c-0.65,0-1.2,0.55-1.2,1.2c0,0.65,0.54,1.19,1.19,1.19c0.66,0,1.2-0.55,1.2-1.19C1156.55,416.47,1156.01,415.92,1155.36,415.92z
		 M1164.34,413.4h-0.67v1.55h0.64c0.38,0,0.75-0.33,0.75-0.79C1165.06,413.72,1164.71,413.4,1164.34,413.4z M1164.92,416.34h-1.25
		v1.87h1.26c0.51,0,1.06-0.35,1.06-0.96C1165.99,416.79,1165.68,416.34,1164.92,416.34z M1164.92,416.34h-1.25v1.87h1.26
		c0.51,0,1.06-0.35,1.06-0.96C1165.99,416.79,1165.68,416.34,1164.92,416.34z M1164.34,413.4h-0.67v1.55h0.64
		c0.38,0,0.75-0.33,0.75-0.79C1165.06,413.72,1164.71,413.4,1164.34,413.4z M1155.36,415.92c-0.65,0-1.2,0.55-1.2,1.2
		c0,0.65,0.54,1.19,1.19,1.19c0.66,0,1.2-0.55,1.2-1.19C1156.55,416.47,1156.01,415.92,1155.36,415.92z"/>
</g>
</svg>
