<?xml version="1.0" encoding="UTF-8"?>
<svg id="katman_2" data-name="katman 2" xmlns="http://www.w3.org/2000/svg" viewBox="0 0 80 48.98">
  <defs>
    <style>
      .cls-1, .cls-2 {
        stroke-width: 0px;
      }

      .cls-2 {
        fill: #4c7883;
      }
    </style>
  </defs>
  <g id="katman_1" data-name="katman 1">
    <g id="axess">
      <polygon class="cls-1" points="75.29 47.12 4.71 47.12 4.71 45 2.85 45 2.85 48.98 77.15 48.98 77.15 45 75.29 45 75.29 47.12"/>
      <g>
        <ellipse class="cls-2" cx="10.65" cy="24.49" rx="5.24" ry="5.28"/>
        <path class="cls-2" d="m0,0v45h80V0H0Zm75.29,30.88c-.09.08-.16.17-.26.25-1.06.81-2.39,1.22-4.03,1.22-1.47,0-2.71-.32-3.75-.96-1.06-.64-1.79-1.49-2.22-2.54l2.24-1.28c.23.73.68,1.3,1.34,1.71.66.41,1.45.62,2.37.62.87,0,1.56-.17,2.13-.49.55-.34.83-.85.83-1.55,0-.58-.28-1.04-.87-1.39-.58-.34-1.28-.64-2.09-.89-.81-.24-1.62-.49-2.45-.73-.83-.24-1.53-.68-2.11-1.32-.58-.64-.87-1.45-.87-2.45,0-1.3.51-2.37,1.51-3.2,1-.85,2.26-1.26,3.79-1.26,1.21,0,2.3.28,3.24.83.46.27.85.58,1.2.94.38.39.7.84.95,1.36l-.95.53-1.24.69c-.55-1.28-1.6-1.92-3.2-1.92-.73,0-1.36.17-1.88.51s-.79.83-.75,1.45c0,.57.3,1.02.89,1.36.6.34,1.3.62,2.11.87.81.23,1.62.47,2.45.72.62.18,1.16.48,1.63.89.16.14.31.29.46.46.57.66.85,1.53.85,2.56,0,1.23-.44,2.23-1.31,3.01Zm-30.93-14.27c2.26,0,4.11.77,5.54,2.32,1.43,1.55,2.15,3.41,2.15,5.58,0,.38-.04.77-.09,1.17v-.02h-12.91c.28,1.34.9,2.37,1.9,3.11.98.73,2.22,1.11,3.67,1.11,2.02,0,3.5-.73,4.43-2.19l2.28,1.26c-1.51,2.26-3.77,3.39-6.78,3.39-2.43,0-4.43-.73-5.95-2.22-1.53-1.47-2.3-3.35-2.3-5.63s.73-4.15,2.24-5.63c1.49-1.49,3.45-2.24,5.82-2.24Zm15.92,9.86c-.58-.34-1.28-.64-2.09-.89-.81-.24-1.62-.49-2.45-.73-.83-.24-1.53-.68-2.11-1.32-.58-.64-.87-1.45-.87-2.45,0-1.3.51-2.37,1.51-3.2,1-.85,2.28-1.26,3.79-1.26,1.21,0,2.3.28,3.24.83.96.57,1.68,1.32,2.15,2.3l-2.19,1.22c-.55-1.28-1.6-1.92-3.2-1.92-.73,0-1.36.17-1.88.51-.51.34-.77.83-.75,1.45,0,.57.3,1.02.89,1.36.6.34,1.3.62,2.11.87.81.23,1.62.47,2.45.72.83.24,1.53.7,2.09,1.36.57.66.85,1.53.85,2.56,0,1.36-.51,2.45-1.56,3.26-1.06.81-2.39,1.22-4.03,1.22-1.47,0-2.71-.32-3.75-.96-1.06-.64-1.79-1.49-2.22-2.54l2.24-1.28c.23.73.68,1.3,1.34,1.71s1.45.62,2.37.62c.87,0,1.56-.17,2.13-.49.55-.34.83-.85.83-1.55,0-.58-.28-1.04-.87-1.39Zm-44.27,5.89v-2.13c-1.39,1.32-3.26,2.13-5.33,2.13-2.4,0-4.53-1.09-5.96-2.8-1.15-1.37-1.84-3.14-1.84-5.08s.69-3.71,1.84-5.08c1.43-1.71,3.57-2.8,5.96-2.8,2.05,0,3.94.81,5.33,2.13v-2.13h2.58v15.75h-2.58Zm3.24,0v-15.75h1.26v15.75h-1.26Zm15.7,0l-4.43-5.95-4.41,5.95h-3.18v-.05l-.04.05h-1.47v-15.75h1.51v15.7l5.99-8.05-5.69-7.65h3.26l4.05,5.46,4.07-5.46h3.2l-5.67,7.63,6.03,8.12h-3.22Z"/>
        <path class="cls-2" d="m47.62,20.18c-.92-.73-2.02-1.11-3.22-1.11-1.45,0-2.64.4-3.58,1.19-.94.79-1.53,1.85-1.75,3.17h10.29c-.23-1.43-.81-2.51-1.73-3.24Z"/>
      </g>
    </g>
  </g>
</svg>