<?xml version="1.0" encoding="UTF-8"?>
<svg id="katman_2" data-name="katman 2" xmlns="http://www.w3.org/2000/svg" viewBox="0 0 80 48.98">
  <defs>
    <style>
      .cls-1, .cls-2 {
        stroke-width: 0px;
      }

      .cls-2 {
        fill: #4c7883;
      }
    </style>
  </defs>
  <g id="katman_1" data-name="katman 1">
    <g id="bonus">
      <path id="arka" class="cls-1" d="m2.85,7.19v41.79h74.3V7.19H2.85Zm72.44,39.93H4.71V9.05h70.58v38.07Z"/>
      <path class="cls-2" d="m29.38,23.72c-.94,0-1.61.69-1.61,1.59v2.34c0,.89.69,1.61,1.61,1.61s1.58-.69,1.58-1.61v-2.34c0-.9-.67-1.59-1.58-1.59Zm9.13-.22c-.93,0-1.61.71-1.61,1.61v2.76c0,.9.68,1.62,1.61,1.62s1.59-.72,1.59-1.62v-2.76c0-.9-.69-1.61-1.59-1.61Zm0,0c-.93,0-1.61.71-1.61,1.61v2.76c0,.9.68,1.62,1.61,1.62s1.59-.72,1.59-1.62v-2.76c0-.9-.69-1.61-1.59-1.61Zm-9.13.22c-.94,0-1.61.69-1.61,1.59v2.34c0,.89.69,1.61,1.61,1.61s1.58-.69,1.58-1.61v-2.34c0-.9-.67-1.59-1.58-1.59Zm0,0c-.94,0-1.61.69-1.61,1.59v2.34c0,.89.69,1.61,1.61,1.61s1.58-.69,1.58-1.61v-2.34c0-.9-.67-1.59-1.58-1.59Zm9.13-.22c-.93,0-1.61.71-1.61,1.61v2.76c0,.9.68,1.62,1.61,1.62s1.59-.72,1.59-1.62v-2.76c0-.9-.69-1.61-1.59-1.61Zm0,0c-.93,0-1.61.71-1.61,1.61v2.76c0,.9.68,1.62,1.61,1.62s1.59-.72,1.59-1.62v-2.76c0-.9-.69-1.61-1.59-1.61Zm-9.13.22c-.94,0-1.61.69-1.61,1.59v2.34c0,.89.69,1.61,1.61,1.61s1.58-.69,1.58-1.61v-2.34c0-.9-.67-1.59-1.58-1.59ZM0,0v45h80V0H0Zm22.94,25.25c0,.38-.23.62-.61.62h-4.79v4.76c0,.38-.24.61-.62.61h-2.08c-.38,0-.61-.23-.61-.61v-4.76h-4.76c-.39,0-.62-.24-.62-.62v-2.08c0-.38.23-.61.62-.61h4.75s0-.01.01-.01v-4.79c0-.38.23-.61.61-.61h2.08c.37,0,.62.25.62.61v4.79s.01.01.01.01h4.78c.37,0,.61.24.61.61v2.08Zm10.59,2.4c0,2.35-1.69,3.95-4.02,3.95-1,0-1.52-.44-1.78-.44-.21,0-.07.44-.38.44h-1.9c-.16,0-.23-.06-.23-.22v-13.63c0-.15.07-.22.23-.22h2.09c.14,0,.23.07.23.22v3.83c0,.15.07.24.15.24.27,0,.83-.44,1.79-.44,2.15,0,3.82,1.67,3.82,3.93v2.34Zm9.14.22c0,2.38-1.66,3.96-4.16,3.96s-4.18-1.58-4.18-3.96v-2.76c0-2.37,1.66-3.96,4.18-3.96s4.16,1.59,4.16,3.96v2.76Zm9.45,3.51c0,.16-.07.22-.23.22h-2.12c-.16,0-.22-.06-.22-.22v-6.07c0-.9-.67-1.59-1.59-1.59s-1.6.69-1.6,1.59v6.07c0,.16-.07.22-.23.22h-2.1c-.15,0-.22-.06-.22-.22v-9.78c0-.16.07-.22.22-.22h1.9c.33,0,.2.44.38.44.27,0,.8-.44,1.83-.44,2.28,0,3.98,1.6,3.98,3.93v6.07Zm9.56,0c0,.16-.07.22-.22.22h-1.9c-.32,0-.18-.44-.38-.44-.27,0-.81.44-1.81.44-2.32,0-4-1.6-4-3.95v-6.05c0-.16.06-.22.22-.22h2.13c.13,0,.22.06.22.22v6.05c0,.92.67,1.61,1.58,1.61s1.61-.71,1.61-1.61v-6.05c0-.16.07-.22.22-.22h2.11c.13,0,.22.06.22.22v9.78Zm9.34-7.46l-1.83.89s-.09.03-.12.03c-.09,0-.11-.05-.18-.13-.47-.7-.71-1.28-1.63-1.28h-.64c-.81,0-1.24.29-1.24.85,0,.91,1.24.72,3.07,1.21,1.8.49,2.66,1.31,2.66,2.79,0,2.1-1.5,3.55-3.85,3.55h-.64c-1.26,0-2.22-.36-2.91-1.09-.69-.72-.96-1.35-.96-1.54,0-.07.05-.12.14-.16l1.83-.9s.06-.02.11-.02c.06,0,.11.07.18.16.44.73.73,1.27,1.61,1.27h.64c.81,0,1.3-.4,1.3-.96,0-.89-1.25-.69-3.08-1.16-1.79-.45-2.62-1.29-2.62-2.81,0-2.04,1.54-3.47,3.76-3.47h.64c1.05,0,1.88.25,2.57.76.83.61,1.32,1.57,1.32,1.83,0,.07-.04.14-.13.18Zm-32.51-.42c-.93,0-1.61.71-1.61,1.61v2.76c0,.9.68,1.62,1.61,1.62s1.59-.72,1.59-1.62v-2.76c0-.9-.69-1.61-1.59-1.61Zm-9.13.22c-.94,0-1.61.69-1.61,1.59v2.34c0,.89.69,1.61,1.61,1.61s1.58-.69,1.58-1.61v-2.34c0-.9-.67-1.59-1.58-1.59Zm0,0c-.94,0-1.61.69-1.61,1.59v2.34c0,.89.69,1.61,1.61,1.61s1.58-.69,1.58-1.61v-2.34c0-.9-.67-1.59-1.58-1.59Zm9.13-.22c-.93,0-1.61.71-1.61,1.61v2.76c0,.9.68,1.62,1.61,1.62s1.59-.72,1.59-1.62v-2.76c0-.9-.69-1.61-1.59-1.61Zm0,0c-.93,0-1.61.71-1.61,1.61v2.76c0,.9.68,1.62,1.61,1.62s1.59-.72,1.59-1.62v-2.76c0-.9-.69-1.61-1.59-1.61Zm-9.13.22c-.94,0-1.61.69-1.61,1.59v2.34c0,.89.69,1.61,1.61,1.61s1.58-.69,1.58-1.61v-2.34c0-.9-.67-1.59-1.58-1.59Zm0,0c-.94,0-1.61.69-1.61,1.59v2.34c0,.89.69,1.61,1.61,1.61s1.58-.69,1.58-1.61v-2.34c0-.9-.67-1.59-1.58-1.59Zm0,0c-.94,0-1.61.69-1.61,1.59v2.34c0,.89.69,1.61,1.61,1.61s1.58-.69,1.58-1.61v-2.34c0-.9-.67-1.59-1.58-1.59Z"/>
    </g>
  </g>
</svg>