<?xml version="1.0" encoding="UTF-8"?>
<svg id="katman_2" data-name="katman 2" xmlns="http://www.w3.org/2000/svg" viewBox="0 0 80 48.98">
  <defs>
    <style>
      .cls-1, .cls-2, .cls-3 {
        stroke-width: 0px;
      }

      .cls-2 {
        fill: #4c7883;
      }

      .cls-3 {
        fill: #ec008c;
      }
    </style>
  </defs>
  <g id="katman_1" data-name="katman 1">
    <g id="maximum">
      <path id="arka" class="cls-1" d="m76.09,30h-.8v17.12H4.71v-17.12h-1.86v18.98h74.3v-26.24c-.1.74-.5,3.45-.78,5.34-.16,1.09-.28,1.92-.28,1.92ZM2.85,7.19v22.34c.05-.35.12-.86.21-1.45.31-2.07.76-5.14.82-5.53.07-.46.36-1.2.83-1.8v-11.7h70.58v10.32c.51.13.94.34,1.18.58.38.38.53.63.68,1.22V7.19H2.85Z"/>
      <path class="cls-2" d="m22.66,24.89c-.44.04-1.1.1-1.96.42s-1.19.99-1.19,1.68c0,.39.13.8.5,1.09.23.18.56.31,1.01.34.62.04,1.21-.15,1.63-.34.36-.16.6-.32.6-.32l.44-2.95s-.6.04-1.03.08Zm0,0c-.44.04-1.1.1-1.96.42s-1.19.99-1.19,1.68c0,.39.13.8.5,1.09.23.18.56.31,1.01.34.62.04,1.21-.15,1.63-.34.36-.16.6-.32.6-.32l.44-2.95s-.6.04-1.03.08Zm0,0c-.44.04-1.1.1-1.96.42s-1.19.99-1.19,1.68c0,.39.13.8.5,1.09.23.18.56.31,1.01.34.62.04,1.21-.15,1.63-.34.36-.16.6-.32.6-.32l.44-2.95s-.6.04-1.03.08Zm0,0c-.44.04-1.1.1-1.96.42s-1.19.99-1.19,1.68c0,.39.13.8.5,1.09.23.18.56.31,1.01.34.62.04,1.21-.15,1.63-.34.36-.16.6-.32.6-.32l.44-2.95s-.6.04-1.03.08Zm0,0c-.44.04-1.1.1-1.96.42s-1.19.99-1.19,1.68c0,.39.13.8.5,1.09.23.18.56.31,1.01.34.62.04,1.21-.15,1.63-.34.36-.16.6-.32.6-.32l.44-2.95s-.6.04-1.03.08Zm0,0c-.44.04-1.1.1-1.96.42s-1.19.99-1.19,1.68c0,.39.13.8.5,1.09.23.18.56.31,1.01.34.62.04,1.21-.15,1.63-.34.36-.16.6-.32.6-.32l.44-2.95s-.6.04-1.03.08Zm0,0c-.44.04-1.1.1-1.96.42s-1.19.99-1.19,1.68c0,.39.13.8.5,1.09.23.18.56.31,1.01.34.62.04,1.21-.15,1.63-.34.36-.16.6-.32.6-.32l.44-2.95s-.6.04-1.03.08Zm0,0c-.44.04-1.1.1-1.96.42s-1.19.99-1.19,1.68c0,.39.13.8.5,1.09.23.18.56.31,1.01.34.62.04,1.21-.15,1.63-.34.36-.16.6-.32.6-.32l.44-2.95s-.6.04-1.03.08Zm0,0c-.44.04-1.1.1-1.96.42s-1.19.99-1.19,1.68c0,.39.13.8.5,1.09.23.18.56.31,1.01.34.62.04,1.21-.15,1.63-.34.36-.16.6-.32.6-.32l.44-2.95s-.6.04-1.03.08Zm0,0c-.44.04-1.1.1-1.96.42s-1.19.99-1.19,1.68c0,.39.13.8.5,1.09.23.18.56.31,1.01.34.62.04,1.21-.15,1.63-.34.36-.16.6-.32.6-.32l.44-2.95s-.6.04-1.03.08Zm0,0c-.44.04-1.1.1-1.96.42s-1.19.99-1.19,1.68c0,.39.13.8.5,1.09.23.18.56.31,1.01.34.62.04,1.21-.15,1.63-.34.36-.16.6-.32.6-.32l.44-2.95s-.6.04-1.03.08Zm0,0c-.44.04-1.1.1-1.96.42s-1.19.99-1.19,1.68c0,.39.13.8.5,1.09.23.18.56.31,1.01.34.62.04,1.21-.15,1.63-.34.36-.16.6-.32.6-.32l.44-2.95s-.6.04-1.03.08Zm0,0c-.44.04-1.1.1-1.96.42s-1.19.99-1.19,1.68c0,.39.13.8.5,1.09.23.18.56.31,1.01.34.62.04,1.21-.15,1.63-.34.36-.16.6-.32.6-.32l.44-2.95s-.6.04-1.03.08Zm0,0c-.44.04-1.1.1-1.96.42s-1.19.99-1.19,1.68c0,.39.13.8.5,1.09.23.18.56.31,1.01.34.62.04,1.21-.15,1.63-.34.36-.16.6-.32.6-.32l.44-2.95s-.6.04-1.03.08ZM0,0v45h80V0H0Zm32.93,17.1c-.23,1.1-1.06,2-1.85,2s-1.23-.9-1-2c.23-1.1,1.05-2,1.84-2s1.24.9,1.01,2Zm-16.76,12.9h-2.73s.12-.83.28-1.92c.28-1.96.69-4.74.72-4.99.06-.37.16-1.16-.1-1.51-.26-.34-.73-.43-1.09-.41-.36.03-1.1.14-1.3,1.32-.13.76-.56,3.63-.85,5.59-.16,1.1-.28,1.92-.28,1.92h-2.72s.12-.83.28-1.92c.3-2.03.73-4.99.76-5.22.05-.36.11-1.21-.37-1.51-.48-.31-1.34-.24-1.69.25-.36.48-.43.72-.55,1.46-.04.23-.16,1.02-.3,1.98-.14.96-.31,2.1-.44,3.04-.16,1.09-.28,1.92-.28,1.92h-2.66v-.47c.05-.35.12-.86.21-1.45.31-2.07.76-5.14.82-5.53.07-.46.36-1.2.83-1.8.15-.19.32-.36.5-.51.77-.61,1.74-1.03,2.91-1.03s1.87.29,2.27.51c.4.21.65.49.65.49,0,0,.33-.32.97-.58.64-.27,1.08-.43,2.11-.43s2.01.34,2.43.75c.42.42.56.67.72,1.39,0,0,.08.53-.02,1.28-.07.49-.51,3.44-.8,5.46-.16,1.09-.28,1.92-.28,1.92Zm9.4-1.36l-.69.54c-.85.62-2.03.97-3.45,1.1-1.42.12-3.25-.25-3.94-1.81-.06-.13-.11-.26-.15-.39-.46-1.49.02-3.23,1.79-4.12,1.92-.98,4.81-.92,4.81-.92,0,0,.21-.87-.26-1.3-.53-.47-1.07-.32-2.26-.12-1.19.19-2.52.76-2.52.76l.3-2.17s.81-.58,2.83-.88c2.02-.31,2.74.07,3.63.74.9.66.9,1.81.8,2.54-.09.59-.6,4.09-.8,5.47-.05.35-.09.56-.09.56Zm12.5,1.36h-1.51l1.33,1.99-2.63,2.09s-2.17-3.78-3.44-6c-.52-.89-.88-1.53-.9-1.56-.06-.11-.16-.26-.37.01-.08.1-.62.77-1.25,1.55-1.02,1.26-2.28,2.82-2.28,2.82l-.91-2.22s.17-.24.44-.6c.87-1.2,2.75-3.79,2.8-3.86.07-.1.09-.33,0-.5-.09-.17-2.02-3.47-2.12-3.65-.1-.19-.22-.55-.04-1.28.17-.73.62-.95.83-.98.2-.03.4.04.64.41.23.36,2.17,3.27,2.25,3.4.09.12.22.16.33.01.11-.15,4.05-5.59,4.24-5.85s.68-.78,1.15-.85c.46-.08.82-.02,1.14.23.33.24.61.74.55,1.27-.06.52-.34.98-.8,1.56-.46.58-4.62,5.63-4.72,5.76-.11.12-.12.31-.09.47.02.16.28.5.38.65.07.1,1.44,2.14,2.16,3.21.26.38.43.64.43.64l.09-.64,1.24-8.55h2.58l-1.24,8.55-.28,1.92Zm15.46-7.38c-.07.49-.5,3.44-.8,5.46-.16,1.09-.28,1.92-.28,1.92h-2.73s.12-.83.28-1.92c.28-1.96.69-4.74.72-4.99.06-.37.16-1.16-.1-1.51-.26-.34-.73-.43-1.09-.41-.36.03-1.1.14-1.3,1.32-.13.76-.56,3.63-.85,5.59-.16,1.1-.28,1.92-.28,1.92h-2.72s.12-.83.28-1.92c.3-2.03.73-4.99.76-5.22.05-.36.11-1.21-.37-1.51-.48-.31-1.34-.24-1.69.25-.36.48-.43.72-.55,1.46-.04.23-.16,1.02-.3,1.98s-.31,2.1-.44,3.04c-.16,1.09-.28,1.92-.28,1.92h-2.73s.12-.82.28-1.92c.31-2.07.76-5.14.82-5.53.09-.6.57-1.7,1.33-2.31.77-.61,1.74-1.03,2.91-1.03s1.87.29,2.27.51c.4.21.65.49.65.49,0,0,.33-.32.97-.58.64-.27,1.08-.43,2.11-.43s2.01.34,2.43.75c.42.42.56.67.72,1.39,0,0,.08.53-.02,1.28Zm8.27,5.46c-.21.48-.5.94-.89,1.25-.82.65-1.7.99-3.84.99s-2.97-1.28-3.1-2.12c0-.04,0-.08,0-.12-.11-.79-.02-1.56.15-2.63.18-1.12.89-5.91.89-5.91h2.72s-1.01,6.86-1.09,7.37c-.05.35-.04.82.11,1.17.08.17.19.3.34.38.48.23,1.24.19,1.56-.09.1-.09.2-.18.3-.29.2-.23.37-.56.48-1.17.17-.89,1.12-7.38,1.12-7.38h2.67s-.91,6.32-1.01,7.09c-.05.4-.18.94-.4,1.46Zm14.57,0c-.16,1.09-.28,1.92-.28,1.92h-2.73s.12-.83.28-1.92c.29-1.96.69-4.74.73-4.99.05-.37.16-1.16-.11-1.51-.26-.34-.73-.43-1.09-.41-.36.03-1.1.14-1.3,1.32-.13.76-.55,3.63-.85,5.59-.16,1.1-.28,1.92-.28,1.92h-2.72s.12-.83.28-1.92c.3-2.03.73-4.99.76-5.22.05-.36.11-1.21-.37-1.51-.48-.31-1.34-.24-1.69.25-.36.48-.43.72-.55,1.46-.04.23-.16,1.02-.3,1.98-.14.96-.31,2.1-.44,3.04-.16,1.09-.28,1.92-.28,1.92h-2.73s.12-.82.28-1.92c.31-2.07.76-5.14.82-5.53.09-.6.57-1.7,1.34-2.31.76-.61,1.73-1.03,2.91-1.03s1.86.29,2.26.51c.4.21.65.49.65.49,0,0,.33-.32.97-.58.64-.27,1.08-.43,2.12-.43.44,0,.86.06,1.24.17.51.13.94.34,1.18.58.38.38.53.63.68,1.22v1.57c-.1.74-.5,3.45-.78,5.34Zm-55.67-2.77c-.86.32-1.19.99-1.19,1.68,0,.39.13.8.5,1.09.23.18.56.31,1.01.34.62.04,1.21-.15,1.63-.34.36-.16.6-.32.6-.32l.44-2.95s-.6.04-1.03.08c-.44.04-1.1.1-1.96.42Zm1.96-.42c-.44.04-1.1.1-1.96.42s-1.19.99-1.19,1.68c0,.39.13.8.5,1.09.23.18.56.31,1.01.34.62.04,1.21-.15,1.63-.34.36-.16.6-.32.6-.32l.44-2.95s-.6.04-1.03.08Zm0,0c-.44.04-1.1.1-1.96.42s-1.19.99-1.19,1.68c0,.39.13.8.5,1.09.23.18.56.31,1.01.34.62.04,1.21-.15,1.63-.34.36-.16.6-.32.6-.32l.44-2.95s-.6.04-1.03.08Zm0,0c-.44.04-1.1.1-1.96.42s-1.19.99-1.19,1.68c0,.39.13.8.5,1.09.23.18.56.31,1.01.34.62.04,1.21-.15,1.63-.34.36-.16.6-.32.6-.32l.44-2.95s-.6.04-1.03.08Zm0,0c-.44.04-1.1.1-1.96.42s-1.19.99-1.19,1.68c0,.39.13.8.5,1.09.23.18.56.31,1.01.34.62.04,1.21-.15,1.63-.34.36-.16.6-.32.6-.32l.44-2.95s-.6.04-1.03.08Zm0,0c-.44.04-1.1.1-1.96.42s-1.19.99-1.19,1.68c0,.39.13.8.5,1.09.23.18.56.31,1.01.34.62.04,1.21-.15,1.63-.34.36-.16.6-.32.6-.32l.44-2.95s-.6.04-1.03.08Zm0,0c-.44.04-1.1.1-1.96.42s-1.19.99-1.19,1.68c0,.39.13.8.5,1.09.23.18.56.31,1.01.34.62.04,1.21-.15,1.63-.34.36-.16.6-.32.6-.32l.44-2.95s-.6.04-1.03.08Zm0,0c-.44.04-1.1.1-1.96.42s-1.19.99-1.19,1.68c0,.39.13.8.5,1.09.23.18.56.31,1.01.34.62.04,1.21-.15,1.63-.34.36-.16.6-.32.6-.32l.44-2.95s-.6.04-1.03.08Zm0,0c-.44.04-1.1.1-1.96.42s-1.19.99-1.19,1.68c0,.39.13.8.5,1.09.23.18.56.31,1.01.34.62.04,1.21-.15,1.63-.34.36-.16.6-.32.6-.32l.44-2.95s-.6.04-1.03.08Zm0,0c-.44.04-1.1.1-1.96.42s-1.19.99-1.19,1.68c0,.39.13.8.5,1.09.23.18.56.31,1.01.34.62.04,1.21-.15,1.63-.34.36-.16.6-.32.6-.32l.44-2.95s-.6.04-1.03.08Zm0,0c-.44.04-1.1.1-1.96.42s-1.19.99-1.19,1.68c0,.39.13.8.5,1.09.23.18.56.31,1.01.34.62.04,1.21-.15,1.63-.34.36-.16.6-.32.6-.32l.44-2.95s-.6.04-1.03.08Zm0,0c-.44.04-1.1.1-1.96.42s-1.19.99-1.19,1.68c0,.39.13.8.5,1.09.23.18.56.31,1.01.34.62.04,1.21-.15,1.63-.34.36-.16.6-.32.6-.32l.44-2.95s-.6.04-1.03.08Zm0,0c-.44.04-1.1.1-1.96.42s-1.19.99-1.19,1.68c0,.39.13.8.5,1.09.23.18.56.31,1.01.34.62.04,1.21-.15,1.63-.34.36-.16.6-.32.6-.32l.44-2.95s-.6.04-1.03.08Z"/>
      <g>
        <path class="cls-3" d="m2.85,29.53v.47h-.07s.03-.17.07-.47Z"/>
        <path class="cls-3" d="m77.17,22.62s-.01.07-.02.12v-1.57s.03.11.04.17c0,0,.09.53-.02,1.28Z"/>
      </g>
    </g>
  </g>
</svg>