<?xml version="1.0" encoding="UTF-8"?>
<svg id="katman_2" data-name="katman 2" xmlns="http://www.w3.org/2000/svg" viewBox="0 0 80 48.98">
  <defs>
    <style>
      .cls-1, .cls-2 {
        stroke-width: 0px;
      }

      .cls-2 {
        fill: #4c7883;
      }
    </style>
  </defs>
  <g id="katman_1" data-name="katman 1">
    <g id="paraf">
      <path id="arka" class="cls-1" d="m31.07,7.19c.75.47,1.38,1.12,1.84,1.86h42.38v38.07H4.71V9.05h17.44c.65-.73,1.36-1.36,2.15-1.86H2.85v41.79h74.3V7.19H31.07Zm-1.81,1.57c-1.12-.49-2.38-.43-3.46.16-.07.04-.14.08-.21.13h4.21c-.17-.11-.35-.21-.54-.29Z"/>
      <path class="cls-2" d="m28.19,19.85c-2.88,2.21-6.23,2.99-9.12,2.15,1.19-5.57,3.25-10.97,6.52-12.95.07-.05.14-.09.21-.13,1.08-.59,2.34-.65,3.46-.16.19.08.37.18.54.29.81.51,1.41,1.3,1.62,2.2.7,2.84-.75,6.7-3.23,8.6Z"/>
      <path class="cls-2" d="m30.59,25.61s-.04-.01-.13-.01c-.16,0-.44.04-.92.22-.43.16-.82.36-1.15.56-1.54.97-3.14,2.9-3.79,4.57-.46,1.18-.28,2.09,0,2.51.17.25.4.37.7.37.48,0,1.09-.3,1.72-.85,2.02-1.76,2.6-3.06,3.36-5.41.09-.27.24-.79.28-1.3.03-.51-.04-.64-.07-.66Zm6.66-2.26h-.04c-.09,0-.26.04-.42.18-.21.19-.26.44-.14.76.13.35.38.62.74.82.02-.12.05-.24.06-.35.14-.88.04-1.18-.2-1.41Zm15.82,2.21c-.58,0-1.64.43-2.57,1.37-1.12,1.12-2,2.46-2.49,3.77-.52,1.37-.48,2.33-.27,2.77.16.33.31.35.48.35.69,0,1.81-.69,2.5-1.36,1.42-1.4,2.39-3.18,2.8-5.17.07-.35.1-.66.1-.93-.01-.8-.3-.8-.55-.8Zm0,0c-.58,0-1.64.43-2.57,1.37-1.12,1.12-2,2.46-2.49,3.77-.52,1.37-.48,2.33-.27,2.77.16.33.31.35.48.35.69,0,1.81-.69,2.5-1.36,1.42-1.4,2.39-3.18,2.8-5.17.07-.35.1-.66.1-.93-.01-.8-.3-.8-.55-.8Zm-15.82-2.21h-.04c-.09,0-.26.04-.42.18-.21.19-.26.44-.14.76.13.35.38.62.74.82.02-.12.05-.24.06-.35.14-.88.04-1.18-.2-1.41Zm-6.66,2.26s-.04-.01-.13-.01c-.16,0-.44.04-.92.22-.43.16-.82.36-1.15.56-1.54.97-3.14,2.9-3.79,4.57-.46,1.18-.28,2.09,0,2.51.17.25.4.37.7.37.48,0,1.09-.3,1.72-.85,2.02-1.76,2.6-3.06,3.36-5.41.09-.27.24-.79.28-1.3.03-.51-.04-.64-.07-.66Zm0,0s-.04-.01-.13-.01c-.16,0-.44.04-.92.22-.43.16-.82.36-1.15.56-1.54.97-3.14,2.9-3.79,4.57-.46,1.18-.28,2.09,0,2.51.17.25.4.37.7.37.48,0,1.09-.3,1.72-.85,2.02-1.76,2.6-3.06,3.36-5.41.09-.27.24-.79.28-1.3.03-.51-.04-.64-.07-.66Zm6.66-2.26h-.04c-.09,0-.26.04-.42.18-.21.19-.26.44-.14.76.13.35.38.62.74.82.02-.12.05-.24.06-.35.14-.88.04-1.18-.2-1.41Zm15.82,2.21c-.58,0-1.64.43-2.57,1.37-1.12,1.12-2,2.46-2.49,3.77-.52,1.37-.48,2.33-.27,2.77.16.33.31.35.48.35.69,0,1.81-.69,2.5-1.36,1.42-1.4,2.39-3.18,2.8-5.17.07-.35.1-.66.1-.93-.01-.8-.3-.8-.55-.8Zm0,0c-.58,0-1.64.43-2.57,1.37-1.12,1.12-2,2.46-2.49,3.77-.52,1.37-.48,2.33-.27,2.77.16.33.31.35.48.35.69,0,1.81-.69,2.5-1.36,1.42-1.4,2.39-3.18,2.8-5.17.07-.35.1-.66.1-.93-.01-.8-.3-.8-.55-.8Zm-15.86-2.21c-.09,0-.26.04-.42.18-.21.19-.26.44-.14.76.13.35.38.62.74.82.02-.12.05-.24.06-.35.14-.88.04-1.18-.2-1.41h-.04Zm-6.75,2.25c-.16,0-.44.04-.92.22-.43.16-.82.36-1.15.56-1.54.97-3.14,2.9-3.79,4.57-.46,1.18-.28,2.09,0,2.51.17.25.4.37.7.37.48,0,1.09-.3,1.72-.85,2.02-1.76,2.6-3.06,3.36-5.41.09-.27.24-.79.28-1.3.03-.51-.04-.64-.07-.66,0,0-.04-.01-.13-.01ZM0,0v45h80V0H0Zm18.63,24.22c-.53,3.06-.83,6.04-.94,8.41v.14c-.05.78-.12,2.34-.1,4.14l-2.23,1.4c-.09-2.43.01-4.66.06-5.64v-.15c.07-1.39.31-5.01,1.06-9.15-2.53-1.34-4.39-3.71-5.33-6.74l2-1.26c.64,2.51,1.94,4.46,3.8,5.66.98-4.42,2.59-9.04,5.2-11.98.65-.73,1.36-1.36,2.15-1.86.13-.08.26-.16.4-.24,1.7-.94,3.69-1.04,5.47-.26.32.14.62.3.9.5.75.47,1.38,1.12,1.84,1.86.33.51.56,1.08.71,1.67.92,3.74-.82,8.44-4.05,10.93-3.4,2.6-7.4,3.52-10.94,2.57Zm47.74-9.1c-.25-.71-.62-.84-1.09-.82-1.33.04-2.17,2.74-2.53,3.9-1.14,3.68-1.87,7.67-2.2,12.02,1.88-1.1,3.56-1.68,5.06-1.76l-.93,2.34c-1.24.31-2.67,1.01-4.29,2.11-.1,2.72-.05,5.58.13,8.58l-2.11,1.32c-.21-2.89-.3-5.66-.25-8.31-.75.49-1.54.88-2.32.88-.29,0-.58-.05-.87-.18-1.21-.55-1.4-2.01-1.46-2.64-.38.52-.8,1.01-1.26,1.46-.21.2-2.09,1.99-4.03,1.99-.96,0-1.75-.44-2.26-1.25-1.9,1.23-3.47,1.36-4.68.38-1.96-1.59-.92-4.26-.08-6.41.17-.44.36-.92.51-1.37-.81.19-1.66.3-2.22.31-.18,0-.36,0-.53-.01-1.03,3.12-3.05,7.08-5.4,8.31-.28.15-.57.22-.86.22-.31,0-.6-.09-.87-.26-.73-.47-1.14-1.53-1.28-3.54-.53.75-1.19,1.46-2.09,2.24-1.04.91-2.14,1.39-3.16,1.39s-1.93-.48-2.51-1.32c-.79-1.17-.88-2.86-.23-4.54.83-2.13,2.71-4.39,4.67-5.63.44-.28.97-.53,1.52-.75.64-.25,1.2-.37,1.71-.37.9,0,1.44.39,1.74.72.67.71.69,1.63.64,2.28,0,.12-.01.36-.03.69-.25,4.28-.06,5.99.13,6.68,1.44-1.09,2.97-4,3.85-6.53-1.28-.51-1.9-1.41-2.2-2.2-.48-1.31-.04-2.68,1.1-3.42,1.04-.67,2.31-.61,3.1.16,1.17,1.15.93,2.67.83,3.32-.02.12-.04.24-.07.37.91-.04,2.45-.38,2.93-.66.3-.18.67-.2.99-.06.32.14.55.43.63.77.25,1.15-.29,2.53-.86,3.99-.61,1.56-1.3,3.34-.58,3.92.15.12.6.49,2.19-.58.13-.09.34-.24.56-.41.03-.77.21-1.62.55-2.52.6-1.59,1.65-3.2,2.98-4.54,1.24-1.25,2.82-2.02,4.13-2.02,1.64,0,2.71,1.16,2.74,2.96h0c0,.45-.03,1.2-.06,2.08-.06,1.41-.12,3.18-.07,3.86.05.58.16.84.21.92.46-.03,1.6-.88,2.1-1.26.1-.07.18-.13.27-.19.27-5.18,1.07-9.88,2.4-14.19.54-1.74,1.65-5.35,4.54-5.44,1.52-.05,2.71.78,3.24,2.29.75,2.17.12,5.64-.96,7.83l-1.67-1.62c.61-1.62,1.06-4.05.56-5.49Zm2.48,20.72h-2.24v-2.23h2.24v2.23Zm-15.78-10.28c-.58,0-1.64.43-2.57,1.37-1.12,1.12-2,2.46-2.49,3.77-.52,1.37-.48,2.33-.27,2.77.16.33.31.35.48.35.69,0,1.81-.69,2.5-1.36,1.42-1.4,2.39-3.18,2.8-5.17.07-.35.1-.66.1-.93-.01-.8-.3-.8-.55-.8Zm-15.86-2.21c-.09,0-.26.04-.42.18-.21.19-.26.44-.14.76.13.35.38.62.74.82.02-.12.05-.24.06-.35.14-.88.04-1.18-.2-1.41h-.04Zm-6.75,2.25c-.16,0-.44.04-.92.22-.43.16-.82.36-1.15.56-1.54.97-3.14,2.9-3.79,4.57-.46,1.18-.28,2.09,0,2.51.17.25.4.37.7.37.48,0,1.09-.3,1.72-.85,2.02-1.76,2.6-3.06,3.36-5.41.09-.27.24-.79.28-1.3.03-.51-.04-.64-.07-.66,0,0-.04-.01-.13-.01Zm.13.01s-.04-.01-.13-.01c-.16,0-.44.04-.92.22-.43.16-.82.36-1.15.56-1.54.97-3.14,2.9-3.79,4.57-.46,1.18-.28,2.09,0,2.51.17.25.4.37.7.37.48,0,1.09-.3,1.72-.85,2.02-1.76,2.6-3.06,3.36-5.41.09-.27.24-.79.28-1.3.03-.51-.04-.64-.07-.66Zm6.66-2.26h-.04c-.09,0-.26.04-.42.18-.21.19-.26.44-.14.76.13.35.38.62.74.82.02-.12.05-.24.06-.35.14-.88.04-1.18-.2-1.41Zm15.82,2.21c-.58,0-1.64.43-2.57,1.37-1.12,1.12-2,2.46-2.49,3.77-.52,1.37-.48,2.33-.27,2.77.16.33.31.35.48.35.69,0,1.81-.69,2.5-1.36,1.42-1.4,2.39-3.18,2.8-5.17.07-.35.1-.66.1-.93-.01-.8-.3-.8-.55-.8Zm0,0c-.58,0-1.64.43-2.57,1.37-1.12,1.12-2,2.46-2.49,3.77-.52,1.37-.48,2.33-.27,2.77.16.33.31.35.48.35.69,0,1.81-.69,2.5-1.36,1.42-1.4,2.39-3.18,2.8-5.17.07-.35.1-.66.1-.93-.01-.8-.3-.8-.55-.8Zm-15.82-2.21h-.04c-.09,0-.26.04-.42.18-.21.19-.26.44-.14.76.13.35.38.62.74.82.02-.12.05-.24.06-.35.14-.88.04-1.18-.2-1.41Zm-6.66,2.26s-.04-.01-.13-.01c-.16,0-.44.04-.92.22-.43.16-.82.36-1.15.56-1.54.97-3.14,2.9-3.79,4.57-.46,1.18-.28,2.09,0,2.51.17.25.4.37.7.37.48,0,1.09-.3,1.72-.85,2.02-1.76,2.6-3.06,3.36-5.41.09-.27.24-.79.28-1.3.03-.51-.04-.64-.07-.66Z"/>
    </g>
  </g>
</svg>