<?xml version="1.0" encoding="UTF-8"?>
<svg id="katman_2" data-name="katman 2" xmlns="http://www.w3.org/2000/svg" viewBox="0 0 80 48.98">
  <defs>
    <style>
      .cls-1, .cls-2, .cls-3 {
        stroke-width: 0px;
      }

      .cls-2, .cls-3 {
        fill: #4c7883;
      }

      .cls-3 {
        fill-rule: evenodd;
      }
    </style>
  </defs>
  <g id="katman_1" data-name="katman 1">
    <g id="paypal">
      <path id="arka" class="cls-1" d="m77.04,18.1s.08,0,.11.03V7.19H2.85v41.79h74.3v-29.81l-1.55,9.84c-.04.15-.16.25-.31.26v17.85H4.71v-17.25h-.36c-.34,0-.46-.26-.37-.83l.73-4.64v-15.35h70.58v9.05h1.75Z"/>
      <path class="cls-2" d="m32.23,21.47c-.06,1.19-.69,1.85-1.64,1.89h-1.52l.49-3.13h1.43c.78-.01,1.28.51,1.24,1.24Z"/>
      <path class="cls-2" d="m39.41,23.58c-1.1,0-2.13.88-2.29,1.95-.16,1.08.61,1.96,1.71,1.96s2.13-.88,2.29-1.96c.16-1.07-.61-1.95-1.71-1.95Zm0,0c-1.1,0-2.13.88-2.29,1.95-.16,1.08.61,1.96,1.71,1.96s2.13-.88,2.29-1.96c.16-1.07-.61-1.95-1.71-1.95Zm0,0c-1.1,0-2.13.88-2.29,1.95-.16,1.08.61,1.96,1.71,1.96s2.13-.88,2.29-1.96c.16-1.07-.61-1.95-1.71-1.95Zm20.38-3.36h-1.43s-.49,3.14-.49,3.14h1.52c.95-.04,1.58-.7,1.64-1.89.04-.73-.46-1.25-1.24-1.25Zm8.42,3.36c-1.1,0-2.13.88-2.29,1.95-.16,1.08.61,1.96,1.71,1.96s2.13-.88,2.29-1.96c.16-1.07-.61-1.95-1.71-1.95Zm0,0c-1.1,0-2.13.88-2.29,1.95-.16,1.08.61,1.96,1.71,1.96s2.13-.88,2.29-1.96c.16-1.07-.61-1.95-1.71-1.95Zm-8.42-3.36h-1.43s-.49,3.14-.49,3.14h1.52c.95-.04,1.58-.7,1.64-1.89.04-.73-.46-1.25-1.24-1.25Zm-20.38,3.36c-1.1,0-2.13.88-2.29,1.95-.16,1.08.61,1.96,1.71,1.96s2.13-.88,2.29-1.96c.16-1.07-.61-1.95-1.71-1.95Zm0,0c-1.1,0-2.13.88-2.29,1.95-.16,1.08.61,1.96,1.71,1.96s2.13-.88,2.29-1.96c.16-1.07-.61-1.95-1.71-1.95Zm20.38-3.36h-1.43s-.49,3.14-.49,3.14h1.52c.95-.04,1.58-.7,1.64-1.89.04-.73-.46-1.25-1.24-1.25Zm8.42,3.36c-1.1,0-2.13.88-2.29,1.95-.16,1.08.61,1.96,1.71,1.96s2.13-.88,2.29-1.96c.16-1.07-.61-1.95-1.71-1.95Zm0,0c-1.1,0-2.13.88-2.29,1.95-.16,1.08.61,1.96,1.71,1.96s2.13-.88,2.29-1.96c.16-1.07-.61-1.95-1.71-1.95Zm-8.42-3.36h-1.43s-.49,3.14-.49,3.14h1.52c.95-.04,1.58-.7,1.64-1.89.04-.73-.46-1.25-1.24-1.25Zm-20.38,3.36c-1.1,0-2.13.88-2.29,1.95-.16,1.08.61,1.96,1.71,1.96s2.13-.88,2.29-1.96c.16-1.07-.61-1.95-1.71-1.95Zm-22.02-4.92c-.24-.11-.51-.19-.81-.26-.06,0-.13-.02-.2-.03-.11-.02-.23-.04-.36-.05-.03,0-.07-.01-.11-.01-.17-.01-.36-.02-.55-.02h-5.01c-.53,0-.8.23-.87.72l-.88,5.54-.02.19c.09-.37.23-.58.42-.69.02-.02.05-.03.08-.04.04-.02.08-.03.12-.04.04-.01.08-.01.12-.01h2.57c.17,0,.33,0,.5-.03.15-.01.3-.03.45-.06.34-.05.67-.14.98-.26.13-.05.26-.1.39-.17.02-.01.05-.02.08-.03.14-.07.28-.14.41-.23.14-.08.27-.17.4-.27.15-.11.29-.23.43-.36.24-.22.46-.47.66-.75.61-.82,1.03-1.87,1.22-3.13,0,0,0-.01-.02-.01Zm22.02,4.92c-1.1,0-2.13.88-2.29,1.95-.16,1.08.61,1.96,1.71,1.96s2.13-.88,2.29-1.96c.16-1.07-.61-1.95-1.71-1.95Zm20.38-3.36h-1.43s-.49,3.14-.49,3.14h1.52c.95-.04,1.58-.7,1.64-1.89.04-.73-.46-1.25-1.24-1.25Zm8.42,3.36c-1.1,0-2.13.88-2.29,1.95-.16,1.08.61,1.96,1.71,1.96s2.13-.88,2.29-1.96c.16-1.07-.61-1.95-1.71-1.95Zm0,0c-1.1,0-2.13.88-2.29,1.95-.16,1.08.61,1.96,1.71,1.96s2.13-.88,2.29-1.96c.16-1.07-.61-1.95-1.71-1.95Zm-8.42-3.36h-1.43s-.49,3.14-.49,3.14h1.52c.95-.04,1.58-.7,1.64-1.89.04-.73-.46-1.25-1.24-1.25Zm-20.38,3.36c-1.1,0-2.13.88-2.29,1.95-.16,1.08.61,1.96,1.71,1.96s2.13-.88,2.29-1.96c.16-1.07-.61-1.95-1.71-1.95Zm-22.02-4.92c-.24-.11-.51-.19-.81-.26-.06,0-.13-.02-.2-.03-.11-.02-.23-.04-.36-.05-.03,0-.07-.01-.11-.01-.17-.01-.36-.02-.55-.02h-5.01c-.53,0-.8.23-.87.72l-.88,5.54-.02.19c.09-.37.23-.58.42-.69.02-.02.05-.03.08-.04.04-.02.08-.03.12-.04.04-.01.08-.01.12-.01h2.57c.17,0,.33,0,.5-.03.15-.01.3-.03.45-.06.34-.05.67-.14.98-.26.13-.05.26-.1.39-.17.02-.01.05-.02.08-.03.14-.07.28-.14.41-.23.14-.08.27-.17.4-.27.15-.11.29-.23.43-.36.24-.22.46-.47.66-.75.61-.82,1.03-1.87,1.22-3.13,0,0,0-.01-.02-.01ZM0,0v45h80V0H0Zm18.91,21.65c-.26,3.31-2.26,5.13-4.91,5.13h-1.33c-.37,0-.61.24-.71.9l-.57,3.79c-.04.24-.17.38-.36.4h-3.15c-.29,0-.4-.22-.32-.71l.28-1.74c-.06.27-.18.43-.39.45h-3.1c-.34,0-.46-.26-.37-.83l.73-4.64,1.49-9.46c.09-.56.41-.83,1.02-.83h5.01c1.41,0,3.09.04,4.21,1.03.75.66,1.14,1.71,1.05,2.85-.02.23-.04.46-.08.68,1.16.54,1.6,1.61,1.5,2.98Zm12.22,3.84h-2c-.29,0-.43.24-.51.72l-.38,2.47c-.06.37-.25.55-.54.55h-1.86c-.3,0-.4-.19-.34-.61l1.54-9.89c.08-.49.26-.67.59-.67h4.48c1.69,0,3.25.92,3.03,3.21-.26,2.71-1.71,4.22-4.01,4.22Zm12.8-3.19l-1.03,6.41c-.07.43-.2.55-.48.55h-1.66c-.22,0-.32-.13-.28-.37l.06-.46c.02-.19-.15-.11-.32.05-.66.61-1.25,1-2.57,1-1.82,0-3.2-1.52-3.06-3.44.19-2.49,1.91-4.43,4.47-4.48,1.1-.03,1.89.3,2.2,1.03.09.21.18.17.22-.03l.06-.4c.05-.25.13-.34.29-.34h1.82c.25,0,.33.16.28.48Zm3.88,9.29c-.12.19-.34.3-.57.27h-1.89c-.24,0-.37-.22-.2-.46l2.05-2.91-2.09-6.12c-.11-.31.03-.57.38-.57h1.68c.32,0,.5.13.57.36l1.19,3.89,2.68-3.88c.18-.25.3-.37.61-.37h1.79c.32,0,.41.29.22.58l-6.42,9.21Zm12.12-6.1h-2c-.29,0-.43.24-.5.72l-.39,2.47c-.06.37-.25.55-.53.55h-1.87c-.3,0-.4-.19-.34-.61l1.55-9.89c.07-.49.26-.67.59-.67h4.47c1.69,0,3.25.92,3.03,3.21-.26,2.71-1.71,4.22-4.01,4.22Zm12.8-3.19l-1.03,6.41c-.06.43-.2.55-.48.55h-1.66c-.22,0-.31-.13-.28-.37l.06-.46c.02-.19-.14-.11-.31.05-.67.61-1.26,1-2.58,1-1.82,0-3.2-1.52-3.05-3.44.18-2.49,1.91-4.43,4.46-4.48,1.1-.03,1.89.3,2.2,1.03.09.21.18.17.22-.03l.07-.4c.04-.25.12-.34.28-.34h1.82c.25,0,.33.16.28.48Zm2.87,6.71c-.04.15-.16.25-.31.26h-1.93c-.12,0-.23-.09-.23-.22v-.04l1.68-10.66c.03-.14.17-.25.32-.25h1.91s.08,0,.11.03v1.04l-1.55,9.84Zm-7.39-5.43c-1.1,0-2.13.88-2.29,1.95-.16,1.08.61,1.96,1.71,1.96s2.13-.88,2.29-1.96c.16-1.07-.61-1.95-1.71-1.95Zm-8.42-3.36h-1.43s-.49,3.14-.49,3.14h1.52c.95-.04,1.58-.7,1.64-1.89.04-.73-.46-1.25-1.24-1.25Zm-20.38,3.36c-1.1,0-2.13.88-2.29,1.95-.16,1.08.61,1.96,1.71,1.96s2.13-.88,2.29-1.96c.16-1.07-.61-1.95-1.71-1.95Zm-22.83-5.18c-.06,0-.13-.02-.2-.03-.11-.02-.23-.04-.36-.05-.03,0-.07-.01-.11-.01-.17-.01-.36-.02-.55-.02h-5.01c-.53,0-.8.23-.87.72l-.88,5.54-.02.19c.09-.37.23-.58.42-.69.02-.02.05-.03.08-.04.04-.02.08-.03.12-.04.04-.01.08-.01.12-.01h2.57c.17,0,.33,0,.5-.03.15-.01.3-.03.45-.06.34-.05.67-.14.98-.26.13-.05.26-.1.39-.17.02-.01.05-.02.08-.03.14-.07.28-.14.41-.23.14-.08.27-.17.4-.27.15-.11.29-.23.43-.36.24-.22.46-.47.66-.75.61-.82,1.03-1.87,1.22-3.13,0,0,0-.01-.02-.01-.24-.11-.51-.19-.81-.26Zm-7.98,6.15s.01-.01.01-.02l.87-5.52-.88,5.54Zm30.81-.97c-1.1,0-2.13.88-2.29,1.95-.16,1.08.61,1.96,1.71,1.96s2.13-.88,2.29-1.96c.16-1.07-.61-1.95-1.71-1.95Zm20.38-3.36h-1.43s-.49,3.14-.49,3.14h1.52c.95-.04,1.58-.7,1.64-1.89.04-.73-.46-1.25-1.24-1.25Zm8.42,3.36c-1.1,0-2.13.88-2.29,1.95-.16,1.08.61,1.96,1.71,1.96s2.13-.88,2.29-1.96c.16-1.07-.61-1.95-1.71-1.95Zm0,0c-1.1,0-2.13.88-2.29,1.95-.16,1.08.61,1.96,1.71,1.96s2.13-.88,2.29-1.96c.16-1.07-.61-1.95-1.71-1.95Zm-8.42-3.36h-1.43s-.49,3.14-.49,3.14h1.52c.95-.04,1.58-.7,1.64-1.89.04-.73-.46-1.25-1.24-1.25Zm-20.38,3.36c-1.1,0-2.13.88-2.29,1.95-.16,1.08.61,1.96,1.71,1.96s2.13-.88,2.29-1.96c.16-1.07-.61-1.95-1.71-1.95Zm0,0c-1.1,0-2.13.88-2.29,1.95-.16,1.08.61,1.96,1.71,1.96s2.13-.88,2.29-1.96c.16-1.07-.61-1.95-1.71-1.95Zm20.38-3.36h-1.43s-.49,3.14-.49,3.14h1.52c.95-.04,1.58-.7,1.64-1.89.04-.73-.46-1.25-1.24-1.25Zm8.42,3.36c-1.1,0-2.13.88-2.29,1.95-.16,1.08.61,1.96,1.71,1.96s2.13-.88,2.29-1.96c.16-1.07-.61-1.95-1.71-1.95Zm0,0c-1.1,0-2.13.88-2.29,1.95-.16,1.08.61,1.96,1.71,1.96s2.13-.88,2.29-1.96c.16-1.07-.61-1.95-1.71-1.95Zm-8.42-3.36h-1.43s-.49,3.14-.49,3.14h1.52c.95-.04,1.58-.7,1.64-1.89.04-.73-.46-1.25-1.24-1.25Zm-20.38,3.36c-1.1,0-2.13.88-2.29,1.95-.16,1.08.61,1.96,1.71,1.96s2.13-.88,2.29-1.96c.16-1.07-.61-1.95-1.71-1.95Zm0,0c-1.1,0-2.13.88-2.29,1.95-.16,1.08.61,1.96,1.71,1.96s2.13-.88,2.29-1.96c.16-1.07-.61-1.95-1.71-1.95Zm20.38-3.36h-1.43s-.49,3.14-.49,3.14h1.52c.95-.04,1.58-.7,1.64-1.89.04-.73-.46-1.25-1.24-1.25Zm0,0h-1.43s-.49,3.14-.49,3.14h1.52c.95-.04,1.58-.7,1.64-1.89.04-.73-.46-1.25-1.24-1.25Zm-20.38,3.36c-1.1,0-2.13.88-2.29,1.95-.16,1.08.61,1.96,1.71,1.96s2.13-.88,2.29-1.96c.16-1.07-.61-1.95-1.71-1.95Zm0,0c-1.1,0-2.13.88-2.29,1.95-.16,1.08.61,1.96,1.71,1.96s2.13-.88,2.29-1.96c.16-1.07-.61-1.95-1.71-1.95Zm0,0c-1.1,0-2.13.88-2.29,1.95-.16,1.08.61,1.96,1.71,1.96s2.13-.88,2.29-1.96c.16-1.07-.61-1.95-1.71-1.95Z"/>
      <g>
        <path class="cls-3" d="m17.41,18.67c-.25,1.68-.92,2.99-1.88,3.88-.14.13-.28.25-.43.36-.13.1-.26.19-.4.27-.13.09-.27.16-.41.23-.03.01-.06.02-.08.03-.13.07-.26.12-.39.17-.31.12-.64.21-.98.26-.15.03-.3.05-.45.06-.17.02-.33.03-.5.03h-2.57s-.08,0-.12.01c-.04.01-.08.02-.12.04-.03,0-.06.02-.08.04-.19.11-.33.32-.42.69l.02-.19s.01-.01.01-.02l.87-5.52c.07-.49.34-.72.87-.72h5.01c.19,0,.38.01.55.02.04,0,.08.01.11.01.13,0,.25.03.36.05.07.01.14.02.2.03.3.07.57.15.81.26.01,0,.01.01.02.01Z"/>
        <path class="cls-3" d="m77.15,18.13v1.04l.13-.82v-.04c-.01-.08-.06-.15-.13-.18Z"/>
        <path class="cls-3" d="m17.41,18.67c-.25,1.68-.92,2.99-1.88,3.88-.14.13-.28.25-.43.36-.13.1-.26.19-.4.27-.13.09-.27.16-.41.23-.03.01-.06.02-.08.03-.13.07-.26.12-.39.17-.31.12-.64.21-.98.26-.15.03-.3.05-.45.06-.17.02-.33.03-.5.03h-2.57s-.08,0-.12.01c-.04.01-.08.02-.12.04-.03,0-.06.02-.08.04-.19.11-.33.32-.42.69l.02-.19.88-5.54c.07-.49.34-.72.87-.72h5.01c.19,0,.38.01.55.02.04,0,.08.01.11.01.13,0,.25.03.36.05.07.01.14.02.2.03.3.07.57.15.81.26.01,0,.01.01.02.01Z"/>
        <path class="cls-3" d="m17.39,18.66c-.25,1.68-.91,2.99-1.86,3.89-.14.13-.28.25-.43.36-.13.1-.26.19-.4.27-.13.09-.27.16-.41.23-.03.01-.06.02-.08.03-.13.07-.26.12-.39.17-.32.12-.64.2-.98.26-.15.03-.3.05-.45.06-.17.02-.33.03-.5.03h-2.57s-.08,0-.12.01c-.04.01-.08.02-.12.04-.03,0-.06,0-.08.04-.17.07-.3.23-.39.48,0,.01-.01.01-.01.02l.88-5.54c.07-.49.34-.72.87-.72h5.01c.19,0,.38.01.55.02.04,0,.08.01.11.01.13,0,.25.03.36.05.07.01.14.02.2.03.3.07.57.15.81.26Z"/>
      </g>
    </g>
  </g>
</svg>