<?xml version="1.0" encoding="utf-8"?>
<!-- Generator: Adobe Illustrator 27.9.0, SVG Export Plug-In . SVG Version: 6.00 Build 0)  -->
<svg version="1.1" id="katman_1" xmlns="http://www.w3.org/2000/svg" xmlns:xlink="http://www.w3.org/1999/xlink" x="0px" y="0px"
	 viewBox="0 0 1920 1080" style="enable-background:new 0 0 1920 1080;" xml:space="preserve">
<style type="text/css">
	.st0{display:none;}
	.st1{fill:#4C7886;}
	.st2{display:none;fill:#FF0000;}
	.st3{display:none;fill:#00FF00;}
</style>
<path id="arka" class="st0" d="M922.85,524.69v41.79h74.3v-41.79H922.85z M995.29,564.62h-70.58v-38.08h70.58V564.62z"/>
<path d="M922.85,524.69v41.79h74.3v-41.79H922.85z M995.29,564.62h-70.58v-34.65c-0.17-0.05-0.35-0.09-0.52-0.13l0.07-0.44h0.45
	v-2.85h70.58v21.77l0.52,2.36h-0.52V564.62z"/>
<path class="st1" d="M987.44,536.99l-0.39-1.84c-0.29,0.78-0.77,2.02-0.77,2.03l-2.32,5.95h4.83L987.44,536.99z M987.44,536.99
	l-0.39-1.84c-0.29,0.78-0.77,2.02-0.77,2.03l-2.32,5.95h4.83L987.44,536.99z M920,517.5v45h80v-45H920z M935.43,550.65l-5.01-17.98
	c-0.08-0.3-0.27-0.55-0.53-0.72c-1.65-0.85-3.39-1.51-5.18-1.98c-0.17-0.05-0.35-0.09-0.52-0.13l0.07-0.44h9.35
	c1.26,0.05,2.28,0.44,2.63,1.8l2.04,9.76l0.6,2.95l5.67-14.5h6.15l-9.13,21.24H935.43z M955.19,550.51h-5.8l3.63-21.28h5.8
	L955.19,550.51z M965.38,550.98c-2.59-0.05-5.1-0.54-6.5-1.13l0.82-4.76l0.71,0.33c1.92,0.8,3.17,1.12,5.46,1.12
	c1.67,0,3.46-0.65,3.47-2.07c0.01-0.94-0.75-1.59-3.01-2.64c-2.2-1.02-5.11-2.73-5.07-5.78c0.02-4.14,4.07-7.03,9.8-7.03
	c1.77-0.01,3.53,0.3,5.2,0.9l0.14-0.03l-0.82,4.61l-0.53-0.24c-1.38-0.58-2.86-0.86-4.35-0.82c-2.24,0-3.31,0.95-3.31,1.83
	c0,1,1.25,1.66,3.27,2.64c3.31,1.52,4.89,3.36,4.84,5.79C975.45,548.11,971.47,550.98,965.38,550.98z M990.44,550.68
	c0,0-0.53-2.44-0.71-3.19l-7.43-0.01l-1.22,3.2h-6.09l8.61-19.5c0.61-1.39,1.65-1.77,3.05-1.77h4.47l4.17,18.91l0.52,2.36H990.44z
	 M987.05,535.15c-0.29,0.78-0.77,2.02-0.77,2.03l-2.32,5.95h4.83l-1.35-6.14L987.05,535.15z M987.44,536.99l-0.39-1.84
	c-0.29,0.78-0.77,2.02-0.77,2.03l-2.32,5.95h4.83L987.44,536.99z M987.44,536.99l-0.39-1.84c-0.29,0.78-0.77,2.02-0.77,2.03
	l-2.32,5.95h4.83L987.44,536.99z"/>
<rect x="920" y="517.5" class="st2" width="80" height="45"/>
<path class="st3" d="M960,526.76c-0.22,0.17-0.43,0.34-0.64,0.52c-3.56,3.1-5.8,7.65-5.8,12.71s2.24,9.61,5.78,12.7l0.02,0.02
	c0.2,0.18,0.42,0.36,0.64,0.53c0.22-0.17,0.43-0.35,0.64-0.53c3.56-3.1,5.8-7.65,5.8-12.71s-2.24-9.61-5.78-12.7l-0.02-0.02
	C960.43,527.11,960.21,526.93,960,526.76L960,526.76z M970.41,523.15c-0.01,0-0.02,0-0.03,0c-3.46,0-6.68,1.05-9.35,2.85l0.06-0.04
	c0.14,0.11,0.26,0.22,0.37,0.34l0,0c3.85,3.34,6.27,8.24,6.27,13.71c0,5.45-2.41,10.34-6.22,13.67l-0.02,0.02
	c-0.13,0.11-0.27,0.22-0.41,0.33c2.62,1.77,5.86,2.82,9.33,2.82c9.31,0,16.85-7.54,16.85-16.85S979.72,523.15,970.41,523.15
	L970.41,523.15L970.41,523.15z M958.5,553.7c0.13,0.11,0.27,0.22,0.41,0.33c-2.62,1.76-5.85,2.82-9.33,2.82
	c-9.31,0-16.85-7.54-16.85-16.85s7.54-16.85,16.85-16.85c3.47,0,6.7,1.05,9.38,2.85l-0.06-0.04c-0.14,0.11-0.26,0.22-0.37,0.34l0,0
	c-3.85,3.34-6.27,8.24-6.27,13.71c0,5.45,2.41,10.34,6.22,13.67L958.5,553.7L958.5,553.7z"/>
<path class="st0" d="M1888.11,450.7h-693.33c-29.44,0-53.33-23.89-53.33-53.33V-29.3c0-29.44,23.89-53.33,53.33-53.33h693.33
	c29.44,0,53.33,23.89,53.33,53.33v426.67C1941.44,426.81,1917.56,450.7,1888.11,450.7z M1695.02,110.24
	c-1.56-0.04-3.36-0.09-5.18-0.09c-4.73,0-9.42,0.22-14.04,0.62l0.6-0.04c-0.22,0.67,12.04,44.36,23.69,85.11l1.42,4.98
	c24.76,86.58,24.76,86.58,20.82,94.98c-3.4,6.96-8.71,12.56-15.24,16.2l-0.18,0.09l-5.13,2.58l-22.09,0.42
	c-21.33,0.44-22.18,0.53-24.89,2.47c-5.07,3.64-7,9.44-10.87,32.6c-2,12.22-3.56,21.82-3.56,22.36c3.29,0.69,7.07,1.09,10.93,1.09
	c1.87,0,3.71-0.09,5.53-0.27l-0.22,0.02c4.76,0,10.67,0,18.04-0.13c3.78,0.36,8.16,0.56,12.58,0.56c10.76,0,21.24-1.2,31.31-3.49
	l-0.96,0.18c23.82-6.96,43.51-21.67,56.67-41.16l0.22-0.36c4.38-6.36,116.82-216.27,116.82-218.09c-3.71-0.53-7.98-0.84-12.33-0.84
	c-2,0-3.96,0.07-5.93,0.2l0.27-0.02h-13.2l-31.11,0.24l-5.91,2.93c-3.31,1.58-6.16,3.62-8.56,6.09
	c-1.49,1.78-11.73,24.18-24.89,54.33c-7.64,19.71-15.36,36.04-24.07,51.78l1.09-2.13c-0.49-1.02-4.84-28.13-8.4-50.71
	c-4.16-27.07-8.13-50.44-8.89-52.13c-1.44-3.73-4.24-6.67-7.76-8.27l-0.09-0.04c-3.36-1.78-4.96-1.78-34.2-2.11h-12.29
	L1695.02,110.24z M1611.24,113.15c-0.96,0-1.16,0.6-1.38,1.58c-0.6,2.73-9.29,52.31-9.29,53.02c0.93,1.04,2.04,1.93,3.29,2.6
	l0.07,0.02c9.11,6.24,15.33,16.11,16.58,27.49l0.02,0.18c0.07,0.89,0.11,1.93,0.11,2.98c0,17.49-11.96,32.18-28.13,36.38l-0.27,0.07
	c-3.02,0.71-4.22,1.49-4.51,2.91c-0.78,3.73-9.29,52.38-9.29,53.11c0,0.13,0.51,0.33,3.98,0.33c1.56,0,3.56,0,5.56-0.16
	c43.51-2.44,78.89-34.33,86.67-75.93l0.09-0.58c0.58-4.44,0.91-9.58,0.91-14.78c0-7.13-0.62-14.13-1.82-20.93l0.11,0.71
	c-6.47-30-26.82-54.2-53.84-65.87l-0.6-0.22c-2.4-1.24-5.16-2.24-8.09-2.87l-0.22-0.04L1611.24,113.15z M1234.22,110.13
	c-3.71,0-13.4,0-13.6,0.18c-0.2,0.18-0.56,2.89-1.29,7.11l-3.04,16.84c-2.31,13.07-3.98,23.87-3.71,24.04
	c0.27,0.18,7.11,0.27,13.8,0.27h13.24l-0.27,2.02c0,0.58-0.82,4.69-1.89,10.87l-4.11,23.51c-3.82,13.67-6.02,29.38-6.02,45.58
	c0,3.47,0.11,6.89,0.29,10.31l-0.02-0.47c4.04,24.04,24.76,39.24,58.31,42.78c4.4,0.47,10.36,0.69,15.58,0.69
	c0.84,0.07,1.8,0.09,2.78,0.09c3.07,0,6.07-0.36,8.96-1.02l-0.27,0.04c0.49-0.6,9.18-48.49,9.29-51.24c0-1.16-1.53-1.51-8.58-1.96
	c-17.29-0.96-25.02-6.6-25.02-18.29c0-3.56,8.16-52.91,10.16-61.4c0.29-1.31,0.71-1.67,9.62-1.67h13.47
	c1.18,0.07,2.58,0.09,3.98,0.09c3.87,0,7.64-0.27,11.38-0.76l-0.42,0.04c0.56-0.93,8.4-44.44,8.4-46.64c0-0.82-4.4-1.04-18.82-1.04
	h-18.8l2.38-13.53c4.33-23.62,3.31-29.33-6.18-33.93c-4.76-2.38-5.13-2.38-25.6-2.73l-21.18-0.27l-0.53,2.47
	c-0.27,1.42-2.13,11.67-4.07,22.89s-3.8,21.33-4.07,22.71l-0.53,2.49L1234.22,110.13z M1367.56,109.95l-0.56,2.47
	c-0.89,4.13-31.44,178.09-31.44,178.96c6.53,0.58,14.16,0.93,21.84,0.93c3,0,6-0.04,8.98-0.16l-0.42,0.02h30.42l0.89-4.67
	c0.56-2.47,3.56-19.36,6.71-37.47c3.11-17.78,6.6-35.56,7.6-38.89c5.29-19.27,19.82-34.24,38.38-40.11l0.4-0.11
	c4.44-1.36,9.56-2.13,14.84-2.13c1.24,0,2.47,0.04,3.67,0.13h-0.16c11.09,0,11.78-0.11,12.11-1.78c1-4.33,10.04-57.11,9.89-57.62
	c-1.47-0.47-3.13-0.76-4.89-0.76c-0.53,0-1.07,0.02-1.6,0.07h0.07c-0.13,0-0.31,0-0.47,0c-3.56,0-7.04,0.29-10.44,0.84l0.38-0.04
	c-13.82,2.96-25.87,9.27-35.62,18.07l0.07-0.07c-6.49,6-12.13,12.8-16.8,20.27l-0.24,0.42c-0.49,1.24-1.2,2.31-2.09,3.2
	c0.33-3.49,0.82-6.6,1.47-9.67l-0.09,0.53c3.69-19.67,1.69-26.49-8.89-30.47c-5.98-1.04-12.84-1.64-19.87-1.64
	c-1.29,0-2.56,0.02-3.84,0.07h0.18L1367.56,109.95z M1583.2,109.37h-3.13c-5.24,0-10.38,0.49-15.36,1.42l0.51-0.09
	c-28.31,5.84-51.42,24.13-63.76,48.78l-0.24,0.53c-6.04,10.84-9.6,23.78-9.6,37.53c0,1.13,0.02,2.24,0.07,3.36v-0.16
	c-0.02,0.91-0.04,2-0.04,3.09c0,5.82,0.53,11.51,1.53,17.04l-0.09-0.58c5.53,25.38,20.87,46.44,41.76,59.42l0.4,0.22
	c6.13,3.93,13.22,7.22,20.73,9.49l0.6,0.16c0.56-0.4,3.09-14.07,5.49-27.4l4.84-26.96l-2.29-1.78c-6-4.16-10.82-9.64-14.11-16.02
	l-0.11-0.24c-2.2-3.6-3.49-7.98-3.49-12.64c0-1.16,0.09-2.29,0.22-3.4l-0.02,0.13c-0.13-0.98-0.2-2.11-0.2-3.27
	c0-4.44,1.13-8.6,3.11-12.24l-0.07,0.13c5.07-10.44,14.47-18.11,25.8-20.69l0.24-0.04c1.78-0.18,3.36-0.69,3.36-1.16
	c0-1.2,8.89-51.42,9.38-53.2c-0.33-1.24-1.56-1.42-5.53-1.42V109.37z"/>
</svg>
