<?xml version="1.0" encoding="UTF-8"?>
<svg id="katman_2" data-name="katman 2" xmlns="http://www.w3.org/2000/svg" viewBox="0 0 110.02 110.01">
  <defs>
    <style>
      .cls-1 {
        fill-rule: evenodd;
        stroke-width: 0px;
      }
    </style>
  </defs>
  <g id="katman_1" data-name="katman 1">
    <path class="cls-1" d="m74.76,69.72l1.08-1.4c11.86-15.28,11.86-36.63,0-51.92C67.76,5.98,55.55,0,42.34,0c-9.47,0-18.43,3.07-25.93,8.89C7.47,15.82,1.76,25.82.34,37.05c-1.42,11.22,1.62,22.33,8.55,31.27,8.09,10.43,20.3,16.41,33.51,16.41,9.46,0,18.43-3.08,25.93-8.89l1.39-1.08,35.3,35.25,5-5-35.26-35.29Zm-32.37,7.92c-19.45,0-35.27-15.82-35.27-35.27S22.94,7.09,42.39,7.09s35.28,15.83,35.28,35.28-15.83,35.27-35.28,35.27Z"/>
  </g>
</svg>