<?xml version="1.0" encoding="UTF-8"?>
<svg id="katman_2" data-name="katman 2" xmlns="http://www.w3.org/2000/svg" viewBox="0 0 107.26 101.48">
  <defs>
    <style>
      .cls-1 {
        stroke-width: 0px;
      }
    </style>
  </defs>
  <g id="katman_1" data-name="katman 1">
    <path id="favori" class="cls-1" d="m99.54,10.72C93.91,3.92,85.63.01,76.81.01h-.23c-.31-.01-.61-.01-.89-.01-7.16,0-14.04,2.62-19.39,7.39l-2.66,2.37-2.66-2.37C45.64,2.62,38.75,0,31.6,0c-.28,0-.57,0-.86.01h-.26C21.65.01,13.37,3.91,7.74,10.71,2.8,16.71-2.36,27.66,1.16,45.79c1.28,6.57,4.62,13.48,9.94,20.54,4.4,5.84,10.15,11.78,17.08,17.64,12.33,10.44,24.1,17.01,24.6,17.28.26.14.56.22.86.22s.6-.08.86-.23c.5-.28,12.26-6.85,24.6-17.3,6.93-5.86,12.67-11.79,17.08-17.64,5.32-7.05,8.66-13.96,9.93-20.53,3.53-18.12-1.62-29.07-6.56-35.06Zm3.12,34.4c-2,10.35-9.34,21.35-21.82,32.67-9.61,8.73-19.86,15.45-25.11,18.67l-2.07,1.27-2.08-1.26c-4.28-2.59-42.01-26-46.92-51.36-3.25-16.77,1.39-26.75,5.85-32.16C15.44,6.99,22.71,3.57,30.45,3.54c.56-.04,1.11-.05,1.65-.05,7.82,0,15.19,3.81,19.7,10.2l.14.2.11.21c.31.58.92.94,1.58.94.3,0,.58-.07.85-.22.3-.17.54-.41.72-.72l.1-.17.11-.15c4.5-6.44,11.89-10.29,19.75-10.29.56,0,1.13.02,1.67.06,7.76.01,15.04,3.44,20,9.42,4.45,5.41,9.08,15.39,5.83,32.15Z"/>
  </g>
</svg>