<?xml version="1.0" encoding="UTF-8"?>
<svg id="katman_2" data-name="katman 2" xmlns="http://www.w3.org/2000/svg" viewBox="0 0 62.58 67.74">
  <defs>
    <style>
      .cls-1 {
        stroke-width: 0px;
      }
    </style>
  </defs>
  <g id="katman_1" data-name="katman 1">
    <path id="paylas" class="cls-1" d="m54.5,44.16c-1.31-.46-2.67-.7-4.05-.7h-.02c-3.62,0-7.03,1.6-9.34,4.39l-.55.67-17.25-9.8.29-.82c.93-2.61.93-5.49,0-8.11l-.29-.82,17.25-9.8.55.67c2.31,2.8,5.72,4.4,9.35,4.4,2.81,0,5.55-.99,7.72-2.78,5.15-4.26,5.88-11.92,1.62-17.07-2.31-2.8-5.72-4.4-9.35-4.4-2.81,0-5.55.99-7.72,2.78-3.91,3.23-5.4,8.62-3.7,13.4l.29.82-17.25,9.8-.55-.67c-2.31-2.79-5.72-4.39-9.35-4.39-2.82,0-5.57.99-7.74,2.79C1.9,26.6.36,29.52.05,32.75c-.3,3.23.67,6.38,2.74,8.88,2.31,2.79,5.72,4.39,9.36,4.39,2.82,0,5.57-.99,7.74-2.79.58-.48,1.12-1.02,1.6-1.6l.55-.67,17.25,9.77-.29.82c-1.08,3.06-.91,6.35.49,9.28,1.4,2.93,3.85,5.13,6.9,6.22,1.31.47,2.67.7,4.05.7h0c5.13,0,9.73-3.25,11.44-8.09,2.23-6.31-1.08-13.26-7.39-15.49ZM50.43,2.51h0c5.29,0,9.6,4.31,9.61,9.6,0,2.57-1,4.98-2.81,6.79-1.82,1.82-4.23,2.81-6.8,2.82-5.29,0-9.6-4.31-9.61-9.61,0-5.29,4.31-9.6,9.6-9.6ZM12.14,43.47c-5.29,0-9.6-4.32-9.59-9.61,0-5.29,4.31-9.59,9.6-9.59h.01c5.29,0,9.59,4.31,9.59,9.6,0,5.29-4.32,9.6-9.62,9.6Zm38.28,21.75c-5.29,0-9.6-4.31-9.6-9.6,0-2.57,1-4.98,2.81-6.79,1.81-1.81,4.22-2.81,6.79-2.81h0c5.29,0,9.6,4.31,9.6,9.61,0,5.29-4.31,9.59-9.61,9.6Z"/>
  </g>
</svg>