<?xml version="1.0" encoding="UTF-8"?>
<svg id="katman_2" data-name="katman 2" xmlns="http://www.w3.org/2000/svg" viewBox="0 0 81.66 81.66">
  <defs>
    <style>
      .cls-1 {
        stroke-width: 0px;
      }
    </style>
  </defs>
  <g id="katman_1" data-name="katman 1">
    <path id="sepet" class="cls-1" d="m80.43,25.65c-.78-.78-1.84-1.22-2.97-1.23h-16.55v-4.34c0-5.36-2.09-10.4-5.88-14.2-3.79-3.79-8.83-5.88-14.19-5.88s-10.4,2.09-14.2,5.88c-3.79,3.79-5.88,8.83-5.88,14.2v4.34H4.2c-1.12,0-2.18.44-2.97,1.23-.79.79-1.23,1.85-1.23,2.97v41.51c0,3.08,1.2,5.97,3.38,8.15,2.18,2.18,5.07,3.38,8.15,3.38h58.61c3.08,0,5.98-1.2,8.15-3.38,2.18-2.18,3.38-5.07,3.38-8.15V28.62c0-1.12-.44-2.18-1.23-2.97Zm-56.15-5.57c0-4.42,1.72-8.58,4.85-11.7,3.13-3.13,7.28-4.85,11.71-4.85s8.58,1.72,11.7,4.85c3.13,3.13,4.85,7.28,4.85,11.7v4.34H24.28v-4.34Zm53.86,50.06c0,2.14-.83,4.15-2.35,5.66-1.51,1.51-3.52,2.34-5.66,2.34H11.53c-2.14,0-4.15-.83-5.66-2.34-1.51-1.51-2.34-3.52-2.34-5.66V27.94h17.23v12.89c0,.46.19.92.52,1.24.33.33.77.52,1.24.52s.91-.18,1.24-.52c.33-.33.52-.78.52-1.24v-12.89h33.11v12.89c0,.47.18.91.52,1.24.33.33.77.52,1.24.52s.91-.18,1.25-.52c.33-.33.52-.77.52-1.24v-12.89h17.23v42.19Z"/>
  </g>
</svg>